<svg width="234" height="234" viewBox="0 0 234 234" fill="none" xmlns="http://www.w3.org/2000/svg">
<rect x="0.5" y="0.5" width="233" height="233" rx="19.5" stroke="#EAEAEA"/>
<path d="M115.534 59.7257C115.535 60.2349 115.534 60.744 115.534 61.254C115.533 61.9665 115.313 62.2474 114.629 62.4257C113.033 62.8415 111.551 63.504 110.281 64.5707C109.731 65.0324 109.25 65.5765 108.777 66.1349C109.422 65.6865 110.102 65.4065 110.889 65.4557C111.687 65.5049 112.353 65.8282 112.87 66.4357C113.683 67.3907 113.763 68.7515 113.077 69.7974C112.404 70.8249 111.106 71.2982 109.933 70.939C109.216 70.7199 108.668 70.2815 108.295 69.6307C107.93 68.9907 107.851 68.3024 108.003 67.5799C107.966 67.5715 107.929 67.564 107.893 67.5565C107.715 68.1332 107.5 68.7024 107.367 69.289C106.968 71.0474 107.031 72.7932 107.573 74.519C107.805 75.2574 107.676 75.5707 107.005 75.9607C106.556 76.2215 106.108 76.4832 105.654 76.7365C105.043 77.0782 104.472 76.8699 104.224 76.2132C103.232 73.574 103.115 70.889 103.813 68.1632C103.839 68.0649 103.862 67.9657 103.9 67.8132C103.709 67.8132 103.549 67.8107 103.389 67.814C103.026 67.8207 102.66 67.8099 102.299 67.844C101.712 67.899 101.265 67.7165 101 67.1682V66.6699C101.938 64.8199 102.878 62.9707 103.816 61.1215C103.853 61.0474 103.893 60.974 103.933 60.9015C104.308 60.2382 105.078 60.174 105.551 60.7774C105.961 61.3007 106.352 61.839 106.752 62.3699C106.813 62.4507 106.879 62.5274 106.952 62.6174C107.85 61.6665 108.841 60.8682 109.958 60.2282C111.315 59.4507 112.766 58.9399 114.308 58.689C115.083 58.5624 115.532 58.9474 115.534 59.7257Z" fill="#FF782D"/>
<path d="M131.941 67.8409C131.422 67.845 130.902 67.8217 130.382 67.8117C130.282 67.8092 130.181 67.8109 130.047 67.8109C130.146 68.26 130.246 68.6709 130.326 69.085C130.787 71.4892 130.585 73.8409 129.745 76.1384C129.471 76.8884 128.907 77.0959 128.217 76.7017C127.785 76.4542 127.355 76.2025 126.922 75.9542C126.27 75.5784 126.133 75.2525 126.358 74.5367C126.957 72.63 126.973 70.7142 126.448 68.7934C126.335 68.3792 126.168 67.9792 125.982 67.5784C126.097 68.3717 125.991 69.1117 125.552 69.7809C125.108 70.4575 124.479 70.8717 123.682 71.0175C122.459 71.2417 121.206 70.5884 120.667 69.4542C120.122 68.3092 120.422 66.935 121.388 66.1117C122.244 65.3825 123.757 65.0617 125.107 66.1684C125.128 66.15 125.149 66.1317 125.171 66.1142C124.878 65.785 124.602 65.44 124.289 65.1317C122.898 63.7625 121.21 62.9284 119.342 62.4325C118.612 62.2392 118.404 61.9809 118.403 61.2259V59.76C118.405 58.9392 118.851 58.5542 119.658 58.6925C122.404 59.1617 124.768 60.3717 126.73 62.3559C126.81 62.4367 126.883 62.525 126.983 62.6367C127.351 62.1492 127.699 61.6875 128.047 61.225C128.16 61.0759 128.268 60.9234 128.385 60.7775C128.863 60.1792 129.651 60.2267 130 60.9034C130.952 62.7484 131.89 64.6 132.817 66.4575C133.161 67.1475 132.715 67.8342 131.941 67.8409Z" fill="#FF782D"/>
<path d="M127.067 80.825C125.249 83.0075 122.979 84.48 120.222 85.1892C120.162 85.2042 120.102 85.22 120.043 85.2392C120.025 85.245 120.012 85.2642 119.978 85.2917C120.17 85.8617 120.364 86.44 120.557 87.0175C120.837 87.8559 120.434 88.4109 119.542 88.4117C117.827 88.4134 116.113 88.4134 114.398 88.4117C113.492 88.4109 113.102 87.8575 113.391 86.9917C113.581 86.4234 113.771 85.8542 113.962 85.2792C113.425 85.105 112.899 84.9525 112.385 84.765C110.175 83.9584 108.348 82.6125 106.855 80.8034C106.402 80.2534 106.508 79.6425 107.124 79.2817C107.591 79.0092 108.058 78.74 108.527 78.4725C109.104 78.1417 109.487 78.1967 109.937 78.6884C111.2 80.0692 112.708 81.0625 114.527 81.5425C115.094 81.6917 115.68 81.7667 116.262 81.8442C114.55 80.9509 113.892 79.8434 114.24 78.395C114.543 77.1317 115.693 76.24 116.999 76.2567C118.3 76.2725 119.423 77.1725 119.703 78.425C120.03 79.8842 119.367 80.9884 117.615 81.835C118.544 81.78 119.389 81.5984 120.209 81.2942C121.681 80.7484 122.918 79.8609 123.977 78.7117C124.459 78.1884 124.823 78.1342 125.433 78.4859C125.883 78.745 126.334 79.0017 126.782 79.2642C127.435 79.6475 127.547 80.2484 127.067 80.825Z" fill="#FF782D"/>
<path d="M47.8 132.62C46.9333 132.62 46.1667 132.52 45.5 132.32C44.8467 132.12 44.2933 131.753 43.84 131.22C43.4 130.687 43.0667 129.927 42.84 128.94C42.6133 127.953 42.5 126.66 42.5 125.06C42.5 123.553 42.6133 122.313 42.84 121.34C43.08 120.367 43.4267 119.607 43.88 119.06C44.3467 118.513 44.9133 118.133 45.58 117.92C46.2467 117.707 47.0067 117.6 47.86 117.6C48.4467 117.6 49.0133 117.633 49.56 117.7C50.12 117.767 50.6333 117.847 51.1 117.94C51.58 118.033 51.9933 118.133 52.34 118.24V120.14C52.1133 120.087 51.7933 120.04 51.38 120C50.9667 119.947 50.5 119.907 49.98 119.88C49.46 119.84 48.92 119.82 48.36 119.82C47.7467 119.82 47.22 119.893 46.78 120.04C46.3533 120.173 46.0067 120.427 45.74 120.8C45.4733 121.173 45.28 121.707 45.16 122.4C45.04 123.093 44.98 123.993 44.98 125.1C44.98 126.193 45.0333 127.087 45.14 127.78C45.26 128.473 45.44 129.013 45.68 129.4C45.9333 129.773 46.2733 130.033 46.7 130.18C47.14 130.327 47.6867 130.4 48.34 130.4C49.34 130.4 50.16 130.38 50.8 130.34C51.44 130.287 51.9533 130.233 52.34 130.18V132.08C51.9667 132.187 51.54 132.28 51.06 132.36C50.5933 132.44 50.0867 132.5 49.54 132.54C49.0067 132.593 48.4267 132.62 47.8 132.62ZM58.7244 132.6C57.8844 132.6 57.1577 132.513 56.5444 132.34C55.931 132.167 55.431 131.873 55.0444 131.46C54.6577 131.047 54.371 130.487 54.1844 129.78C53.9977 129.073 53.9044 128.187 53.9044 127.12C53.9044 126.013 53.9977 125.107 54.1844 124.4C54.371 123.68 54.6577 123.12 55.0444 122.72C55.4444 122.307 55.951 122.027 56.5644 121.88C57.1777 121.72 57.8977 121.64 58.7244 121.64C59.5777 121.64 60.311 121.727 60.9244 121.9C61.5377 122.06 62.0377 122.34 62.4244 122.74C62.811 123.14 63.0977 123.7 63.2844 124.42C63.471 125.127 63.5644 126.027 63.5644 127.12C63.5644 128.2 63.471 129.1 63.2844 129.82C63.111 130.527 62.831 131.087 62.4444 131.5C62.0577 131.9 61.5577 132.187 60.9444 132.36C60.331 132.52 59.591 132.6 58.7244 132.6ZM58.7244 130.62C59.1377 130.62 59.491 130.587 59.7844 130.52C60.0777 130.44 60.3177 130.287 60.5044 130.06C60.7044 129.82 60.851 129.467 60.9444 129C61.0377 128.52 61.0844 127.887 61.0844 127.1C61.0844 126.327 61.0377 125.707 60.9444 125.24C60.851 124.773 60.7044 124.427 60.5044 124.2C60.3177 123.96 60.0777 123.807 59.7844 123.74C59.491 123.66 59.1377 123.62 58.7244 123.62C58.3244 123.62 57.9777 123.66 57.6844 123.74C57.391 123.807 57.151 123.96 56.9644 124.2C56.7777 124.427 56.631 124.773 56.5244 125.24C56.431 125.707 56.3844 126.327 56.3844 127.1C56.3844 127.887 56.431 128.52 56.5244 129C56.631 129.467 56.7777 129.82 56.9644 130.06C57.151 130.287 57.391 130.44 57.6844 130.52C57.9777 130.587 58.3244 130.62 58.7244 130.62ZM65.7678 132.5V121.78H67.7878L68.2478 122.9C68.7411 122.553 69.2811 122.253 69.8678 122C70.4678 121.733 71.1745 121.6 71.9878 121.6C72.6545 121.6 73.2145 121.747 73.6678 122.04C74.1345 122.32 74.4811 122.687 74.7078 123.14C75.0145 122.9 75.3811 122.667 75.8078 122.44C76.2478 122.2 76.7145 122 77.2078 121.84C77.7011 121.68 78.1878 121.6 78.6678 121.6C79.4945 121.6 80.1545 121.767 80.6478 122.1C81.1545 122.42 81.5145 122.873 81.7278 123.46C81.9411 124.033 82.0478 124.7 82.0478 125.46V132.5H79.5678V125.66C79.5678 125.273 79.4945 124.947 79.3478 124.68C79.2011 124.413 78.9945 124.207 78.7278 124.06C78.4745 123.913 78.1611 123.84 77.7878 123.84C77.3078 123.84 76.8211 123.933 76.3278 124.12C75.8478 124.307 75.4078 124.533 75.0078 124.8C75.0611 124.933 75.0945 125.08 75.1078 125.24C75.1345 125.4 75.1478 125.56 75.1478 125.72V132.5H72.6678V125.66C72.6678 125.273 72.5945 124.947 72.4478 124.68C72.3011 124.413 72.0945 124.207 71.8278 124.06C71.5745 123.913 71.2611 123.84 70.8878 123.84C70.5411 123.84 70.2145 123.873 69.9078 123.94C69.6145 124.007 69.3345 124.107 69.0678 124.24C68.8011 124.373 68.5278 124.533 68.2478 124.72V132.5H65.7678ZM84.4983 132.5V121.78H86.5183L86.9783 122.9C87.4716 122.553 88.0116 122.253 88.5983 122C89.1983 121.733 89.9049 121.6 90.7183 121.6C91.3849 121.6 91.9449 121.747 92.3983 122.04C92.8649 122.32 93.2116 122.687 93.4383 123.14C93.7449 122.9 94.1116 122.667 94.5383 122.44C94.9783 122.2 95.4449 122 95.9383 121.84C96.4316 121.68 96.9183 121.6 97.3983 121.6C98.2249 121.6 98.8849 121.767 99.3783 122.1C99.8849 122.42 100.245 122.873 100.458 123.46C100.672 124.033 100.778 124.7 100.778 125.46V132.5H98.2983V125.66C98.2983 125.273 98.2249 124.947 98.0783 124.68C97.9316 124.413 97.7249 124.207 97.4583 124.06C97.2049 123.913 96.8916 123.84 96.5183 123.84C96.0383 123.84 95.5516 123.933 95.0583 124.12C94.5783 124.307 94.1383 124.533 93.7383 124.8C93.7916 124.933 93.8249 125.08 93.8383 125.24C93.8649 125.4 93.8783 125.56 93.8783 125.72V132.5H91.3983V125.66C91.3983 125.273 91.3249 124.947 91.1783 124.68C91.0316 124.413 90.8249 124.207 90.5583 124.06C90.3049 123.913 89.9916 123.84 89.6183 123.84C89.2716 123.84 88.9449 123.873 88.6383 123.94C88.3449 124.007 88.0649 124.107 87.7983 124.24C87.5316 124.373 87.2583 124.533 86.9783 124.72V132.5H84.4983ZM106.329 132.62C105.342 132.62 104.575 132.347 104.029 131.8C103.482 131.24 103.209 130.427 103.209 129.36V121.78H105.689V128.64C105.689 129.347 105.849 129.82 106.169 130.06C106.502 130.3 106.949 130.42 107.509 130.42C107.975 130.42 108.429 130.347 108.869 130.2C109.309 130.053 109.722 129.84 110.109 129.56V121.78H112.589V132.5H110.569L110.109 131.38C109.602 131.7 109.022 131.987 108.369 132.24C107.729 132.493 107.049 132.62 106.329 132.62ZM115.084 132.5V121.78H117.104L117.564 122.9C118.004 122.567 118.538 122.267 119.164 122C119.804 121.733 120.464 121.6 121.144 121.6C121.984 121.6 122.644 121.773 123.124 122.12C123.604 122.453 123.944 122.907 124.144 123.48C124.358 124.053 124.464 124.68 124.464 125.36V132.5H121.984V125.66C121.984 125.273 121.911 124.947 121.764 124.68C121.618 124.413 121.411 124.207 121.144 124.06C120.891 123.913 120.578 123.84 120.204 123.84C119.858 123.84 119.531 123.873 119.224 123.94C118.931 124.007 118.651 124.107 118.384 124.24C118.118 124.373 117.844 124.533 117.564 124.72V132.5H115.084ZM127.26 120.08C127.006 120.08 126.88 119.96 126.88 119.72V117.9C126.88 117.633 127.006 117.5 127.26 117.5H129.14C129.26 117.5 129.346 117.54 129.4 117.62C129.466 117.7 129.5 117.793 129.5 117.9V119.72C129.5 119.96 129.38 120.08 129.14 120.08H127.26ZM126.94 132.5V121.78H129.42V132.5H126.94ZM132.279 120.08C132.026 120.08 131.899 119.96 131.899 119.72V117.9C131.899 117.633 132.026 117.5 132.279 117.5H134.159C134.279 117.5 134.366 117.54 134.419 117.62C134.486 117.7 134.519 117.793 134.519 117.9V119.72C134.519 119.96 134.399 120.08 134.159 120.08H132.279ZM131.959 132.5V121.78H134.439V132.5H131.959ZM141.079 132.62C140.439 132.62 139.845 132.54 139.299 132.38C138.765 132.207 138.299 131.92 137.899 131.52C137.499 131.107 137.185 130.547 136.959 129.84C136.745 129.133 136.639 128.247 136.639 127.18C136.639 126.087 136.739 125.18 136.939 124.46C137.152 123.74 137.452 123.173 137.839 122.76C138.225 122.347 138.692 122.06 139.239 121.9C139.799 121.727 140.432 121.64 141.139 121.64C141.739 121.64 142.345 121.673 142.959 121.74C143.572 121.793 144.185 121.9 144.799 122.06V123.48H141.879C141.239 123.48 140.719 123.58 140.319 123.78C139.919 123.98 139.619 124.347 139.419 124.88C139.219 125.413 139.119 126.18 139.119 127.18C139.119 128.167 139.219 128.92 139.419 129.44C139.619 129.947 139.919 130.293 140.319 130.48C140.732 130.653 141.259 130.74 141.899 130.74H144.959V132.14C144.639 132.233 144.265 132.32 143.839 132.4C143.412 132.467 142.959 132.52 142.479 132.56C142.012 132.6 141.545 132.62 141.079 132.62ZM149.003 132.62C148.203 132.62 147.55 132.38 147.043 131.9C146.537 131.42 146.283 130.76 146.283 129.92V129.02C146.283 128.193 146.563 127.52 147.123 127C147.697 126.48 148.57 126.22 149.743 126.22H152.803V125.28C152.803 124.907 152.737 124.593 152.603 124.34C152.47 124.087 152.23 123.9 151.883 123.78C151.537 123.647 151.01 123.58 150.303 123.58H147.063V122.14C147.557 122.007 148.137 121.893 148.803 121.8C149.47 121.693 150.263 121.64 151.183 121.64C152.063 121.627 152.81 121.733 153.423 121.96C154.037 122.173 154.497 122.533 154.803 123.04C155.123 123.547 155.283 124.24 155.283 125.12V132.5H153.343L152.923 131.34C152.83 131.42 152.663 131.527 152.423 131.66C152.183 131.793 151.883 131.94 151.523 132.1C151.163 132.247 150.763 132.373 150.323 132.48C149.897 132.573 149.457 132.62 149.003 132.62ZM150.203 130.88C150.377 130.88 150.57 130.86 150.783 130.82C151.01 130.767 151.237 130.713 151.463 130.66C151.69 130.593 151.897 130.533 152.083 130.48C152.283 130.413 152.443 130.353 152.563 130.3C152.697 130.247 152.777 130.213 152.803 130.2V127.4L150.483 127.52C149.87 127.573 149.423 127.733 149.143 128C148.877 128.267 148.743 128.62 148.743 129.06V129.5C148.743 129.833 148.81 130.107 148.943 130.32C149.09 130.52 149.27 130.66 149.483 130.74C149.71 130.82 149.95 130.867 150.203 130.88ZM161.64 132.5C160.867 132.5 160.234 132.387 159.74 132.16C159.247 131.92 158.887 131.527 158.66 130.98C158.447 130.433 158.347 129.713 158.36 128.82L158.44 123.78H156.76V122.18L158.52 121.78L158.88 118.78H160.82V121.78H163.54V123.78H160.82V128.8C160.82 129.147 160.854 129.433 160.92 129.66C160.987 129.873 161.08 130.047 161.2 130.18C161.334 130.3 161.474 130.387 161.62 130.44C161.767 130.493 161.92 130.527 162.08 130.54L163.42 130.68V132.5H161.64ZM165.678 120.08C165.424 120.08 165.298 119.96 165.298 119.72V117.9C165.298 117.633 165.424 117.5 165.678 117.5H167.558C167.678 117.5 167.764 117.54 167.818 117.62C167.884 117.7 167.918 117.793 167.918 117.9V119.72C167.918 119.96 167.798 120.08 167.558 120.08H165.678ZM165.358 132.5V121.78H167.838V132.5H165.358ZM174.857 132.6C174.017 132.6 173.291 132.513 172.677 132.34C172.064 132.167 171.564 131.873 171.177 131.46C170.791 131.047 170.504 130.487 170.317 129.78C170.131 129.073 170.037 128.187 170.037 127.12C170.037 126.013 170.131 125.107 170.317 124.4C170.504 123.68 170.791 123.12 171.177 122.72C171.577 122.307 172.084 122.027 172.697 121.88C173.311 121.72 174.031 121.64 174.857 121.64C175.711 121.64 176.444 121.727 177.057 121.9C177.671 122.06 178.171 122.34 178.557 122.74C178.944 123.14 179.231 123.7 179.417 124.42C179.604 125.127 179.697 126.027 179.697 127.12C179.697 128.2 179.604 129.1 179.417 129.82C179.244 130.527 178.964 131.087 178.577 131.5C178.191 131.9 177.691 132.187 177.077 132.36C176.464 132.52 175.724 132.6 174.857 132.6ZM174.857 130.62C175.271 130.62 175.624 130.587 175.917 130.52C176.211 130.44 176.451 130.287 176.637 130.06C176.837 129.82 176.984 129.467 177.077 129C177.171 128.52 177.217 127.887 177.217 127.1C177.217 126.327 177.171 125.707 177.077 125.24C176.984 124.773 176.837 124.427 176.637 124.2C176.451 123.96 176.211 123.807 175.917 123.74C175.624 123.66 175.271 123.62 174.857 123.62C174.457 123.62 174.111 123.66 173.817 123.74C173.524 123.807 173.284 123.96 173.097 124.2C172.911 124.427 172.764 124.773 172.657 125.24C172.564 125.707 172.517 126.327 172.517 127.1C172.517 127.887 172.564 128.52 172.657 129C172.764 129.467 172.911 129.82 173.097 130.06C173.284 130.287 173.524 130.44 173.817 130.52C174.111 130.587 174.457 130.62 174.857 130.62ZM181.901 132.5V121.78H183.921L184.381 122.9C184.821 122.567 185.354 122.267 185.981 122C186.621 121.733 187.281 121.6 187.961 121.6C188.801 121.6 189.461 121.773 189.941 122.12C190.421 122.453 190.761 122.907 190.961 123.48C191.174 124.053 191.281 124.68 191.281 125.36V132.5H188.801V125.66C188.801 125.273 188.727 124.947 188.581 124.68C188.434 124.413 188.227 124.207 187.961 124.06C187.707 123.913 187.394 123.84 187.021 123.84C186.674 123.84 186.347 123.873 186.041 123.94C185.747 124.007 185.467 124.107 185.201 124.24C184.934 124.373 184.661 124.533 184.381 124.72V132.5H181.901Z" fill="black"/>
<path d="M78.054 163.29V162.3C78.462 162.3 78.822 162.246 79.134 162.138C79.446 162.018 79.71 161.862 79.926 161.67C80.142 161.466 80.304 161.232 80.412 160.968C80.532 160.704 80.592 160.422 80.592 160.122C80.592 159.726 80.52 159.378 80.376 159.078C80.232 158.766 80.016 158.526 79.728 158.358C79.452 158.19 79.104 158.106 78.684 158.106C78.096 158.106 77.598 158.292 77.19 158.664C76.782 159.024 76.578 159.48 76.578 160.032H75.12C75.12 159.372 75.27 158.796 75.57 158.304C75.882 157.812 76.302 157.428 76.83 157.152C77.37 156.864 77.982 156.72 78.666 156.72C79.386 156.72 80.004 156.876 80.52 157.188C81.048 157.5 81.45 157.908 81.726 158.412C82.014 158.916 82.158 159.468 82.158 160.068C82.158 160.656 81.984 161.196 81.636 161.688C81.288 162.18 80.808 162.57 80.196 162.858C79.584 163.146 78.87 163.29 78.054 163.29ZM78.594 169.68C77.982 169.68 77.43 169.59 76.938 169.41C76.446 169.23 76.026 168.984 75.678 168.672C75.33 168.348 75.06 167.976 74.868 167.556C74.676 167.124 74.58 166.662 74.58 166.17H76.128C76.128 166.566 76.23 166.92 76.434 167.232C76.65 167.544 76.944 167.79 77.316 167.97C77.688 168.15 78.114 168.24 78.594 168.24C79.074 168.24 79.488 168.15 79.836 167.97C80.196 167.778 80.472 167.514 80.664 167.178C80.856 166.842 80.952 166.446 80.952 165.99C80.952 165.606 80.874 165.27 80.718 164.982C80.574 164.682 80.37 164.436 80.106 164.244C79.842 164.04 79.536 163.89 79.188 163.794C78.84 163.698 78.462 163.65 78.054 163.65V162.66C78.666 162.66 79.236 162.726 79.764 162.858C80.304 162.99 80.778 163.2 81.186 163.488C81.606 163.764 81.93 164.124 82.158 164.568C82.398 165.012 82.518 165.546 82.518 166.17C82.518 166.878 82.344 167.496 81.996 168.024C81.66 168.552 81.198 168.96 80.61 169.248C80.022 169.536 79.35 169.68 78.594 169.68ZM84.7662 159.942C84.7662 159.342 84.9162 158.802 85.2162 158.322C85.5282 157.83 85.9422 157.44 86.4582 157.152C86.9862 156.864 87.5802 156.72 88.2402 156.72C88.9002 156.72 89.4882 156.864 90.0042 157.152C90.5322 157.44 90.9462 157.83 91.2462 158.322C91.5582 158.802 91.7142 159.342 91.7142 159.942C91.7142 160.434 91.6302 160.878 91.4622 161.274C91.2942 161.658 91.0542 161.988 90.7422 162.264C90.4422 162.54 90.0762 162.75 89.6442 162.894C89.2242 163.038 88.7562 163.11 88.2402 163.11C87.7242 163.11 87.2502 163.038 86.8182 162.894C86.3982 162.75 86.0322 162.54 85.7202 162.264C85.4202 161.988 85.1862 161.658 85.0182 161.274C84.8502 160.878 84.7662 160.434 84.7662 159.942ZM86.2242 160.122C86.2242 160.518 86.3142 160.866 86.4942 161.166C86.6862 161.466 86.9322 161.7 87.2322 161.868C87.5442 162.036 87.8802 162.12 88.2402 162.12C88.6002 162.12 88.9302 162.036 89.2302 161.868C89.5422 161.7 89.7882 161.466 89.9682 161.166C90.1602 160.866 90.2562 160.518 90.2562 160.122C90.2562 159.726 90.1662 159.372 89.9862 159.06C89.8182 158.748 89.5842 158.508 89.2842 158.34C88.9842 158.16 88.6362 158.07 88.2402 158.07C87.8562 158.07 87.5082 158.16 87.1962 158.34C86.8962 158.508 86.6562 158.748 86.4762 159.06C86.3082 159.372 86.2242 159.726 86.2242 160.122ZM84.3162 166.08C84.3162 165.504 84.4182 164.994 84.6222 164.55C84.8382 164.094 85.1262 163.716 85.4862 163.416C85.8582 163.104 86.2782 162.87 86.7462 162.714C87.2262 162.558 87.7242 162.48 88.2402 162.48C88.7562 162.48 89.2482 162.558 89.7162 162.714C90.1962 162.87 90.6162 163.104 90.9762 163.416C91.3482 163.716 91.6362 164.094 91.8402 164.55C92.0562 164.994 92.1642 165.504 92.1642 166.08C92.1642 166.572 92.0622 167.034 91.8582 167.466C91.6662 167.898 91.3902 168.282 91.0302 168.618C90.6822 168.954 90.2682 169.218 89.7882 169.41C89.3202 169.59 88.8042 169.68 88.2402 169.68C87.6762 169.68 87.1542 169.59 86.6742 169.41C86.2062 169.218 85.7922 168.954 85.4322 168.618C85.0842 168.282 84.8082 167.898 84.6042 167.466C84.4122 167.034 84.3162 166.572 84.3162 166.08ZM85.7742 165.9C85.7742 166.416 85.8882 166.854 86.1162 167.214C86.3562 167.574 86.6622 167.85 87.0342 168.042C87.4182 168.234 87.8202 168.33 88.2402 168.33C88.6602 168.33 89.0562 168.234 89.4282 168.042C89.8122 167.85 90.1182 167.574 90.3462 167.214C90.5862 166.854 90.7062 166.416 90.7062 165.9C90.7062 165.444 90.5862 165.036 90.3462 164.676C90.1182 164.304 89.8122 164.01 89.4282 163.794C89.0562 163.578 88.6602 163.47 88.2402 163.47C87.8202 163.47 87.4182 163.578 87.0342 163.794C86.6622 164.01 86.3562 164.304 86.1162 164.676C85.8882 165.036 85.7742 165.444 85.7742 165.9ZM100.889 163.2C100.889 164.172 101.105 165.03 101.537 165.774C101.981 166.518 102.557 167.1 103.265 167.52C103.973 167.94 104.741 168.15 105.569 168.15C106.169 168.15 106.715 168.072 107.207 167.916C107.711 167.76 108.167 167.544 108.575 167.268C108.983 166.98 109.331 166.65 109.619 166.278V168.294C109.091 168.762 108.515 169.11 107.891 169.338C107.267 169.566 106.493 169.68 105.569 169.68C104.693 169.68 103.871 169.524 103.103 169.212C102.347 168.888 101.681 168.438 101.105 167.862C100.529 167.274 100.079 166.584 99.7548 165.792C99.4308 165 99.2688 164.136 99.2688 163.2C99.2688 162.264 99.4308 161.4 99.7548 160.608C100.079 159.816 100.529 159.132 101.105 158.556C101.681 157.968 102.347 157.518 103.103 157.206C103.871 156.882 104.693 156.72 105.569 156.72C106.493 156.72 107.267 156.834 107.891 157.062C108.515 157.29 109.091 157.638 109.619 158.106V160.122C109.331 159.75 108.983 159.426 108.575 159.15C108.167 158.862 107.711 158.64 107.207 158.484C106.715 158.328 106.169 158.25 105.569 158.25C104.741 158.25 103.973 158.46 103.265 158.88C102.557 159.3 101.981 159.882 101.537 160.626C101.105 161.358 100.889 162.216 100.889 163.2ZM111.501 165.36C111.501 164.52 111.687 163.776 112.059 163.128C112.443 162.48 112.959 161.97 113.607 161.598C114.255 161.226 114.981 161.04 115.785 161.04C116.601 161.04 117.327 161.226 117.963 161.598C118.611 161.97 119.121 162.48 119.493 163.128C119.877 163.776 120.069 164.52 120.069 165.36C120.069 166.188 119.877 166.932 119.493 167.592C119.121 168.24 118.611 168.75 117.963 169.122C117.327 169.494 116.601 169.68 115.785 169.68C114.981 169.68 114.255 169.494 113.607 169.122C112.959 168.75 112.443 168.24 112.059 167.592C111.687 166.932 111.501 166.188 111.501 165.36ZM112.959 165.36C112.959 165.936 113.079 166.446 113.319 166.89C113.571 167.334 113.907 167.688 114.327 167.952C114.759 168.204 115.245 168.33 115.785 168.33C116.325 168.33 116.805 168.204 117.225 167.952C117.657 167.688 117.993 167.334 118.233 166.89C118.485 166.446 118.611 165.936 118.611 165.36C118.611 164.784 118.485 164.274 118.233 163.83C117.993 163.374 117.657 163.02 117.225 162.768C116.805 162.516 116.325 162.39 115.785 162.39C115.245 162.39 114.759 162.516 114.327 162.768C113.907 163.02 113.571 163.374 113.319 163.83C113.079 164.274 112.959 164.784 112.959 165.36ZM123.487 166.26C123.487 166.92 123.637 167.43 123.937 167.79C124.237 168.15 124.675 168.33 125.251 168.33C125.671 168.33 126.037 168.246 126.349 168.078C126.673 167.898 126.919 167.652 127.087 167.34C127.267 167.028 127.357 166.668 127.357 166.26V161.22H128.797V169.5H127.357V168.204C127.081 168.696 126.739 169.068 126.331 169.32C125.923 169.56 125.443 169.68 124.891 169.68C124.027 169.68 123.337 169.386 122.821 168.798C122.305 168.21 122.047 167.424 122.047 166.44V161.22H123.487V166.26ZM132.944 161.22V169.5H131.504V161.22H132.944ZM135.446 162.804C135.254 162.66 135.08 162.558 134.924 162.498C134.768 162.426 134.57 162.39 134.33 162.39C133.97 162.39 133.688 162.48 133.484 162.66C133.28 162.84 133.136 163.086 133.052 163.398C132.98 163.71 132.944 164.064 132.944 164.46H132.296C132.296 163.8 132.41 163.218 132.638 162.714C132.878 162.198 133.184 161.79 133.556 161.49C133.928 161.19 134.306 161.04 134.69 161.04C134.99 161.04 135.266 161.082 135.518 161.166C135.782 161.238 136.022 161.388 136.238 161.616L135.446 162.804ZM138.016 166.962C138.184 167.214 138.376 167.448 138.592 167.664C138.808 167.88 139.054 168.054 139.33 168.186C139.618 168.306 139.93 168.366 140.266 168.366C140.674 168.366 140.992 168.276 141.22 168.096C141.46 167.904 141.58 167.646 141.58 167.322C141.58 167.034 141.484 166.794 141.292 166.602C141.112 166.398 140.878 166.23 140.59 166.098C140.302 165.954 139.996 165.822 139.672 165.702C139.312 165.558 138.946 165.39 138.574 165.198C138.214 164.994 137.908 164.736 137.656 164.424C137.416 164.1 137.296 163.698 137.296 163.218C137.296 162.726 137.422 162.318 137.674 161.994C137.938 161.67 138.274 161.43 138.682 161.274C139.102 161.118 139.534 161.04 139.978 161.04C140.422 161.04 140.836 161.112 141.22 161.256C141.616 161.4 141.964 161.592 142.264 161.832C142.564 162.072 142.798 162.348 142.966 162.66L141.814 163.398C141.586 163.086 141.298 162.828 140.95 162.624C140.614 162.42 140.23 162.318 139.798 162.318C139.498 162.318 139.24 162.384 139.024 162.516C138.808 162.648 138.7 162.852 138.7 163.128C138.7 163.344 138.784 163.536 138.952 163.704C139.12 163.872 139.336 164.022 139.6 164.154C139.864 164.286 140.14 164.412 140.428 164.532C140.908 164.724 141.346 164.934 141.742 165.162C142.138 165.378 142.45 165.642 142.678 165.954C142.918 166.266 143.038 166.668 143.038 167.16C143.038 167.88 142.774 168.48 142.246 168.96C141.73 169.44 141.046 169.68 140.194 169.68C139.642 169.68 139.144 169.584 138.7 169.392C138.256 169.188 137.878 168.93 137.566 168.618C137.266 168.306 137.038 167.988 136.882 167.664L138.016 166.962ZM148.138 169.68C147.37 169.68 146.686 169.5 146.086 169.14C145.498 168.768 145.036 168.258 144.7 167.61C144.376 166.962 144.214 166.212 144.214 165.36C144.214 164.496 144.382 163.74 144.718 163.092C145.066 162.444 145.546 161.94 146.158 161.58C146.782 161.22 147.502 161.04 148.318 161.04C149.134 161.04 149.83 161.214 150.406 161.562C150.994 161.898 151.444 162.384 151.756 163.02C152.068 163.656 152.224 164.412 152.224 165.288C152.224 165.372 152.218 165.462 152.206 165.558C152.206 165.642 152.206 165.696 152.206 165.72H145.132V164.496H151.072L150.496 165.324C150.532 165.264 150.568 165.174 150.604 165.054C150.64 164.922 150.658 164.814 150.658 164.73C150.658 164.238 150.556 163.812 150.352 163.452C150.16 163.092 149.89 162.81 149.542 162.606C149.194 162.402 148.786 162.3 148.318 162.3C147.766 162.3 147.292 162.42 146.896 162.66C146.512 162.888 146.212 163.224 145.996 163.668C145.792 164.1 145.684 164.634 145.672 165.27C145.672 165.918 145.774 166.47 145.978 166.926C146.182 167.382 146.482 167.73 146.878 167.97C147.274 168.21 147.754 168.33 148.318 168.33C148.882 168.33 149.38 168.21 149.812 167.97C150.244 167.718 150.61 167.34 150.91 166.836L152.08 167.574C151.648 168.27 151.102 168.798 150.442 169.158C149.794 169.506 149.026 169.68 148.138 169.68ZM154.54 166.962C154.708 167.214 154.9 167.448 155.116 167.664C155.332 167.88 155.578 168.054 155.854 168.186C156.142 168.306 156.454 168.366 156.79 168.366C157.198 168.366 157.516 168.276 157.744 168.096C157.984 167.904 158.104 167.646 158.104 167.322C158.104 167.034 158.008 166.794 157.816 166.602C157.636 166.398 157.402 166.23 157.114 166.098C156.826 165.954 156.52 165.822 156.196 165.702C155.836 165.558 155.47 165.39 155.098 165.198C154.738 164.994 154.432 164.736 154.18 164.424C153.94 164.1 153.82 163.698 153.82 163.218C153.82 162.726 153.946 162.318 154.198 161.994C154.462 161.67 154.798 161.43 155.206 161.274C155.626 161.118 156.058 161.04 156.502 161.04C156.946 161.04 157.36 161.112 157.744 161.256C158.14 161.4 158.488 161.592 158.788 161.832C159.088 162.072 159.322 162.348 159.49 162.66L158.338 163.398C158.11 163.086 157.822 162.828 157.474 162.624C157.138 162.42 156.754 162.318 156.322 162.318C156.022 162.318 155.764 162.384 155.548 162.516C155.332 162.648 155.224 162.852 155.224 163.128C155.224 163.344 155.308 163.536 155.476 163.704C155.644 163.872 155.86 164.022 156.124 164.154C156.388 164.286 156.664 164.412 156.952 164.532C157.432 164.724 157.87 164.934 158.266 165.162C158.662 165.378 158.974 165.642 159.202 165.954C159.442 166.266 159.562 166.668 159.562 167.16C159.562 167.88 159.298 168.48 158.77 168.96C158.254 169.44 157.57 169.68 156.718 169.68C156.166 169.68 155.668 169.584 155.224 169.392C154.78 169.188 154.402 168.93 154.09 168.618C153.79 168.306 153.562 167.988 153.406 167.664L154.54 166.962Z" fill="#555555"/>
</svg>
