<svg width="234" height="234" viewBox="0 0 234 234" fill="none" xmlns="http://www.w3.org/2000/svg">
<rect x="0.5" y="0.5" width="233" height="233" rx="19.5" stroke="#EAEAEA"/>
<path d="M102.664 67.8859V68.2142C102.664 73.2775 102.663 78.3409 102.666 83.4042C102.666 83.6534 102.668 83.9059 102.709 84.15C103.079 86.3525 104.818 87.8259 107.065 87.83C111.067 87.8367 115.069 87.8317 119.072 87.8317H119.408C119.35 87.5975 119.293 87.4192 119.264 87.2367C119.034 85.7692 118.827 84.2984 118.578 82.8342C118.457 82.1209 118.533 81.4684 118.845 80.8084C120.291 77.7492 121.713 74.6775 123.144 71.6117C124.098 69.5684 126.18 68.8067 128.224 69.7575C129.237 70.2275 130.243 70.7117 131.241 71.185V67.8859H102.664ZM114.237 83.8367C113.146 83.8425 112.056 83.8384 110.965 83.8384C109.864 83.8375 108.763 83.8384 107.663 83.8375C107.262 83.8375 106.959 83.6567 106.773 83.31C106.592 82.9742 106.61 82.6267 106.815 82.3034C107.015 81.9884 107.32 81.8442 107.686 81.8442C109.877 81.8409 112.068 81.8375 114.26 81.845C114.873 81.8475 115.3 82.2834 115.295 82.8559C115.29 83.43 114.863 83.8334 114.237 83.8367ZM117.176 78.4934C117.056 78.52 116.928 78.5184 116.805 78.5184C115.298 78.52 113.793 78.5192 112.287 78.5192C110.76 78.5192 109.233 78.5225 107.707 78.5175C106.989 78.515 106.505 77.9 106.69 77.2434C106.813 76.8084 107.203 76.525 107.703 76.5234C108.938 76.52 110.175 76.5225 111.411 76.5225C113.249 76.5225 115.088 76.52 116.926 76.5242C117.476 76.525 117.902 76.8992 117.959 77.41C118.015 77.9109 117.678 78.3834 117.176 78.4934ZM117.938 72.4067C117.842 72.8142 117.583 73.0809 117.163 73.1659C117.033 73.1925 116.896 73.1984 116.762 73.1984C115.276 73.2009 113.791 73.2 112.306 73.2C110.79 73.2 109.273 73.2025 107.758 73.1984C107.083 73.1959 106.641 72.7684 106.66 72.155C106.676 71.6509 107.056 71.2509 107.559 71.21C107.642 71.2034 107.725 71.2034 107.808 71.2034C110.809 71.2034 113.811 71.1975 116.813 71.2134C117.074 71.2142 117.372 71.3009 117.59 71.4434C117.917 71.6567 118.03 72.0184 117.938 72.4067Z" fill="#FF782D"/>
<path d="M131.261 63.5659C131.243 63.1434 131.199 62.7109 131.082 62.3075C130.533 60.4142 128.873 59.2242 126.814 59.2234C120.254 59.2217 113.694 59.2225 107.133 59.2234C107.009 59.2234 106.884 59.2242 106.759 59.2292C104.794 59.305 103.033 60.7975 102.756 62.7467C102.62 63.6959 102.688 64.675 102.666 65.64C102.664 65.7084 102.683 65.7775 102.693 65.8559H131.254C131.259 65.7584 131.268 65.66 131.268 65.5617C131.269 64.8959 131.289 64.23 131.261 63.5659ZM108.308 63.8692C107.764 63.8667 107.316 63.42 107.314 62.8792C107.313 62.3292 107.79 61.8617 108.336 61.8775C108.881 61.8925 109.312 62.3417 109.306 62.8909C109.3 63.4425 108.863 63.8717 108.308 63.8692ZM111.653 63.8692C111.098 63.8734 110.659 63.445 110.653 62.8942C110.645 62.3317 111.094 61.8725 111.648 61.8767C112.183 61.8809 112.642 62.3417 112.643 62.8759C112.645 63.4167 112.198 63.865 111.653 63.8692ZM114.98 63.8684C114.432 63.8725 113.981 63.4375 113.973 62.895C113.964 62.3392 114.422 61.8742 114.974 61.8775C115.513 61.8809 115.966 62.3359 115.968 62.8742C115.969 63.4184 115.526 63.8642 114.98 63.8684Z" fill="#FF782D"/>
<path d="M129.508 78.4308C129.321 78.8308 129.143 79.2142 128.965 79.5967C128.189 81.2617 127.41 82.9258 126.64 84.5933C126.5 84.8983 126.3 85.1258 126.012 85.2992C124.739 86.0642 123.473 86.8408 122.203 87.61C121.408 88.0925 120.678 87.7517 120.536 86.8308C120.304 85.3325 120.071 83.8342 119.857 82.3333C119.826 82.1183 119.846 81.8625 119.935 81.6675C120.891 79.5825 121.866 77.5067 122.836 75.4283C122.844 75.4108 122.862 75.3967 122.902 75.3508C125.102 76.3767 127.291 77.3975 129.508 78.4308Z" fill="#FF782D"/>
<path d="M131.161 74.8092C130.949 75.4225 130.64 76.0025 130.363 76.6259C128.137 75.5884 125.943 74.565 123.715 73.5259C123.989 72.9484 124.222 72.4042 124.5 71.8834C125.05 70.8559 126.279 70.3934 127.356 70.8409C128.284 71.2267 129.198 71.6525 130.09 72.1134C131.048 72.6084 131.514 73.785 131.161 74.8092Z" fill="#FF782D"/>
<path d="M131.267 83.4633C131.254 85.6867 129.782 87.4433 127.584 87.7742C126.831 87.8875 126.05 87.8192 125.281 87.8308C125.033 87.835 124.784 87.8317 124.535 87.8317C124.528 87.8092 124.521 87.7867 124.514 87.7642C125.221 87.3342 125.919 86.89 126.636 86.4775C127.209 86.1483 127.604 85.69 127.88 85.0908C128.933 82.7992 130.006 80.5158 131.072 78.23C131.113 78.1392 131.162 78.0508 131.243 77.8892C131.256 78.0408 131.268 78.1167 131.268 78.1917C131.269 79.9492 131.277 81.7058 131.267 83.4633Z" fill="#FF782D"/>
<path d="M49.8 132.62C48.9333 132.62 48.1667 132.52 47.5 132.32C46.8467 132.12 46.2933 131.753 45.84 131.22C45.4 130.687 45.0667 129.927 44.84 128.94C44.6133 127.953 44.5 126.66 44.5 125.06C44.5 123.553 44.6133 122.313 44.84 121.34C45.08 120.367 45.4267 119.607 45.88 119.06C46.3467 118.513 46.9133 118.133 47.58 117.92C48.2467 117.707 49.0067 117.6 49.86 117.6C50.4467 117.6 51.0133 117.633 51.56 117.7C52.12 117.767 52.6333 117.847 53.1 117.94C53.58 118.033 53.9933 118.133 54.34 118.24V120.14C54.1133 120.087 53.7933 120.04 53.38 120C52.9667 119.947 52.5 119.907 51.98 119.88C51.46 119.84 50.92 119.82 50.36 119.82C49.7467 119.82 49.22 119.893 48.78 120.04C48.3533 120.173 48.0067 120.427 47.74 120.8C47.4733 121.173 47.28 121.707 47.16 122.4C47.04 123.093 46.98 123.993 46.98 125.1C46.98 126.193 47.0333 127.087 47.14 127.78C47.26 128.473 47.44 129.013 47.68 129.4C47.9333 129.773 48.2733 130.033 48.7 130.18C49.14 130.327 49.6867 130.4 50.34 130.4C51.34 130.4 52.16 130.38 52.8 130.34C53.44 130.287 53.9533 130.233 54.34 130.18V132.08C53.9667 132.187 53.54 132.28 53.06 132.36C52.5933 132.44 52.0867 132.5 51.54 132.54C51.0067 132.593 50.4267 132.62 49.8 132.62ZM60.7244 132.6C59.8844 132.6 59.1577 132.513 58.5444 132.34C57.931 132.167 57.431 131.873 57.0444 131.46C56.6577 131.047 56.371 130.487 56.1844 129.78C55.9977 129.073 55.9044 128.187 55.9044 127.12C55.9044 126.013 55.9977 125.107 56.1844 124.4C56.371 123.68 56.6577 123.12 57.0444 122.72C57.4444 122.307 57.951 122.027 58.5644 121.88C59.1777 121.72 59.8977 121.64 60.7244 121.64C61.5777 121.64 62.311 121.727 62.9244 121.9C63.5377 122.06 64.0377 122.34 64.4244 122.74C64.811 123.14 65.0977 123.7 65.2844 124.42C65.471 125.127 65.5644 126.027 65.5644 127.12C65.5644 128.2 65.471 129.1 65.2844 129.82C65.111 130.527 64.831 131.087 64.4444 131.5C64.0577 131.9 63.5577 132.187 62.9444 132.36C62.331 132.52 61.591 132.6 60.7244 132.6ZM60.7244 130.62C61.1377 130.62 61.491 130.587 61.7844 130.52C62.0777 130.44 62.3177 130.287 62.5044 130.06C62.7044 129.82 62.851 129.467 62.9444 129C63.0377 128.52 63.0844 127.887 63.0844 127.1C63.0844 126.327 63.0377 125.707 62.9444 125.24C62.851 124.773 62.7044 124.427 62.5044 124.2C62.3177 123.96 62.0777 123.807 61.7844 123.74C61.491 123.66 61.1377 123.62 60.7244 123.62C60.3244 123.62 59.9777 123.66 59.6844 123.74C59.391 123.807 59.151 123.96 58.9644 124.2C58.7777 124.427 58.631 124.773 58.5244 125.24C58.431 125.707 58.3844 126.327 58.3844 127.1C58.3844 127.887 58.431 128.52 58.5244 129C58.631 129.467 58.7777 129.82 58.9644 130.06C59.151 130.287 59.391 130.44 59.6844 130.52C59.9777 130.587 60.3244 130.62 60.7244 130.62ZM67.7678 132.5V121.78H69.7878L70.2478 122.9C70.6878 122.567 71.2211 122.267 71.8478 122C72.4878 121.733 73.1478 121.6 73.8278 121.6C74.6678 121.6 75.3278 121.773 75.8078 122.12C76.2878 122.453 76.6278 122.907 76.8278 123.48C77.0411 124.053 77.1478 124.68 77.1478 125.36V132.5H74.6678V125.66C74.6678 125.273 74.5945 124.947 74.4478 124.68C74.3011 124.413 74.0945 124.207 73.8278 124.06C73.5745 123.913 73.2611 123.84 72.8878 123.84C72.5411 123.84 72.2145 123.873 71.9078 123.94C71.6145 124.007 71.3345 124.107 71.0678 124.24C70.8011 124.373 70.5278 124.533 70.2478 124.72V132.5H67.7678ZM83.5233 132.5C82.7499 132.5 82.1166 132.387 81.6233 132.16C81.1299 131.92 80.7699 131.527 80.5433 130.98C80.3299 130.433 80.2299 129.713 80.2433 128.82L80.3233 123.78H78.6433V122.18L80.4033 121.78L80.7633 118.78H82.7033V121.78H85.4233V123.78H82.7033V128.8C82.7033 129.147 82.7366 129.433 82.8033 129.66C82.8699 129.873 82.9633 130.047 83.0833 130.18C83.2166 130.3 83.3566 130.387 83.5033 130.44C83.6499 130.493 83.8033 130.527 83.9633 130.54L85.3033 130.68V132.5H83.5233ZM91.6205 132.6C90.4605 132.6 89.5338 132.44 88.8405 132.12C88.1605 131.8 87.6671 131.247 87.3605 130.46C87.0538 129.66 86.9005 128.553 86.9005 127.14C86.9005 125.7 87.0471 124.587 87.3405 123.8C87.6338 123 88.1205 122.44 88.8005 122.12C89.4805 121.8 90.4005 121.64 91.5605 121.64C92.5871 121.64 93.4071 121.747 94.0205 121.96C94.6471 122.16 95.1005 122.527 95.3805 123.06C95.6738 123.58 95.8205 124.32 95.8205 125.28C95.8205 125.96 95.6871 126.507 95.4205 126.92C95.1538 127.32 94.7671 127.607 94.2605 127.78C93.7671 127.953 93.1805 128.04 92.5005 128.04H89.3605C89.3871 128.707 89.4738 129.24 89.6205 129.64C89.7805 130.027 90.0605 130.307 90.4605 130.48C90.8738 130.653 91.4738 130.74 92.2605 130.74H95.5005V132.2C94.9538 132.307 94.3738 132.4 93.7605 132.48C93.1605 132.56 92.4471 132.6 91.6205 132.6ZM89.3405 126.54H92.2605C92.7271 126.54 93.0671 126.453 93.2805 126.28C93.5071 126.093 93.6205 125.76 93.6205 125.28C93.6205 124.813 93.5538 124.447 93.4205 124.18C93.2871 123.913 93.0671 123.727 92.7605 123.62C92.4538 123.5 92.0538 123.44 91.5605 123.44C91.0005 123.44 90.5605 123.527 90.2405 123.7C89.9205 123.873 89.6871 124.187 89.5405 124.64C89.4071 125.08 89.3405 125.713 89.3405 126.54ZM98.0217 132.5V121.78H100.042L100.502 122.9C100.942 122.567 101.475 122.267 102.102 122C102.742 121.733 103.402 121.6 104.082 121.6C104.922 121.6 105.582 121.773 106.062 122.12C106.542 122.453 106.882 122.907 107.082 123.48C107.295 124.053 107.402 124.68 107.402 125.36V132.5H104.922V125.66C104.922 125.273 104.848 124.947 104.702 124.68C104.555 124.413 104.348 124.207 104.082 124.06C103.828 123.913 103.515 123.84 103.142 123.84C102.795 123.84 102.468 123.873 102.162 123.94C101.868 124.007 101.588 124.107 101.322 124.24C101.055 124.373 100.782 124.533 100.502 124.72V132.5H98.0217ZM113.777 132.5C113.004 132.5 112.371 132.387 111.877 132.16C111.384 131.92 111.024 131.527 110.797 130.98C110.584 130.433 110.484 129.713 110.497 128.82L110.577 123.78H108.897V122.18L110.657 121.78L111.017 118.78H112.957V121.78H115.677V123.78H112.957V128.8C112.957 129.147 112.991 129.433 113.057 129.66C113.124 129.873 113.217 130.047 113.337 130.18C113.471 130.3 113.611 130.387 113.757 130.44C113.904 130.493 114.057 130.527 114.217 130.54L115.557 130.68V132.5H113.777ZM125.549 132.5L121.929 117.74H124.489L127.149 128.9L130.229 117.74H132.549L135.609 128.9L138.269 117.74H140.829L137.209 132.5H134.649L131.389 121.32L128.109 132.5H125.549ZM141.948 132.5V121.78H143.868L144.428 123.5C144.854 122.98 145.328 122.54 145.848 122.18C146.368 121.82 146.988 121.64 147.708 121.64C147.854 121.64 148.008 121.653 148.168 121.68C148.328 121.693 148.474 121.72 148.608 121.76V124.28C148.421 124.253 148.221 124.233 148.008 124.22C147.794 124.207 147.588 124.2 147.388 124.2C146.974 124.2 146.594 124.247 146.248 124.34C145.914 124.433 145.601 124.58 145.308 124.78C145.014 124.967 144.721 125.207 144.428 125.5V132.5H141.948ZM150.646 120.08C150.393 120.08 150.266 119.96 150.266 119.72V117.9C150.266 117.633 150.393 117.5 150.646 117.5H152.526C152.646 117.5 152.733 117.54 152.786 117.62C152.853 117.7 152.886 117.793 152.886 117.9V119.72C152.886 119.96 152.766 120.08 152.526 120.08H150.646ZM150.326 132.5V121.78H152.806V132.5H150.326ZM159.246 132.5C158.473 132.5 157.839 132.387 157.346 132.16C156.853 131.92 156.493 131.527 156.266 130.98C156.053 130.433 155.953 129.713 155.966 128.82L156.046 123.78H154.366V122.18L156.126 121.78L156.486 118.78H158.426V121.78H161.146V123.78H158.426V128.8C158.426 129.147 158.459 129.433 158.526 129.66C158.593 129.873 158.686 130.047 158.806 130.18C158.939 130.3 159.079 130.387 159.226 130.44C159.373 130.493 159.526 130.527 159.686 130.54L161.026 130.68V132.5H159.246ZM163.283 120.08C163.03 120.08 162.903 119.96 162.903 119.72V117.9C162.903 117.633 163.03 117.5 163.283 117.5H165.163C165.283 117.5 165.37 117.54 165.423 117.62C165.49 117.7 165.523 117.793 165.523 117.9V119.72C165.523 119.96 165.403 120.08 165.163 120.08H163.283ZM162.963 132.5V121.78H165.443V132.5H162.963ZM167.983 132.5V121.78H170.003L170.463 122.9C170.903 122.567 171.436 122.267 172.063 122C172.703 121.733 173.363 121.6 174.043 121.6C174.883 121.6 175.543 121.773 176.023 122.12C176.503 122.453 176.843 122.907 177.043 123.48C177.256 124.053 177.363 124.68 177.363 125.36V132.5H174.883V125.66C174.883 125.273 174.809 124.947 174.663 124.68C174.516 124.413 174.309 124.207 174.043 124.06C173.789 123.913 173.476 123.84 173.103 123.84C172.756 123.84 172.429 123.873 172.123 123.94C171.829 124.007 171.549 124.107 171.283 124.24C171.016 124.373 170.743 124.533 170.463 124.72V132.5H167.983ZM182.578 137.44C181.898 137.44 181.291 137.34 180.758 137.14C180.225 136.953 179.805 136.66 179.498 136.26C179.205 135.873 179.058 135.4 179.058 134.84V134.46C179.058 133.873 179.225 133.373 179.558 132.96C179.891 132.56 180.318 132.253 180.838 132.04C181.358 131.827 181.898 131.72 182.458 131.72L183.178 132.54C182.845 132.54 182.545 132.593 182.278 132.7C182.011 132.807 181.798 132.967 181.638 133.18C181.478 133.393 181.398 133.66 181.398 133.98V134.3C181.398 134.78 181.558 135.127 181.878 135.34C182.198 135.567 182.651 135.68 183.238 135.68H185.418C186.031 135.68 186.511 135.56 186.858 135.32C187.218 135.093 187.398 134.74 187.398 134.26V133.92C187.398 133.627 187.338 133.38 187.218 133.18C187.098 132.98 186.905 132.82 186.638 132.7C186.371 132.593 186.011 132.54 185.558 132.54H182.878C181.811 132.54 181.005 132.333 180.458 131.92C179.925 131.507 179.658 130.987 179.658 130.36C179.658 129.827 179.811 129.387 180.118 129.04C180.438 128.693 180.878 128.46 181.438 128.34C180.985 128.127 180.625 127.853 180.358 127.52C180.105 127.187 179.925 126.827 179.818 126.44C179.711 126.053 179.658 125.66 179.658 125.26C179.658 124.447 179.825 123.787 180.158 123.28C180.491 122.76 180.978 122.38 181.618 122.14C182.258 121.887 183.051 121.76 183.998 121.76H189.778V123.14L187.878 123.4C188.011 123.533 188.151 123.693 188.298 123.88C188.458 124.067 188.591 124.313 188.698 124.62C188.805 124.927 188.858 125.327 188.858 125.82C188.858 126.42 188.731 126.967 188.478 127.46C188.238 127.953 187.838 128.347 187.278 128.64C186.718 128.933 185.965 129.08 185.018 129.08H183.198C182.771 129.08 182.425 129.147 182.158 129.28C181.891 129.413 181.758 129.64 181.758 129.96C181.758 130.227 181.865 130.413 182.078 130.52C182.291 130.627 182.518 130.68 182.758 130.68H185.938C186.751 130.68 187.438 130.787 187.998 131C188.571 131.213 189.005 131.547 189.298 132C189.591 132.453 189.738 133.053 189.738 133.8V134.14C189.738 135.167 189.405 135.973 188.738 136.56C188.085 137.147 187.078 137.44 185.718 137.44H182.578ZM183.598 127.22H184.758C185.251 127.22 185.631 127.147 185.898 127C186.178 126.84 186.365 126.633 186.458 126.38C186.565 126.113 186.618 125.82 186.618 125.5C186.618 125.047 186.545 124.687 186.398 124.42C186.265 124.14 186.065 123.94 185.798 123.82C185.545 123.7 185.231 123.64 184.858 123.64H183.738C183.138 123.64 182.678 123.773 182.358 124.04C182.051 124.307 181.898 124.76 181.898 125.4C181.898 126.04 182.045 126.507 182.338 126.8C182.631 127.08 183.051 127.22 183.598 127.22Z" fill="black"/>
<path d="M78.054 163.29V162.3C78.462 162.3 78.822 162.246 79.134 162.138C79.446 162.018 79.71 161.862 79.926 161.67C80.142 161.466 80.304 161.232 80.412 160.968C80.532 160.704 80.592 160.422 80.592 160.122C80.592 159.726 80.52 159.378 80.376 159.078C80.232 158.766 80.016 158.526 79.728 158.358C79.452 158.19 79.104 158.106 78.684 158.106C78.096 158.106 77.598 158.292 77.19 158.664C76.782 159.024 76.578 159.48 76.578 160.032H75.12C75.12 159.372 75.27 158.796 75.57 158.304C75.882 157.812 76.302 157.428 76.83 157.152C77.37 156.864 77.982 156.72 78.666 156.72C79.386 156.72 80.004 156.876 80.52 157.188C81.048 157.5 81.45 157.908 81.726 158.412C82.014 158.916 82.158 159.468 82.158 160.068C82.158 160.656 81.984 161.196 81.636 161.688C81.288 162.18 80.808 162.57 80.196 162.858C79.584 163.146 78.87 163.29 78.054 163.29ZM78.594 169.68C77.982 169.68 77.43 169.59 76.938 169.41C76.446 169.23 76.026 168.984 75.678 168.672C75.33 168.348 75.06 167.976 74.868 167.556C74.676 167.124 74.58 166.662 74.58 166.17H76.128C76.128 166.566 76.23 166.92 76.434 167.232C76.65 167.544 76.944 167.79 77.316 167.97C77.688 168.15 78.114 168.24 78.594 168.24C79.074 168.24 79.488 168.15 79.836 167.97C80.196 167.778 80.472 167.514 80.664 167.178C80.856 166.842 80.952 166.446 80.952 165.99C80.952 165.606 80.874 165.27 80.718 164.982C80.574 164.682 80.37 164.436 80.106 164.244C79.842 164.04 79.536 163.89 79.188 163.794C78.84 163.698 78.462 163.65 78.054 163.65V162.66C78.666 162.66 79.236 162.726 79.764 162.858C80.304 162.99 80.778 163.2 81.186 163.488C81.606 163.764 81.93 164.124 82.158 164.568C82.398 165.012 82.518 165.546 82.518 166.17C82.518 166.878 82.344 167.496 81.996 168.024C81.66 168.552 81.198 168.96 80.61 169.248C80.022 169.536 79.35 169.68 78.594 169.68ZM84.7662 159.942C84.7662 159.342 84.9162 158.802 85.2162 158.322C85.5282 157.83 85.9422 157.44 86.4582 157.152C86.9862 156.864 87.5802 156.72 88.2402 156.72C88.9002 156.72 89.4882 156.864 90.0042 157.152C90.5322 157.44 90.9462 157.83 91.2462 158.322C91.5582 158.802 91.7142 159.342 91.7142 159.942C91.7142 160.434 91.6302 160.878 91.4622 161.274C91.2942 161.658 91.0542 161.988 90.7422 162.264C90.4422 162.54 90.0762 162.75 89.6442 162.894C89.2242 163.038 88.7562 163.11 88.2402 163.11C87.7242 163.11 87.2502 163.038 86.8182 162.894C86.3982 162.75 86.0322 162.54 85.7202 162.264C85.4202 161.988 85.1862 161.658 85.0182 161.274C84.8502 160.878 84.7662 160.434 84.7662 159.942ZM86.2242 160.122C86.2242 160.518 86.3142 160.866 86.4942 161.166C86.6862 161.466 86.9322 161.7 87.2322 161.868C87.5442 162.036 87.8802 162.12 88.2402 162.12C88.6002 162.12 88.9302 162.036 89.2302 161.868C89.5422 161.7 89.7882 161.466 89.9682 161.166C90.1602 160.866 90.2562 160.518 90.2562 160.122C90.2562 159.726 90.1662 159.372 89.9862 159.06C89.8182 158.748 89.5842 158.508 89.2842 158.34C88.9842 158.16 88.6362 158.07 88.2402 158.07C87.8562 158.07 87.5082 158.16 87.1962 158.34C86.8962 158.508 86.6562 158.748 86.4762 159.06C86.3082 159.372 86.2242 159.726 86.2242 160.122ZM84.3162 166.08C84.3162 165.504 84.4182 164.994 84.6222 164.55C84.8382 164.094 85.1262 163.716 85.4862 163.416C85.8582 163.104 86.2782 162.87 86.7462 162.714C87.2262 162.558 87.7242 162.48 88.2402 162.48C88.7562 162.48 89.2482 162.558 89.7162 162.714C90.1962 162.87 90.6162 163.104 90.9762 163.416C91.3482 163.716 91.6362 164.094 91.8402 164.55C92.0562 164.994 92.1642 165.504 92.1642 166.08C92.1642 166.572 92.0622 167.034 91.8582 167.466C91.6662 167.898 91.3902 168.282 91.0302 168.618C90.6822 168.954 90.2682 169.218 89.7882 169.41C89.3202 169.59 88.8042 169.68 88.2402 169.68C87.6762 169.68 87.1542 169.59 86.6742 169.41C86.2062 169.218 85.7922 168.954 85.4322 168.618C85.0842 168.282 84.8082 167.898 84.6042 167.466C84.4122 167.034 84.3162 166.572 84.3162 166.08ZM85.7742 165.9C85.7742 166.416 85.8882 166.854 86.1162 167.214C86.3562 167.574 86.6622 167.85 87.0342 168.042C87.4182 168.234 87.8202 168.33 88.2402 168.33C88.6602 168.33 89.0562 168.234 89.4282 168.042C89.8122 167.85 90.1182 167.574 90.3462 167.214C90.5862 166.854 90.7062 166.416 90.7062 165.9C90.7062 165.444 90.5862 165.036 90.3462 164.676C90.1182 164.304 89.8122 164.01 89.4282 163.794C89.0562 163.578 88.6602 163.47 88.2402 163.47C87.8202 163.47 87.4182 163.578 87.0342 163.794C86.6622 164.01 86.3562 164.304 86.1162 164.676C85.8882 165.036 85.7742 165.444 85.7742 165.9ZM100.889 163.2C100.889 164.172 101.105 165.03 101.537 165.774C101.981 166.518 102.557 167.1 103.265 167.52C103.973 167.94 104.741 168.15 105.569 168.15C106.169 168.15 106.715 168.072 107.207 167.916C107.711 167.76 108.167 167.544 108.575 167.268C108.983 166.98 109.331 166.65 109.619 166.278V168.294C109.091 168.762 108.515 169.11 107.891 169.338C107.267 169.566 106.493 169.68 105.569 169.68C104.693 169.68 103.871 169.524 103.103 169.212C102.347 168.888 101.681 168.438 101.105 167.862C100.529 167.274 100.079 166.584 99.7548 165.792C99.4308 165 99.2688 164.136 99.2688 163.2C99.2688 162.264 99.4308 161.4 99.7548 160.608C100.079 159.816 100.529 159.132 101.105 158.556C101.681 157.968 102.347 157.518 103.103 157.206C103.871 156.882 104.693 156.72 105.569 156.72C106.493 156.72 107.267 156.834 107.891 157.062C108.515 157.29 109.091 157.638 109.619 158.106V160.122C109.331 159.75 108.983 159.426 108.575 159.15C108.167 158.862 107.711 158.64 107.207 158.484C106.715 158.328 106.169 158.25 105.569 158.25C104.741 158.25 103.973 158.46 103.265 158.88C102.557 159.3 101.981 159.882 101.537 160.626C101.105 161.358 100.889 162.216 100.889 163.2ZM111.501 165.36C111.501 164.52 111.687 163.776 112.059 163.128C112.443 162.48 112.959 161.97 113.607 161.598C114.255 161.226 114.981 161.04 115.785 161.04C116.601 161.04 117.327 161.226 117.963 161.598C118.611 161.97 119.121 162.48 119.493 163.128C119.877 163.776 120.069 164.52 120.069 165.36C120.069 166.188 119.877 166.932 119.493 167.592C119.121 168.24 118.611 168.75 117.963 169.122C117.327 169.494 116.601 169.68 115.785 169.68C114.981 169.68 114.255 169.494 113.607 169.122C112.959 168.75 112.443 168.24 112.059 167.592C111.687 166.932 111.501 166.188 111.501 165.36ZM112.959 165.36C112.959 165.936 113.079 166.446 113.319 166.89C113.571 167.334 113.907 167.688 114.327 167.952C114.759 168.204 115.245 168.33 115.785 168.33C116.325 168.33 116.805 168.204 117.225 167.952C117.657 167.688 117.993 167.334 118.233 166.89C118.485 166.446 118.611 165.936 118.611 165.36C118.611 164.784 118.485 164.274 118.233 163.83C117.993 163.374 117.657 163.02 117.225 162.768C116.805 162.516 116.325 162.39 115.785 162.39C115.245 162.39 114.759 162.516 114.327 162.768C113.907 163.02 113.571 163.374 113.319 163.83C113.079 164.274 112.959 164.784 112.959 165.36ZM123.487 166.26C123.487 166.92 123.637 167.43 123.937 167.79C124.237 168.15 124.675 168.33 125.251 168.33C125.671 168.33 126.037 168.246 126.349 168.078C126.673 167.898 126.919 167.652 127.087 167.34C127.267 167.028 127.357 166.668 127.357 166.26V161.22H128.797V169.5H127.357V168.204C127.081 168.696 126.739 169.068 126.331 169.32C125.923 169.56 125.443 169.68 124.891 169.68C124.027 169.68 123.337 169.386 122.821 168.798C122.305 168.21 122.047 167.424 122.047 166.44V161.22H123.487V166.26ZM132.944 161.22V169.5H131.504V161.22H132.944ZM135.446 162.804C135.254 162.66 135.08 162.558 134.924 162.498C134.768 162.426 134.57 162.39 134.33 162.39C133.97 162.39 133.688 162.48 133.484 162.66C133.28 162.84 133.136 163.086 133.052 163.398C132.98 163.71 132.944 164.064 132.944 164.46H132.296C132.296 163.8 132.41 163.218 132.638 162.714C132.878 162.198 133.184 161.79 133.556 161.49C133.928 161.19 134.306 161.04 134.69 161.04C134.99 161.04 135.266 161.082 135.518 161.166C135.782 161.238 136.022 161.388 136.238 161.616L135.446 162.804ZM138.016 166.962C138.184 167.214 138.376 167.448 138.592 167.664C138.808 167.88 139.054 168.054 139.33 168.186C139.618 168.306 139.93 168.366 140.266 168.366C140.674 168.366 140.992 168.276 141.22 168.096C141.46 167.904 141.58 167.646 141.58 167.322C141.58 167.034 141.484 166.794 141.292 166.602C141.112 166.398 140.878 166.23 140.59 166.098C140.302 165.954 139.996 165.822 139.672 165.702C139.312 165.558 138.946 165.39 138.574 165.198C138.214 164.994 137.908 164.736 137.656 164.424C137.416 164.1 137.296 163.698 137.296 163.218C137.296 162.726 137.422 162.318 137.674 161.994C137.938 161.67 138.274 161.43 138.682 161.274C139.102 161.118 139.534 161.04 139.978 161.04C140.422 161.04 140.836 161.112 141.22 161.256C141.616 161.4 141.964 161.592 142.264 161.832C142.564 162.072 142.798 162.348 142.966 162.66L141.814 163.398C141.586 163.086 141.298 162.828 140.95 162.624C140.614 162.42 140.23 162.318 139.798 162.318C139.498 162.318 139.24 162.384 139.024 162.516C138.808 162.648 138.7 162.852 138.7 163.128C138.7 163.344 138.784 163.536 138.952 163.704C139.12 163.872 139.336 164.022 139.6 164.154C139.864 164.286 140.14 164.412 140.428 164.532C140.908 164.724 141.346 164.934 141.742 165.162C142.138 165.378 142.45 165.642 142.678 165.954C142.918 166.266 143.038 166.668 143.038 167.16C143.038 167.88 142.774 168.48 142.246 168.96C141.73 169.44 141.046 169.68 140.194 169.68C139.642 169.68 139.144 169.584 138.7 169.392C138.256 169.188 137.878 168.93 137.566 168.618C137.266 168.306 137.038 167.988 136.882 167.664L138.016 166.962ZM148.138 169.68C147.37 169.68 146.686 169.5 146.086 169.14C145.498 168.768 145.036 168.258 144.7 167.61C144.376 166.962 144.214 166.212 144.214 165.36C144.214 164.496 144.382 163.74 144.718 163.092C145.066 162.444 145.546 161.94 146.158 161.58C146.782 161.22 147.502 161.04 148.318 161.04C149.134 161.04 149.83 161.214 150.406 161.562C150.994 161.898 151.444 162.384 151.756 163.02C152.068 163.656 152.224 164.412 152.224 165.288C152.224 165.372 152.218 165.462 152.206 165.558C152.206 165.642 152.206 165.696 152.206 165.72H145.132V164.496H151.072L150.496 165.324C150.532 165.264 150.568 165.174 150.604 165.054C150.64 164.922 150.658 164.814 150.658 164.73C150.658 164.238 150.556 163.812 150.352 163.452C150.16 163.092 149.89 162.81 149.542 162.606C149.194 162.402 148.786 162.3 148.318 162.3C147.766 162.3 147.292 162.42 146.896 162.66C146.512 162.888 146.212 163.224 145.996 163.668C145.792 164.1 145.684 164.634 145.672 165.27C145.672 165.918 145.774 166.47 145.978 166.926C146.182 167.382 146.482 167.73 146.878 167.97C147.274 168.21 147.754 168.33 148.318 168.33C148.882 168.33 149.38 168.21 149.812 167.97C150.244 167.718 150.61 167.34 150.91 166.836L152.08 167.574C151.648 168.27 151.102 168.798 150.442 169.158C149.794 169.506 149.026 169.68 148.138 169.68ZM154.54 166.962C154.708 167.214 154.9 167.448 155.116 167.664C155.332 167.88 155.578 168.054 155.854 168.186C156.142 168.306 156.454 168.366 156.79 168.366C157.198 168.366 157.516 168.276 157.744 168.096C157.984 167.904 158.104 167.646 158.104 167.322C158.104 167.034 158.008 166.794 157.816 166.602C157.636 166.398 157.402 166.23 157.114 166.098C156.826 165.954 156.52 165.822 156.196 165.702C155.836 165.558 155.47 165.39 155.098 165.198C154.738 164.994 154.432 164.736 154.18 164.424C153.94 164.1 153.82 163.698 153.82 163.218C153.82 162.726 153.946 162.318 154.198 161.994C154.462 161.67 154.798 161.43 155.206 161.274C155.626 161.118 156.058 161.04 156.502 161.04C156.946 161.04 157.36 161.112 157.744 161.256C158.14 161.4 158.488 161.592 158.788 161.832C159.088 162.072 159.322 162.348 159.49 162.66L158.338 163.398C158.11 163.086 157.822 162.828 157.474 162.624C157.138 162.42 156.754 162.318 156.322 162.318C156.022 162.318 155.764 162.384 155.548 162.516C155.332 162.648 155.224 162.852 155.224 163.128C155.224 163.344 155.308 163.536 155.476 163.704C155.644 163.872 155.86 164.022 156.124 164.154C156.388 164.286 156.664 164.412 156.952 164.532C157.432 164.724 157.87 164.934 158.266 165.162C158.662 165.378 158.974 165.642 159.202 165.954C159.442 166.266 159.562 166.668 159.562 167.16C159.562 167.88 159.298 168.48 158.77 168.96C158.254 169.44 157.57 169.68 156.718 169.68C156.166 169.68 155.668 169.584 155.224 169.392C154.78 169.188 154.402 168.93 154.09 168.618C153.79 168.306 153.562 167.988 153.406 167.664L154.54 166.962Z" fill="#555555"/>
</svg>
