<svg width="234" height="234" viewBox="0 0 234 234" fill="none" xmlns="http://www.w3.org/2000/svg">
<rect x="0.5" y="0.5" width="233" height="233" rx="19.5" stroke="#EAEAEA"/>
<g clip-path="url(#clip0_1_1305)">
<path d="M127.743 79.9L127.876 80.0333C128.179 80.3386 128.554 80.5623 128.966 80.6838C129.378 80.8052 129.815 80.8204 130.235 80.728C130.648 80.6413 131.032 80.4521 131.353 80.1779C131.674 79.9036 131.921 79.5532 132.071 79.1586C132.807 77.2257 133.159 75.1677 133.107 73.1C132.957 69.0386 131.286 65.1819 128.426 62.2943C125.567 59.4066 121.726 57.6988 117.667 57.5093C115.52 57.4347 113.38 57.793 111.375 58.563C109.37 59.333 107.54 60.4989 105.995 61.9911C104.45 63.4834 103.221 65.2714 102.382 67.2487C101.543 69.226 101.111 71.352 101.111 73.5C101.116 77.7419 102.803 81.8087 105.802 84.8082C108.802 87.8077 112.869 89.495 117.111 89.5C117.561 89.5 118.004 89.4706 118.444 89.4333C118.778 89.4052 119.089 89.2524 119.315 89.0053C119.542 88.7582 119.667 88.435 119.665 88.1L119.623 83.316C119.612 82.3706 119.883 81.4435 120.402 80.6529C120.92 79.8624 121.663 79.2444 122.534 78.8778C123.406 78.5112 124.367 78.4126 125.294 78.5947C126.222 78.7767 127.074 79.2312 127.743 79.9ZM123.82 68.2333C124.202 68.1319 124.606 68.146 124.98 68.2741C125.355 68.4021 125.682 68.6382 125.922 68.9526C126.163 69.267 126.304 69.6455 126.329 70.0402C126.354 70.435 126.261 70.8282 126.063 71.1703C125.864 71.5124 125.569 71.788 125.214 71.9621C124.858 72.1363 124.46 72.2012 124.068 72.1487C123.675 72.0962 123.308 71.9287 123.011 71.6672C122.714 71.4058 122.502 71.0622 122.4 70.68C122.333 70.4261 122.316 70.1614 122.351 69.901C122.385 69.6406 122.471 69.3897 122.603 69.1625C122.735 68.9353 122.91 68.7363 123.119 68.5768C123.328 68.4174 123.566 68.3007 123.82 68.2333ZM111.513 80.1C111.131 80.2014 110.727 80.1872 110.353 80.0592C109.979 79.9311 109.651 79.695 109.411 79.3806C109.171 79.0663 109.029 78.6878 109.004 78.2931C108.979 77.8983 109.072 77.505 109.271 77.1629C109.469 76.8208 109.765 76.5453 110.12 76.3711C110.475 76.197 110.874 76.1321 111.266 76.1845C111.658 76.237 112.025 76.4046 112.322 76.666C112.619 76.9275 112.832 77.271 112.933 77.6533C113.001 77.9072 113.018 78.1719 112.983 78.4323C112.948 78.6926 112.862 78.9436 112.73 79.1708C112.598 79.398 112.423 79.597 112.214 79.7564C112.005 79.9159 111.767 80.0326 111.513 80.1ZM111.513 72.1C111.131 72.2014 110.727 72.1872 110.353 72.0592C109.979 71.9311 109.651 71.695 109.411 71.3806C109.171 71.0663 109.029 70.6878 109.004 70.2931C108.979 69.8983 109.072 69.505 109.271 69.1629C109.469 68.8208 109.765 68.5453 110.12 68.3711C110.475 68.197 110.874 68.1321 111.266 68.1845C111.658 68.237 112.025 68.4046 112.322 68.666C112.619 68.9275 112.832 69.271 112.933 69.6533C113.001 69.9072 113.018 70.1719 112.983 70.4323C112.948 70.6926 112.862 70.9436 112.73 71.1708C112.598 71.398 112.423 71.597 112.214 71.7564C112.005 71.9159 111.767 72.0326 111.513 72.1ZM118.18 68.1C117.798 68.2014 117.394 68.1872 117.02 68.0592C116.645 67.9311 116.318 67.695 116.077 67.3806C115.837 67.0663 115.696 66.6878 115.671 66.2931C115.646 65.8983 115.739 65.505 115.937 65.1629C116.136 64.8208 116.431 64.5453 116.786 64.3711C117.142 64.197 117.54 64.1321 117.932 64.1845C118.324 64.237 118.692 64.4046 118.989 64.666C119.286 64.9275 119.498 65.271 119.6 65.6533C119.667 65.9072 119.684 66.1719 119.649 66.4323C119.615 66.6926 119.529 66.9436 119.397 67.1708C119.265 67.398 119.09 67.597 118.881 67.7564C118.672 67.9159 118.434 68.0326 118.18 68.1Z" fill="#FF782D"/>
</g>
<path d="M58.96 132.5L63.76 117.74H66.88L71.68 132.5H69.1L67.96 129H62.62L61.5 132.5H58.96ZM63.2 126.78H67.36L65.28 119.86L63.2 126.78ZM73.3733 132.5V121.78H75.2933L75.8533 123.5C76.2799 122.98 76.7533 122.54 77.2733 122.18C77.7933 121.82 78.4133 121.64 79.1333 121.64C79.2799 121.64 79.4333 121.653 79.5933 121.68C79.7533 121.693 79.8999 121.72 80.0333 121.76V124.28C79.8466 124.253 79.6466 124.233 79.4333 124.22C79.2199 124.207 79.0133 124.2 78.8133 124.2C78.3999 124.2 78.0199 124.247 77.6733 124.34C77.3399 124.433 77.0266 124.58 76.7333 124.78C76.4399 124.967 76.1466 125.207 75.8533 125.5V132.5H73.3733ZM85.8475 132.5C85.0742 132.5 84.4408 132.387 83.9475 132.16C83.4542 131.92 83.0942 131.527 82.8675 130.98C82.6542 130.433 82.5542 129.713 82.5675 128.82L82.6475 123.78H80.9675V122.18L82.7275 121.78L83.0875 118.78H85.0275V121.78H87.7475V123.78H85.0275V128.8C85.0275 129.147 85.0608 129.433 85.1275 129.66C85.1942 129.873 85.2875 130.047 85.4075 130.18C85.5408 130.3 85.6808 130.387 85.8275 130.44C85.9742 130.493 86.1275 130.527 86.2875 130.54L87.6275 130.68V132.5H85.8475ZM98.1591 132.6C97.4257 132.6 96.7591 132.44 96.1591 132.12C95.5724 131.787 95.1124 131.327 94.7791 130.74C94.4457 130.14 94.2791 129.453 94.2791 128.68C94.2791 127.96 94.4324 127.287 94.7391 126.66C95.0457 126.02 95.5057 125.44 96.1191 124.92L97.3591 123.86L97.0591 123.4C96.6457 122.787 96.3791 122.26 96.2591 121.82C96.1524 121.38 96.0991 120.98 96.0991 120.62C96.0991 119.927 96.2657 119.373 96.5991 118.96C96.9324 118.547 97.3724 118.247 97.9191 118.06C98.4657 117.873 99.0724 117.78 99.7391 117.78C100.259 117.78 100.746 117.8 101.199 117.84C101.666 117.867 102.086 117.913 102.459 117.98C102.846 118.033 103.179 118.093 103.459 118.16V119.96H100.199C99.7057 119.96 99.3124 120.06 99.0191 120.26C98.7257 120.447 98.5791 120.747 98.5791 121.16C98.5791 121.44 98.6524 121.733 98.7991 122.04C98.9591 122.347 99.2057 122.733 99.5391 123.2L102.739 127.58L105.639 124.92L106.559 126.02L105.179 128L103.959 129.18L106.459 132.5H103.879L102.379 130.58L101.679 131.22C101.106 131.727 100.546 132.087 99.9991 132.3C99.4524 132.5 98.8391 132.6 98.1591 132.6ZM98.5791 130.34C98.9124 130.34 99.2324 130.28 99.5391 130.16C99.8457 130.04 100.179 129.807 100.539 129.46L101.079 128.92L98.5591 125.56L97.6991 126.32C97.2991 126.667 97.0191 127.013 96.8591 127.36C96.7124 127.693 96.6391 128.04 96.6391 128.4C96.6391 128.973 96.8124 129.44 97.1591 129.8C97.5057 130.16 97.9791 130.34 98.5791 130.34ZM113.943 132.5V117.74H120.043C121.003 117.74 121.803 117.913 122.443 118.26C123.096 118.593 123.616 119.087 124.003 119.74C124.389 120.38 124.663 121.153 124.823 122.06C124.996 122.967 125.083 123.987 125.083 125.12C125.083 126.747 124.896 128.107 124.523 129.2C124.149 130.28 123.589 131.1 122.842 131.66C122.096 132.22 121.163 132.5 120.043 132.5H113.943ZM116.403 130.28H119.803C120.483 130.28 121.023 130.08 121.423 129.68C121.836 129.28 122.136 128.693 122.323 127.92C122.523 127.147 122.623 126.213 122.623 125.12C122.623 124.107 122.563 123.267 122.443 122.6C122.323 121.933 122.149 121.407 121.923 121.02C121.696 120.633 121.403 120.36 121.043 120.2C120.696 120.04 120.283 119.96 119.803 119.96H116.403V130.28ZM131.523 132.6C130.363 132.6 129.436 132.44 128.743 132.12C128.063 131.8 127.569 131.247 127.263 130.46C126.956 129.66 126.803 128.553 126.803 127.14C126.803 125.7 126.949 124.587 127.243 123.8C127.536 123 128.023 122.44 128.703 122.12C129.383 121.8 130.303 121.64 131.463 121.64C132.489 121.64 133.309 121.747 133.923 121.96C134.549 122.16 135.003 122.527 135.283 123.06C135.576 123.58 135.723 124.32 135.723 125.28C135.723 125.96 135.589 126.507 135.323 126.92C135.056 127.32 134.669 127.607 134.163 127.78C133.669 127.953 133.083 128.04 132.403 128.04H129.263C129.289 128.707 129.376 129.24 129.523 129.64C129.683 130.027 129.963 130.307 130.363 130.48C130.776 130.653 131.376 130.74 132.163 130.74H135.403V132.2C134.856 132.307 134.276 132.4 133.663 132.48C133.063 132.56 132.349 132.6 131.523 132.6ZM129.243 126.54H132.163C132.629 126.54 132.969 126.453 133.183 126.28C133.409 126.093 133.523 125.76 133.523 125.28C133.523 124.813 133.456 124.447 133.323 124.18C133.189 123.913 132.969 123.727 132.663 123.62C132.356 123.5 131.956 123.44 131.463 123.44C130.903 123.44 130.463 123.527 130.143 123.7C129.823 123.873 129.589 124.187 129.443 124.64C129.309 125.08 129.243 125.713 129.243 126.54ZM141.764 132.62C141.457 132.62 141.104 132.607 140.704 132.58C140.317 132.567 139.924 132.54 139.524 132.5C139.137 132.473 138.777 132.433 138.444 132.38C138.111 132.327 137.837 132.267 137.624 132.2V130.74H142.244C142.577 130.74 142.857 130.713 143.084 130.66C143.324 130.607 143.504 130.5 143.624 130.34C143.744 130.18 143.804 129.94 143.804 129.62V129.24C143.804 128.907 143.691 128.647 143.464 128.46C143.251 128.26 142.871 128.16 142.324 128.16H140.704C140.077 128.16 139.517 128.073 139.024 127.9C138.544 127.727 138.164 127.433 137.884 127.02C137.604 126.607 137.464 126.047 137.464 125.34V124.74C137.464 124.06 137.591 123.5 137.844 123.06C138.111 122.607 138.544 122.267 139.144 122.04C139.757 121.8 140.571 121.68 141.584 121.68C142.011 121.68 142.471 121.7 142.964 121.74C143.457 121.78 143.931 121.833 144.384 121.9C144.837 121.953 145.197 122.02 145.464 122.1V123.56H141.104C140.611 123.56 140.231 123.647 139.964 123.82C139.711 123.98 139.584 124.287 139.584 124.74V125.12C139.584 125.413 139.644 125.633 139.764 125.78C139.884 125.927 140.064 126.027 140.304 126.08C140.544 126.133 140.831 126.16 141.164 126.16H142.824C143.877 126.16 144.657 126.4 145.164 126.88C145.671 127.36 145.924 128.04 145.924 128.92V129.8C145.924 130.52 145.757 131.087 145.424 131.5C145.091 131.913 144.611 132.207 143.984 132.38C143.371 132.54 142.631 132.62 141.764 132.62ZM148.303 120.08C148.049 120.08 147.923 119.96 147.923 119.72V117.9C147.923 117.633 148.049 117.5 148.303 117.5H150.183C150.303 117.5 150.389 117.54 150.443 117.62C150.509 117.7 150.543 117.793 150.543 117.9V119.72C150.543 119.96 150.423 120.08 150.183 120.08H148.303ZM147.983 132.5V121.78H150.463V132.5H147.983ZM155.742 137.44C155.062 137.44 154.456 137.34 153.922 137.14C153.389 136.953 152.969 136.66 152.662 136.26C152.369 135.873 152.222 135.4 152.222 134.84V134.46C152.222 133.873 152.389 133.373 152.722 132.96C153.056 132.56 153.482 132.253 154.002 132.04C154.522 131.827 155.062 131.72 155.622 131.72L156.342 132.54C156.009 132.54 155.709 132.593 155.442 132.7C155.176 132.807 154.962 132.967 154.802 133.18C154.642 133.393 154.562 133.66 154.562 133.98V134.3C154.562 134.78 154.722 135.127 155.042 135.34C155.362 135.567 155.816 135.68 156.402 135.68H158.582C159.196 135.68 159.676 135.56 160.022 135.32C160.382 135.093 160.562 134.74 160.562 134.26V133.92C160.562 133.627 160.502 133.38 160.382 133.18C160.262 132.98 160.069 132.82 159.802 132.7C159.536 132.593 159.176 132.54 158.722 132.54H156.042C154.976 132.54 154.169 132.333 153.622 131.92C153.089 131.507 152.822 130.987 152.822 130.36C152.822 129.827 152.976 129.387 153.282 129.04C153.602 128.693 154.042 128.46 154.602 128.34C154.149 128.127 153.789 127.853 153.522 127.52C153.269 127.187 153.089 126.827 152.982 126.44C152.876 126.053 152.822 125.66 152.822 125.26C152.822 124.447 152.989 123.787 153.322 123.28C153.656 122.76 154.142 122.38 154.782 122.14C155.422 121.887 156.216 121.76 157.162 121.76H162.942V123.14L161.042 123.4C161.176 123.533 161.316 123.693 161.462 123.88C161.622 124.067 161.756 124.313 161.862 124.62C161.969 124.927 162.022 125.327 162.022 125.82C162.022 126.42 161.896 126.967 161.642 127.46C161.402 127.953 161.002 128.347 160.442 128.64C159.882 128.933 159.129 129.08 158.182 129.08H156.362C155.936 129.08 155.589 129.147 155.322 129.28C155.056 129.413 154.922 129.64 154.922 129.96C154.922 130.227 155.029 130.413 155.242 130.52C155.456 130.627 155.682 130.68 155.922 130.68H159.102C159.916 130.68 160.602 130.787 161.162 131C161.736 131.213 162.169 131.547 162.462 132C162.756 132.453 162.902 133.053 162.902 133.8V134.14C162.902 135.167 162.569 135.973 161.902 136.56C161.249 137.147 160.242 137.44 158.882 137.44H155.742ZM156.762 127.22H157.922C158.416 127.22 158.796 127.147 159.062 127C159.342 126.84 159.529 126.633 159.622 126.38C159.729 126.113 159.782 125.82 159.782 125.5C159.782 125.047 159.709 124.687 159.562 124.42C159.429 124.14 159.229 123.94 158.962 123.82C158.709 123.7 158.396 123.64 158.022 123.64H156.902C156.302 123.64 155.842 123.773 155.522 124.04C155.216 124.307 155.062 124.76 155.062 125.4C155.062 126.04 155.209 126.507 155.502 126.8C155.796 127.08 156.216 127.22 156.762 127.22ZM164.604 132.5V121.78H166.624L167.084 122.9C167.524 122.567 168.057 122.267 168.684 122C169.324 121.733 169.984 121.6 170.664 121.6C171.504 121.6 172.164 121.773 172.644 122.12C173.124 122.453 173.464 122.907 173.664 123.48C173.877 124.053 173.984 124.68 173.984 125.36V132.5H171.504V125.66C171.504 125.273 171.43 124.947 171.284 124.68C171.137 124.413 170.93 124.207 170.664 124.06C170.41 123.913 170.097 123.84 169.724 123.84C169.377 123.84 169.05 123.873 168.744 123.94C168.45 124.007 168.17 124.107 167.904 124.24C167.637 124.373 167.364 124.533 167.084 124.72V132.5H164.604Z" fill="black"/>
<path d="M78.054 163.29V162.3C78.462 162.3 78.822 162.246 79.134 162.138C79.446 162.018 79.71 161.862 79.926 161.67C80.142 161.466 80.304 161.232 80.412 160.968C80.532 160.704 80.592 160.422 80.592 160.122C80.592 159.726 80.52 159.378 80.376 159.078C80.232 158.766 80.016 158.526 79.728 158.358C79.452 158.19 79.104 158.106 78.684 158.106C78.096 158.106 77.598 158.292 77.19 158.664C76.782 159.024 76.578 159.48 76.578 160.032H75.12C75.12 159.372 75.27 158.796 75.57 158.304C75.882 157.812 76.302 157.428 76.83 157.152C77.37 156.864 77.982 156.72 78.666 156.72C79.386 156.72 80.004 156.876 80.52 157.188C81.048 157.5 81.45 157.908 81.726 158.412C82.014 158.916 82.158 159.468 82.158 160.068C82.158 160.656 81.984 161.196 81.636 161.688C81.288 162.18 80.808 162.57 80.196 162.858C79.584 163.146 78.87 163.29 78.054 163.29ZM78.594 169.68C77.982 169.68 77.43 169.59 76.938 169.41C76.446 169.23 76.026 168.984 75.678 168.672C75.33 168.348 75.06 167.976 74.868 167.556C74.676 167.124 74.58 166.662 74.58 166.17H76.128C76.128 166.566 76.23 166.92 76.434 167.232C76.65 167.544 76.944 167.79 77.316 167.97C77.688 168.15 78.114 168.24 78.594 168.24C79.074 168.24 79.488 168.15 79.836 167.97C80.196 167.778 80.472 167.514 80.664 167.178C80.856 166.842 80.952 166.446 80.952 165.99C80.952 165.606 80.874 165.27 80.718 164.982C80.574 164.682 80.37 164.436 80.106 164.244C79.842 164.04 79.536 163.89 79.188 163.794C78.84 163.698 78.462 163.65 78.054 163.65V162.66C78.666 162.66 79.236 162.726 79.764 162.858C80.304 162.99 80.778 163.2 81.186 163.488C81.606 163.764 81.93 164.124 82.158 164.568C82.398 165.012 82.518 165.546 82.518 166.17C82.518 166.878 82.344 167.496 81.996 168.024C81.66 168.552 81.198 168.96 80.61 169.248C80.022 169.536 79.35 169.68 78.594 169.68ZM84.7662 159.942C84.7662 159.342 84.9162 158.802 85.2162 158.322C85.5282 157.83 85.9422 157.44 86.4582 157.152C86.9862 156.864 87.5802 156.72 88.2402 156.72C88.9002 156.72 89.4882 156.864 90.0042 157.152C90.5322 157.44 90.9462 157.83 91.2462 158.322C91.5582 158.802 91.7142 159.342 91.7142 159.942C91.7142 160.434 91.6302 160.878 91.4622 161.274C91.2942 161.658 91.0542 161.988 90.7422 162.264C90.4422 162.54 90.0762 162.75 89.6442 162.894C89.2242 163.038 88.7562 163.11 88.2402 163.11C87.7242 163.11 87.2502 163.038 86.8182 162.894C86.3982 162.75 86.0322 162.54 85.7202 162.264C85.4202 161.988 85.1862 161.658 85.0182 161.274C84.8502 160.878 84.7662 160.434 84.7662 159.942ZM86.2242 160.122C86.2242 160.518 86.3142 160.866 86.4942 161.166C86.6862 161.466 86.9322 161.7 87.2322 161.868C87.5442 162.036 87.8802 162.12 88.2402 162.12C88.6002 162.12 88.9302 162.036 89.2302 161.868C89.5422 161.7 89.7882 161.466 89.9682 161.166C90.1602 160.866 90.2562 160.518 90.2562 160.122C90.2562 159.726 90.1662 159.372 89.9862 159.06C89.8182 158.748 89.5842 158.508 89.2842 158.34C88.9842 158.16 88.6362 158.07 88.2402 158.07C87.8562 158.07 87.5082 158.16 87.1962 158.34C86.8962 158.508 86.6562 158.748 86.4762 159.06C86.3082 159.372 86.2242 159.726 86.2242 160.122ZM84.3162 166.08C84.3162 165.504 84.4182 164.994 84.6222 164.55C84.8382 164.094 85.1262 163.716 85.4862 163.416C85.8582 163.104 86.2782 162.87 86.7462 162.714C87.2262 162.558 87.7242 162.48 88.2402 162.48C88.7562 162.48 89.2482 162.558 89.7162 162.714C90.1962 162.87 90.6162 163.104 90.9762 163.416C91.3482 163.716 91.6362 164.094 91.8402 164.55C92.0562 164.994 92.1642 165.504 92.1642 166.08C92.1642 166.572 92.0622 167.034 91.8582 167.466C91.6662 167.898 91.3902 168.282 91.0302 168.618C90.6822 168.954 90.2682 169.218 89.7882 169.41C89.3202 169.59 88.8042 169.68 88.2402 169.68C87.6762 169.68 87.1542 169.59 86.6742 169.41C86.2062 169.218 85.7922 168.954 85.4322 168.618C85.0842 168.282 84.8082 167.898 84.6042 167.466C84.4122 167.034 84.3162 166.572 84.3162 166.08ZM85.7742 165.9C85.7742 166.416 85.8882 166.854 86.1162 167.214C86.3562 167.574 86.6622 167.85 87.0342 168.042C87.4182 168.234 87.8202 168.33 88.2402 168.33C88.6602 168.33 89.0562 168.234 89.4282 168.042C89.8122 167.85 90.1182 167.574 90.3462 167.214C90.5862 166.854 90.7062 166.416 90.7062 165.9C90.7062 165.444 90.5862 165.036 90.3462 164.676C90.1182 164.304 89.8122 164.01 89.4282 163.794C89.0562 163.578 88.6602 163.47 88.2402 163.47C87.8202 163.47 87.4182 163.578 87.0342 163.794C86.6622 164.01 86.3562 164.304 86.1162 164.676C85.8882 165.036 85.7742 165.444 85.7742 165.9ZM100.889 163.2C100.889 164.172 101.105 165.03 101.537 165.774C101.981 166.518 102.557 167.1 103.265 167.52C103.973 167.94 104.741 168.15 105.569 168.15C106.169 168.15 106.715 168.072 107.207 167.916C107.711 167.76 108.167 167.544 108.575 167.268C108.983 166.98 109.331 166.65 109.619 166.278V168.294C109.091 168.762 108.515 169.11 107.891 169.338C107.267 169.566 106.493 169.68 105.569 169.68C104.693 169.68 103.871 169.524 103.103 169.212C102.347 168.888 101.681 168.438 101.105 167.862C100.529 167.274 100.079 166.584 99.7548 165.792C99.4308 165 99.2688 164.136 99.2688 163.2C99.2688 162.264 99.4308 161.4 99.7548 160.608C100.079 159.816 100.529 159.132 101.105 158.556C101.681 157.968 102.347 157.518 103.103 157.206C103.871 156.882 104.693 156.72 105.569 156.72C106.493 156.72 107.267 156.834 107.891 157.062C108.515 157.29 109.091 157.638 109.619 158.106V160.122C109.331 159.75 108.983 159.426 108.575 159.15C108.167 158.862 107.711 158.64 107.207 158.484C106.715 158.328 106.169 158.25 105.569 158.25C104.741 158.25 103.973 158.46 103.265 158.88C102.557 159.3 101.981 159.882 101.537 160.626C101.105 161.358 100.889 162.216 100.889 163.2ZM111.501 165.36C111.501 164.52 111.687 163.776 112.059 163.128C112.443 162.48 112.959 161.97 113.607 161.598C114.255 161.226 114.981 161.04 115.785 161.04C116.601 161.04 117.327 161.226 117.963 161.598C118.611 161.97 119.121 162.48 119.493 163.128C119.877 163.776 120.069 164.52 120.069 165.36C120.069 166.188 119.877 166.932 119.493 167.592C119.121 168.24 118.611 168.75 117.963 169.122C117.327 169.494 116.601 169.68 115.785 169.68C114.981 169.68 114.255 169.494 113.607 169.122C112.959 168.75 112.443 168.24 112.059 167.592C111.687 166.932 111.501 166.188 111.501 165.36ZM112.959 165.36C112.959 165.936 113.079 166.446 113.319 166.89C113.571 167.334 113.907 167.688 114.327 167.952C114.759 168.204 115.245 168.33 115.785 168.33C116.325 168.33 116.805 168.204 117.225 167.952C117.657 167.688 117.993 167.334 118.233 166.89C118.485 166.446 118.611 165.936 118.611 165.36C118.611 164.784 118.485 164.274 118.233 163.83C117.993 163.374 117.657 163.02 117.225 162.768C116.805 162.516 116.325 162.39 115.785 162.39C115.245 162.39 114.759 162.516 114.327 162.768C113.907 163.02 113.571 163.374 113.319 163.83C113.079 164.274 112.959 164.784 112.959 165.36ZM123.487 166.26C123.487 166.92 123.637 167.43 123.937 167.79C124.237 168.15 124.675 168.33 125.251 168.33C125.671 168.33 126.037 168.246 126.349 168.078C126.673 167.898 126.919 167.652 127.087 167.34C127.267 167.028 127.357 166.668 127.357 166.26V161.22H128.797V169.5H127.357V168.204C127.081 168.696 126.739 169.068 126.331 169.32C125.923 169.56 125.443 169.68 124.891 169.68C124.027 169.68 123.337 169.386 122.821 168.798C122.305 168.21 122.047 167.424 122.047 166.44V161.22H123.487V166.26ZM132.944 161.22V169.5H131.504V161.22H132.944ZM135.446 162.804C135.254 162.66 135.08 162.558 134.924 162.498C134.768 162.426 134.57 162.39 134.33 162.39C133.97 162.39 133.688 162.48 133.484 162.66C133.28 162.84 133.136 163.086 133.052 163.398C132.98 163.71 132.944 164.064 132.944 164.46H132.296C132.296 163.8 132.41 163.218 132.638 162.714C132.878 162.198 133.184 161.79 133.556 161.49C133.928 161.19 134.306 161.04 134.69 161.04C134.99 161.04 135.266 161.082 135.518 161.166C135.782 161.238 136.022 161.388 136.238 161.616L135.446 162.804ZM138.016 166.962C138.184 167.214 138.376 167.448 138.592 167.664C138.808 167.88 139.054 168.054 139.33 168.186C139.618 168.306 139.93 168.366 140.266 168.366C140.674 168.366 140.992 168.276 141.22 168.096C141.46 167.904 141.58 167.646 141.58 167.322C141.58 167.034 141.484 166.794 141.292 166.602C141.112 166.398 140.878 166.23 140.59 166.098C140.302 165.954 139.996 165.822 139.672 165.702C139.312 165.558 138.946 165.39 138.574 165.198C138.214 164.994 137.908 164.736 137.656 164.424C137.416 164.1 137.296 163.698 137.296 163.218C137.296 162.726 137.422 162.318 137.674 161.994C137.938 161.67 138.274 161.43 138.682 161.274C139.102 161.118 139.534 161.04 139.978 161.04C140.422 161.04 140.836 161.112 141.22 161.256C141.616 161.4 141.964 161.592 142.264 161.832C142.564 162.072 142.798 162.348 142.966 162.66L141.814 163.398C141.586 163.086 141.298 162.828 140.95 162.624C140.614 162.42 140.23 162.318 139.798 162.318C139.498 162.318 139.24 162.384 139.024 162.516C138.808 162.648 138.7 162.852 138.7 163.128C138.7 163.344 138.784 163.536 138.952 163.704C139.12 163.872 139.336 164.022 139.6 164.154C139.864 164.286 140.14 164.412 140.428 164.532C140.908 164.724 141.346 164.934 141.742 165.162C142.138 165.378 142.45 165.642 142.678 165.954C142.918 166.266 143.038 166.668 143.038 167.16C143.038 167.88 142.774 168.48 142.246 168.96C141.73 169.44 141.046 169.68 140.194 169.68C139.642 169.68 139.144 169.584 138.7 169.392C138.256 169.188 137.878 168.93 137.566 168.618C137.266 168.306 137.038 167.988 136.882 167.664L138.016 166.962ZM148.138 169.68C147.37 169.68 146.686 169.5 146.086 169.14C145.498 168.768 145.036 168.258 144.7 167.61C144.376 166.962 144.214 166.212 144.214 165.36C144.214 164.496 144.382 163.74 144.718 163.092C145.066 162.444 145.546 161.94 146.158 161.58C146.782 161.22 147.502 161.04 148.318 161.04C149.134 161.04 149.83 161.214 150.406 161.562C150.994 161.898 151.444 162.384 151.756 163.02C152.068 163.656 152.224 164.412 152.224 165.288C152.224 165.372 152.218 165.462 152.206 165.558C152.206 165.642 152.206 165.696 152.206 165.72H145.132V164.496H151.072L150.496 165.324C150.532 165.264 150.568 165.174 150.604 165.054C150.64 164.922 150.658 164.814 150.658 164.73C150.658 164.238 150.556 163.812 150.352 163.452C150.16 163.092 149.89 162.81 149.542 162.606C149.194 162.402 148.786 162.3 148.318 162.3C147.766 162.3 147.292 162.42 146.896 162.66C146.512 162.888 146.212 163.224 145.996 163.668C145.792 164.1 145.684 164.634 145.672 165.27C145.672 165.918 145.774 166.47 145.978 166.926C146.182 167.382 146.482 167.73 146.878 167.97C147.274 168.21 147.754 168.33 148.318 168.33C148.882 168.33 149.38 168.21 149.812 167.97C150.244 167.718 150.61 167.34 150.91 166.836L152.08 167.574C151.648 168.27 151.102 168.798 150.442 169.158C149.794 169.506 149.026 169.68 148.138 169.68ZM154.54 166.962C154.708 167.214 154.9 167.448 155.116 167.664C155.332 167.88 155.578 168.054 155.854 168.186C156.142 168.306 156.454 168.366 156.79 168.366C157.198 168.366 157.516 168.276 157.744 168.096C157.984 167.904 158.104 167.646 158.104 167.322C158.104 167.034 158.008 166.794 157.816 166.602C157.636 166.398 157.402 166.23 157.114 166.098C156.826 165.954 156.52 165.822 156.196 165.702C155.836 165.558 155.47 165.39 155.098 165.198C154.738 164.994 154.432 164.736 154.18 164.424C153.94 164.1 153.82 163.698 153.82 163.218C153.82 162.726 153.946 162.318 154.198 161.994C154.462 161.67 154.798 161.43 155.206 161.274C155.626 161.118 156.058 161.04 156.502 161.04C156.946 161.04 157.36 161.112 157.744 161.256C158.14 161.4 158.488 161.592 158.788 161.832C159.088 162.072 159.322 162.348 159.49 162.66L158.338 163.398C158.11 163.086 157.822 162.828 157.474 162.624C157.138 162.42 156.754 162.318 156.322 162.318C156.022 162.318 155.764 162.384 155.548 162.516C155.332 162.648 155.224 162.852 155.224 163.128C155.224 163.344 155.308 163.536 155.476 163.704C155.644 163.872 155.86 164.022 156.124 164.154C156.388 164.286 156.664 164.412 156.952 164.532C157.432 164.724 157.87 164.934 158.266 165.162C158.662 165.378 158.974 165.642 159.202 165.954C159.442 166.266 159.562 166.668 159.562 167.16C159.562 167.88 159.298 168.48 158.77 168.96C158.254 169.44 157.57 169.68 156.718 169.68C156.166 169.68 155.668 169.584 155.224 169.392C154.78 169.188 154.402 168.93 154.09 168.618C153.79 168.306 153.562 167.988 153.406 167.664L154.54 166.962Z" fill="#555555"/>
<defs>
<clipPath id="clip0_1_1305">
<rect width="32" height="32" fill="white" transform="translate(101 57.5)"/>
</clipPath>
</defs>
</svg>
