<svg width="234" height="234" viewBox="0 0 234 234" fill="none" xmlns="http://www.w3.org/2000/svg">
<rect x="0.5" y="0.5" width="233" height="233" rx="19.5" stroke="#EAEAEA"/>
<g clip-path="url(#clip0_1_1313)">
<path d="M125.097 80.585C124.703 76.0375 120.542 72.675 115.992 73.2283C111.613 73.7617 108.408 77.6792 108.862 82.0767C109.222 85.5458 111.143 87.8767 114.414 89.0692C115.011 89.2875 115.661 89.36 116.287 89.5H117.659C117.811 89.4742 117.962 89.445 118.115 89.4225C122.444 88.785 125.474 84.9492 125.097 80.585ZM118.148 86.49C118.072 86.5217 117.997 86.5525 117.907 86.5883V87.9817H116.045V86.6017C114.529 85.8783 113.766 84.8325 113.842 83.5658H115.647C115.671 83.645 115.695 83.7108 115.709 83.7792C115.859 84.4858 116.429 84.905 117.139 84.8283C117.771 84.7608 118.274 84.1833 118.262 83.5408C118.247 82.8542 117.72 82.295 117.011 82.275C116.068 82.2483 115.267 81.9242 114.633 81.2233C113.172 79.6075 113.732 77.0758 115.747 76.215C115.977 76.1167 116.058 76.0067 116.042 75.7617C116.02 75.4117 116.037 75.0583 116.037 74.6817H117.908C117.908 75.07 117.922 75.4417 117.903 75.8117C117.892 76.0225 117.965 76.1125 118.159 76.1967C119.339 76.7075 119.992 77.6142 120.12 78.895C120.126 78.955 120.12 79.0158 120.12 79.0967H118.29C118.27 79.0192 118.247 78.9417 118.23 78.8625C118.086 78.1883 117.491 77.7592 116.807 77.8375C116.165 77.9108 115.653 78.5133 115.685 79.16C115.719 79.8408 116.242 80.36 116.932 80.3958C118.519 80.4775 119.684 81.3817 120.035 82.8042C120.412 84.3342 119.621 85.8808 118.148 86.49Z" fill="#FF782D"/>
<path d="M109.373 74.4951C109.371 74.6634 109.298 74.8609 109.194 74.9934C108.479 75.8976 107.908 76.8793 107.523 77.9676C107.473 78.1076 107.438 78.2251 107.238 78.2243C105.158 78.2134 103.079 78.2126 101 78.2084V76.3368H104.608V69.9801H109.381V70.3159C109.381 71.7093 109.387 73.1018 109.373 74.4951Z" fill="#FF782D"/>
<path d="M132.927 76.3475V78.2025C132.825 78.2084 132.725 78.2192 132.626 78.2192C130.692 78.22 128.759 78.215 126.827 78.2259C126.591 78.2267 126.482 78.16 126.403 77.9342C126.031 76.8534 125.457 75.8842 124.747 74.99C124.648 74.8642 124.572 74.6784 124.572 74.5209C124.563 68.9717 124.565 63.4225 124.565 57.8734V57.5692H129.328V76.3475H132.927Z" fill="#FF782D"/>
<path d="M122.667 61.7042V72.9826C121.916 72.6259 121.177 72.2067 120.39 71.9201C119.606 71.6342 118.772 71.4817 117.927 71.2626V61.7042H122.667Z" fill="#FF782D"/>
<path d="M116.013 65.8492V71.2634C115.181 71.4801 114.341 71.6359 113.548 71.9234C112.768 72.2076 112.034 72.6251 111.274 72.9867V65.8492H116.013Z" fill="#FF782D"/>
</g>
<path d="M82.38 132.5V120.96C82.38 120.333 82.4733 119.813 82.66 119.4C82.8467 118.973 83.0933 118.64 83.4 118.4C83.72 118.16 84.0667 117.993 84.44 117.9C84.8267 117.793 85.2067 117.74 85.58 117.74C86.1 117.74 86.7133 117.747 87.42 117.76C88.1267 117.76 88.8667 117.78 89.64 117.82C90.4133 117.847 91.16 117.893 91.88 117.96V120.02H86.24C85.8 120.02 85.4533 120.147 85.2 120.4C84.96 120.64 84.84 120.973 84.84 121.4V124.38L90.98 124.52V126.46L84.84 126.6V132.5H82.38ZM94.123 120.08C93.8696 120.08 93.743 119.96 93.743 119.72V117.9C93.743 117.633 93.8696 117.5 94.123 117.5H96.003C96.123 117.5 96.2096 117.54 96.263 117.62C96.3296 117.7 96.363 117.793 96.363 117.9V119.72C96.363 119.96 96.243 120.08 96.003 120.08H94.123ZM93.803 132.5V121.78H96.283V132.5H93.803ZM98.8225 132.5V121.78H100.843L101.303 122.9C101.743 122.567 102.276 122.267 102.903 122C103.543 121.733 104.203 121.6 104.883 121.6C105.723 121.6 106.383 121.773 106.863 122.12C107.343 122.453 107.683 122.907 107.883 123.48C108.096 124.053 108.203 124.68 108.203 125.36V132.5H105.723V125.66C105.723 125.273 105.649 124.947 105.503 124.68C105.356 124.413 105.149 124.207 104.883 124.06C104.629 123.913 104.316 123.84 103.943 123.84C103.596 123.84 103.269 123.873 102.963 123.94C102.669 124.007 102.389 124.107 102.123 124.24C101.856 124.373 101.583 124.533 101.303 124.72V132.5H98.8225ZM112.898 132.62C112.098 132.62 111.445 132.38 110.938 131.9C110.431 131.42 110.178 130.76 110.178 129.92V129.02C110.178 128.193 110.458 127.52 111.018 127C111.591 126.48 112.465 126.22 113.638 126.22H116.698V125.28C116.698 124.907 116.631 124.593 116.498 124.34C116.365 124.087 116.125 123.9 115.778 123.78C115.431 123.647 114.905 123.58 114.198 123.58H110.958V122.14C111.451 122.007 112.031 121.893 112.698 121.8C113.365 121.693 114.158 121.64 115.078 121.64C115.958 121.627 116.705 121.733 117.318 121.96C117.931 122.173 118.391 122.533 118.698 123.04C119.018 123.547 119.178 124.24 119.178 125.12V132.5H117.238L116.818 131.34C116.725 131.42 116.558 131.527 116.318 131.66C116.078 131.793 115.778 131.94 115.418 132.1C115.058 132.247 114.658 132.373 114.218 132.48C113.791 132.573 113.351 132.62 112.898 132.62ZM114.098 130.88C114.271 130.88 114.465 130.86 114.678 130.82C114.905 130.767 115.131 130.713 115.358 130.66C115.585 130.593 115.791 130.533 115.978 130.48C116.178 130.413 116.338 130.353 116.458 130.3C116.591 130.247 116.671 130.213 116.698 130.2V127.4L114.378 127.52C113.765 127.573 113.318 127.733 113.038 128C112.771 128.267 112.638 128.62 112.638 129.06V129.5C112.638 129.833 112.705 130.107 112.838 130.32C112.985 130.52 113.165 130.66 113.378 130.74C113.605 130.82 113.845 130.867 114.098 130.88ZM121.635 132.5V121.78H123.655L124.115 122.9C124.555 122.567 125.088 122.267 125.715 122C126.355 121.733 127.015 121.6 127.695 121.6C128.535 121.6 129.195 121.773 129.675 122.12C130.155 122.453 130.495 122.907 130.695 123.48C130.908 124.053 131.015 124.68 131.015 125.36V132.5H128.535V125.66C128.535 125.273 128.462 124.947 128.315 124.68C128.168 124.413 127.962 124.207 127.695 124.06C127.442 123.913 127.128 123.84 126.755 123.84C126.408 123.84 126.082 123.873 125.775 123.94C125.482 124.007 125.202 124.107 124.935 124.24C124.668 124.373 124.395 124.533 124.115 124.72V132.5H121.635ZM137.59 132.62C136.95 132.62 136.357 132.54 135.81 132.38C135.277 132.207 134.81 131.92 134.41 131.52C134.01 131.107 133.697 130.547 133.47 129.84C133.257 129.133 133.15 128.247 133.15 127.18C133.15 126.087 133.25 125.18 133.45 124.46C133.664 123.74 133.964 123.173 134.35 122.76C134.737 122.347 135.204 122.06 135.75 121.9C136.31 121.727 136.944 121.64 137.65 121.64C138.25 121.64 138.857 121.673 139.47 121.74C140.084 121.793 140.697 121.9 141.31 122.06V123.48H138.39C137.75 123.48 137.23 123.58 136.83 123.78C136.43 123.98 136.13 124.347 135.93 124.88C135.73 125.413 135.63 126.18 135.63 127.18C135.63 128.167 135.73 128.92 135.93 129.44C136.13 129.947 136.43 130.293 136.83 130.48C137.244 130.653 137.77 130.74 138.41 130.74H141.47V132.14C141.15 132.233 140.777 132.32 140.35 132.4C139.924 132.467 139.47 132.52 138.99 132.56C138.524 132.6 138.057 132.62 137.59 132.62ZM147.675 132.6C146.515 132.6 145.588 132.44 144.895 132.12C144.215 131.8 143.722 131.247 143.415 130.46C143.108 129.66 142.955 128.553 142.955 127.14C142.955 125.7 143.102 124.587 143.395 123.8C143.688 123 144.175 122.44 144.855 122.12C145.535 121.8 146.455 121.64 147.615 121.64C148.642 121.64 149.462 121.747 150.075 121.96C150.702 122.16 151.155 122.527 151.435 123.06C151.728 123.58 151.875 124.32 151.875 125.28C151.875 125.96 151.742 126.507 151.475 126.92C151.208 127.32 150.822 127.607 150.315 127.78C149.822 127.953 149.235 128.04 148.555 128.04H145.415C145.442 128.707 145.528 129.24 145.675 129.64C145.835 130.027 146.115 130.307 146.515 130.48C146.928 130.653 147.528 130.74 148.315 130.74H151.555V132.2C151.008 132.307 150.428 132.4 149.815 132.48C149.215 132.56 148.502 132.6 147.675 132.6ZM145.395 126.54H148.315C148.782 126.54 149.122 126.453 149.335 126.28C149.562 126.093 149.675 125.76 149.675 125.28C149.675 124.813 149.608 124.447 149.475 124.18C149.342 123.913 149.122 123.727 148.815 123.62C148.508 123.5 148.108 123.44 147.615 123.44C147.055 123.44 146.615 123.527 146.295 123.7C145.975 123.873 145.742 124.187 145.595 124.64C145.462 125.08 145.395 125.713 145.395 126.54Z" fill="black"/>
<path d="M78.054 163.29V162.3C78.462 162.3 78.822 162.246 79.134 162.138C79.446 162.018 79.71 161.862 79.926 161.67C80.142 161.466 80.304 161.232 80.412 160.968C80.532 160.704 80.592 160.422 80.592 160.122C80.592 159.726 80.52 159.378 80.376 159.078C80.232 158.766 80.016 158.526 79.728 158.358C79.452 158.19 79.104 158.106 78.684 158.106C78.096 158.106 77.598 158.292 77.19 158.664C76.782 159.024 76.578 159.48 76.578 160.032H75.12C75.12 159.372 75.27 158.796 75.57 158.304C75.882 157.812 76.302 157.428 76.83 157.152C77.37 156.864 77.982 156.72 78.666 156.72C79.386 156.72 80.004 156.876 80.52 157.188C81.048 157.5 81.45 157.908 81.726 158.412C82.014 158.916 82.158 159.468 82.158 160.068C82.158 160.656 81.984 161.196 81.636 161.688C81.288 162.18 80.808 162.57 80.196 162.858C79.584 163.146 78.87 163.29 78.054 163.29ZM78.594 169.68C77.982 169.68 77.43 169.59 76.938 169.41C76.446 169.23 76.026 168.984 75.678 168.672C75.33 168.348 75.06 167.976 74.868 167.556C74.676 167.124 74.58 166.662 74.58 166.17H76.128C76.128 166.566 76.23 166.92 76.434 167.232C76.65 167.544 76.944 167.79 77.316 167.97C77.688 168.15 78.114 168.24 78.594 168.24C79.074 168.24 79.488 168.15 79.836 167.97C80.196 167.778 80.472 167.514 80.664 167.178C80.856 166.842 80.952 166.446 80.952 165.99C80.952 165.606 80.874 165.27 80.718 164.982C80.574 164.682 80.37 164.436 80.106 164.244C79.842 164.04 79.536 163.89 79.188 163.794C78.84 163.698 78.462 163.65 78.054 163.65V162.66C78.666 162.66 79.236 162.726 79.764 162.858C80.304 162.99 80.778 163.2 81.186 163.488C81.606 163.764 81.93 164.124 82.158 164.568C82.398 165.012 82.518 165.546 82.518 166.17C82.518 166.878 82.344 167.496 81.996 168.024C81.66 168.552 81.198 168.96 80.61 169.248C80.022 169.536 79.35 169.68 78.594 169.68ZM84.7662 159.942C84.7662 159.342 84.9162 158.802 85.2162 158.322C85.5282 157.83 85.9422 157.44 86.4582 157.152C86.9862 156.864 87.5802 156.72 88.2402 156.72C88.9002 156.72 89.4882 156.864 90.0042 157.152C90.5322 157.44 90.9462 157.83 91.2462 158.322C91.5582 158.802 91.7142 159.342 91.7142 159.942C91.7142 160.434 91.6302 160.878 91.4622 161.274C91.2942 161.658 91.0542 161.988 90.7422 162.264C90.4422 162.54 90.0762 162.75 89.6442 162.894C89.2242 163.038 88.7562 163.11 88.2402 163.11C87.7242 163.11 87.2502 163.038 86.8182 162.894C86.3982 162.75 86.0322 162.54 85.7202 162.264C85.4202 161.988 85.1862 161.658 85.0182 161.274C84.8502 160.878 84.7662 160.434 84.7662 159.942ZM86.2242 160.122C86.2242 160.518 86.3142 160.866 86.4942 161.166C86.6862 161.466 86.9322 161.7 87.2322 161.868C87.5442 162.036 87.8802 162.12 88.2402 162.12C88.6002 162.12 88.9302 162.036 89.2302 161.868C89.5422 161.7 89.7882 161.466 89.9682 161.166C90.1602 160.866 90.2562 160.518 90.2562 160.122C90.2562 159.726 90.1662 159.372 89.9862 159.06C89.8182 158.748 89.5842 158.508 89.2842 158.34C88.9842 158.16 88.6362 158.07 88.2402 158.07C87.8562 158.07 87.5082 158.16 87.1962 158.34C86.8962 158.508 86.6562 158.748 86.4762 159.06C86.3082 159.372 86.2242 159.726 86.2242 160.122ZM84.3162 166.08C84.3162 165.504 84.4182 164.994 84.6222 164.55C84.8382 164.094 85.1262 163.716 85.4862 163.416C85.8582 163.104 86.2782 162.87 86.7462 162.714C87.2262 162.558 87.7242 162.48 88.2402 162.48C88.7562 162.48 89.2482 162.558 89.7162 162.714C90.1962 162.87 90.6162 163.104 90.9762 163.416C91.3482 163.716 91.6362 164.094 91.8402 164.55C92.0562 164.994 92.1642 165.504 92.1642 166.08C92.1642 166.572 92.0622 167.034 91.8582 167.466C91.6662 167.898 91.3902 168.282 91.0302 168.618C90.6822 168.954 90.2682 169.218 89.7882 169.41C89.3202 169.59 88.8042 169.68 88.2402 169.68C87.6762 169.68 87.1542 169.59 86.6742 169.41C86.2062 169.218 85.7922 168.954 85.4322 168.618C85.0842 168.282 84.8082 167.898 84.6042 167.466C84.4122 167.034 84.3162 166.572 84.3162 166.08ZM85.7742 165.9C85.7742 166.416 85.8882 166.854 86.1162 167.214C86.3562 167.574 86.6622 167.85 87.0342 168.042C87.4182 168.234 87.8202 168.33 88.2402 168.33C88.6602 168.33 89.0562 168.234 89.4282 168.042C89.8122 167.85 90.1182 167.574 90.3462 167.214C90.5862 166.854 90.7062 166.416 90.7062 165.9C90.7062 165.444 90.5862 165.036 90.3462 164.676C90.1182 164.304 89.8122 164.01 89.4282 163.794C89.0562 163.578 88.6602 163.47 88.2402 163.47C87.8202 163.47 87.4182 163.578 87.0342 163.794C86.6622 164.01 86.3562 164.304 86.1162 164.676C85.8882 165.036 85.7742 165.444 85.7742 165.9ZM100.889 163.2C100.889 164.172 101.105 165.03 101.537 165.774C101.981 166.518 102.557 167.1 103.265 167.52C103.973 167.94 104.741 168.15 105.569 168.15C106.169 168.15 106.715 168.072 107.207 167.916C107.711 167.76 108.167 167.544 108.575 167.268C108.983 166.98 109.331 166.65 109.619 166.278V168.294C109.091 168.762 108.515 169.11 107.891 169.338C107.267 169.566 106.493 169.68 105.569 169.68C104.693 169.68 103.871 169.524 103.103 169.212C102.347 168.888 101.681 168.438 101.105 167.862C100.529 167.274 100.079 166.584 99.7548 165.792C99.4308 165 99.2688 164.136 99.2688 163.2C99.2688 162.264 99.4308 161.4 99.7548 160.608C100.079 159.816 100.529 159.132 101.105 158.556C101.681 157.968 102.347 157.518 103.103 157.206C103.871 156.882 104.693 156.72 105.569 156.72C106.493 156.72 107.267 156.834 107.891 157.062C108.515 157.29 109.091 157.638 109.619 158.106V160.122C109.331 159.75 108.983 159.426 108.575 159.15C108.167 158.862 107.711 158.64 107.207 158.484C106.715 158.328 106.169 158.25 105.569 158.25C104.741 158.25 103.973 158.46 103.265 158.88C102.557 159.3 101.981 159.882 101.537 160.626C101.105 161.358 100.889 162.216 100.889 163.2ZM111.501 165.36C111.501 164.52 111.687 163.776 112.059 163.128C112.443 162.48 112.959 161.97 113.607 161.598C114.255 161.226 114.981 161.04 115.785 161.04C116.601 161.04 117.327 161.226 117.963 161.598C118.611 161.97 119.121 162.48 119.493 163.128C119.877 163.776 120.069 164.52 120.069 165.36C120.069 166.188 119.877 166.932 119.493 167.592C119.121 168.24 118.611 168.75 117.963 169.122C117.327 169.494 116.601 169.68 115.785 169.68C114.981 169.68 114.255 169.494 113.607 169.122C112.959 168.75 112.443 168.24 112.059 167.592C111.687 166.932 111.501 166.188 111.501 165.36ZM112.959 165.36C112.959 165.936 113.079 166.446 113.319 166.89C113.571 167.334 113.907 167.688 114.327 167.952C114.759 168.204 115.245 168.33 115.785 168.33C116.325 168.33 116.805 168.204 117.225 167.952C117.657 167.688 117.993 167.334 118.233 166.89C118.485 166.446 118.611 165.936 118.611 165.36C118.611 164.784 118.485 164.274 118.233 163.83C117.993 163.374 117.657 163.02 117.225 162.768C116.805 162.516 116.325 162.39 115.785 162.39C115.245 162.39 114.759 162.516 114.327 162.768C113.907 163.02 113.571 163.374 113.319 163.83C113.079 164.274 112.959 164.784 112.959 165.36ZM123.487 166.26C123.487 166.92 123.637 167.43 123.937 167.79C124.237 168.15 124.675 168.33 125.251 168.33C125.671 168.33 126.037 168.246 126.349 168.078C126.673 167.898 126.919 167.652 127.087 167.34C127.267 167.028 127.357 166.668 127.357 166.26V161.22H128.797V169.5H127.357V168.204C127.081 168.696 126.739 169.068 126.331 169.32C125.923 169.56 125.443 169.68 124.891 169.68C124.027 169.68 123.337 169.386 122.821 168.798C122.305 168.21 122.047 167.424 122.047 166.44V161.22H123.487V166.26ZM132.944 161.22V169.5H131.504V161.22H132.944ZM135.446 162.804C135.254 162.66 135.08 162.558 134.924 162.498C134.768 162.426 134.57 162.39 134.33 162.39C133.97 162.39 133.688 162.48 133.484 162.66C133.28 162.84 133.136 163.086 133.052 163.398C132.98 163.71 132.944 164.064 132.944 164.46H132.296C132.296 163.8 132.41 163.218 132.638 162.714C132.878 162.198 133.184 161.79 133.556 161.49C133.928 161.19 134.306 161.04 134.69 161.04C134.99 161.04 135.266 161.082 135.518 161.166C135.782 161.238 136.022 161.388 136.238 161.616L135.446 162.804ZM138.016 166.962C138.184 167.214 138.376 167.448 138.592 167.664C138.808 167.88 139.054 168.054 139.33 168.186C139.618 168.306 139.93 168.366 140.266 168.366C140.674 168.366 140.992 168.276 141.22 168.096C141.46 167.904 141.58 167.646 141.58 167.322C141.58 167.034 141.484 166.794 141.292 166.602C141.112 166.398 140.878 166.23 140.59 166.098C140.302 165.954 139.996 165.822 139.672 165.702C139.312 165.558 138.946 165.39 138.574 165.198C138.214 164.994 137.908 164.736 137.656 164.424C137.416 164.1 137.296 163.698 137.296 163.218C137.296 162.726 137.422 162.318 137.674 161.994C137.938 161.67 138.274 161.43 138.682 161.274C139.102 161.118 139.534 161.04 139.978 161.04C140.422 161.04 140.836 161.112 141.22 161.256C141.616 161.4 141.964 161.592 142.264 161.832C142.564 162.072 142.798 162.348 142.966 162.66L141.814 163.398C141.586 163.086 141.298 162.828 140.95 162.624C140.614 162.42 140.23 162.318 139.798 162.318C139.498 162.318 139.24 162.384 139.024 162.516C138.808 162.648 138.7 162.852 138.7 163.128C138.7 163.344 138.784 163.536 138.952 163.704C139.12 163.872 139.336 164.022 139.6 164.154C139.864 164.286 140.14 164.412 140.428 164.532C140.908 164.724 141.346 164.934 141.742 165.162C142.138 165.378 142.45 165.642 142.678 165.954C142.918 166.266 143.038 166.668 143.038 167.16C143.038 167.88 142.774 168.48 142.246 168.96C141.73 169.44 141.046 169.68 140.194 169.68C139.642 169.68 139.144 169.584 138.7 169.392C138.256 169.188 137.878 168.93 137.566 168.618C137.266 168.306 137.038 167.988 136.882 167.664L138.016 166.962ZM148.138 169.68C147.37 169.68 146.686 169.5 146.086 169.14C145.498 168.768 145.036 168.258 144.7 167.61C144.376 166.962 144.214 166.212 144.214 165.36C144.214 164.496 144.382 163.74 144.718 163.092C145.066 162.444 145.546 161.94 146.158 161.58C146.782 161.22 147.502 161.04 148.318 161.04C149.134 161.04 149.83 161.214 150.406 161.562C150.994 161.898 151.444 162.384 151.756 163.02C152.068 163.656 152.224 164.412 152.224 165.288C152.224 165.372 152.218 165.462 152.206 165.558C152.206 165.642 152.206 165.696 152.206 165.72H145.132V164.496H151.072L150.496 165.324C150.532 165.264 150.568 165.174 150.604 165.054C150.64 164.922 150.658 164.814 150.658 164.73C150.658 164.238 150.556 163.812 150.352 163.452C150.16 163.092 149.89 162.81 149.542 162.606C149.194 162.402 148.786 162.3 148.318 162.3C147.766 162.3 147.292 162.42 146.896 162.66C146.512 162.888 146.212 163.224 145.996 163.668C145.792 164.1 145.684 164.634 145.672 165.27C145.672 165.918 145.774 166.47 145.978 166.926C146.182 167.382 146.482 167.73 146.878 167.97C147.274 168.21 147.754 168.33 148.318 168.33C148.882 168.33 149.38 168.21 149.812 167.97C150.244 167.718 150.61 167.34 150.91 166.836L152.08 167.574C151.648 168.27 151.102 168.798 150.442 169.158C149.794 169.506 149.026 169.68 148.138 169.68ZM154.54 166.962C154.708 167.214 154.9 167.448 155.116 167.664C155.332 167.88 155.578 168.054 155.854 168.186C156.142 168.306 156.454 168.366 156.79 168.366C157.198 168.366 157.516 168.276 157.744 168.096C157.984 167.904 158.104 167.646 158.104 167.322C158.104 167.034 158.008 166.794 157.816 166.602C157.636 166.398 157.402 166.23 157.114 166.098C156.826 165.954 156.52 165.822 156.196 165.702C155.836 165.558 155.47 165.39 155.098 165.198C154.738 164.994 154.432 164.736 154.18 164.424C153.94 164.1 153.82 163.698 153.82 163.218C153.82 162.726 153.946 162.318 154.198 161.994C154.462 161.67 154.798 161.43 155.206 161.274C155.626 161.118 156.058 161.04 156.502 161.04C156.946 161.04 157.36 161.112 157.744 161.256C158.14 161.4 158.488 161.592 158.788 161.832C159.088 162.072 159.322 162.348 159.49 162.66L158.338 163.398C158.11 163.086 157.822 162.828 157.474 162.624C157.138 162.42 156.754 162.318 156.322 162.318C156.022 162.318 155.764 162.384 155.548 162.516C155.332 162.648 155.224 162.852 155.224 163.128C155.224 163.344 155.308 163.536 155.476 163.704C155.644 163.872 155.86 164.022 156.124 164.154C156.388 164.286 156.664 164.412 156.952 164.532C157.432 164.724 157.87 164.934 158.266 165.162C158.662 165.378 158.974 165.642 159.202 165.954C159.442 166.266 159.562 166.668 159.562 167.16C159.562 167.88 159.298 168.48 158.77 168.96C158.254 169.44 157.57 169.68 156.718 169.68C156.166 169.68 155.668 169.584 155.224 169.392C154.78 169.188 154.402 168.93 154.09 168.618C153.79 168.306 153.562 167.988 153.406 167.664L154.54 166.962Z" fill="#555555"/>
<defs>
<clipPath id="clip0_1_1313">
<rect width="32" height="32" fill="white" transform="translate(101 57.5)"/>
</clipPath>
</defs>
</svg>
