<svg width="234" height="234" viewBox="0 0 234 234" fill="none" xmlns="http://www.w3.org/2000/svg">
<rect x="0.5" y="0.5" width="233" height="233" rx="19.5" stroke="#EAEAEA"/>
<g clip-path="url(#clip0_1_1311)">
<path d="M132.553 64.3442C132.889 64.6692 133.061 65.0367 132.868 65.4909C132.681 65.9292 132.313 66.0642 131.855 66.0625C130.035 66.0542 128.215 66.0592 126.396 66.0592H125.998V69.3917C126.083 69.3984 126.172 69.4109 126.261 69.4109C126.885 69.4134 127.509 69.4109 128.133 69.4125C128.836 69.4142 129.201 69.7834 129.202 70.495C129.203 71.7742 129.203 73.0525 129.203 74.3317C129.203 78.9684 129.196 83.605 129.211 88.2425C129.213 88.8209 129.056 89.25 128.517 89.5H120.717C120.719 88.6475 120.723 87.795 120.723 86.9425V70.5992C120.723 69.7425 121.054 69.4125 121.91 69.4117C122.607 69.4117 123.303 69.41 124 69.4075C124.019 69.4075 124.038 69.3959 124.1 69.3759V69.0292C124.1 65.5975 124.099 62.1667 124.103 58.7359C124.103 58.5609 124.111 58.3792 124.158 58.2125C124.278 57.79 124.713 57.5142 125.143 57.5642C125.584 57.615 125.93 57.9659 125.964 58.4092C125.978 58.5925 125.966 58.7775 125.966 58.9959H126.338C128.179 58.9959 130.02 59 131.86 58.9934C132.306 58.9917 132.663 59.1267 132.857 59.545C133.058 59.98 132.91 60.3467 132.599 60.6792C132.009 61.3084 131.428 61.9467 130.823 62.6034C130.893 62.6809 130.957 62.7567 131.027 62.8267C131.534 63.3342 132.038 63.8442 132.553 64.3442Z" fill="#FF782D"/>
<path d="M118.849 77.6851C118.851 81.6234 118.848 85.5617 118.845 89.5001H111.483C111.482 85.5717 111.479 81.6442 111.481 77.7159C111.481 77.1284 111.863 76.7301 112.453 76.7267C114.262 76.7176 116.071 76.7176 117.879 76.7267C118.459 76.7301 118.848 77.1201 118.849 77.6851Z" fill="#FF782D"/>
<path d="M109.611 89.5001H101.998C101.459 89.2734 101.278 88.8667 101.287 88.2892C101.311 86.5542 101.294 84.8192 101.296 83.0834C101.296 82.3126 101.647 81.9634 102.422 81.9634C104.438 81.9626 106.454 81.9626 108.47 81.9634C109.255 81.9634 109.607 82.3192 109.608 83.1092C109.609 85.2392 109.61 87.3701 109.611 89.5001Z" fill="#FF782D"/>
<path d="M118.12 66.0226C117.639 66.2492 117.115 66.0442 116.848 65.5209C116.642 65.1151 116.442 64.7076 116.218 64.2584C116.145 64.3826 116.092 64.4642 116.046 64.5501C112.983 70.2392 108.51 74.4134 102.607 77.0492C101.789 77.4142 101.465 77.3176 101 76.5867V76.0876C101.162 75.6967 101.477 75.4984 101.852 75.3317C107.325 72.8984 111.475 69.0317 114.338 63.7776C114.395 63.6717 114.443 63.5617 114.527 63.3926C113.974 63.5026 113.49 63.6067 113.003 63.6934C112.583 63.7676 112.177 63.5434 112.004 63.1651C111.761 62.6301 112.058 62.0009 112.643 61.8709C113.738 61.6284 114.835 61.3992 115.935 61.1792C116.473 61.0717 116.812 61.2484 117.057 61.7384C117.551 62.7217 118.042 63.7067 118.526 64.6951C118.788 65.2309 118.611 65.7909 118.12 66.0226Z" fill="#FF782D"/>
</g>
<path d="M70.48 132.5L72.18 117.74H74.58L78.16 129.56L81.72 117.74H84.12L85.86 132.5H83.46L82.1 120.9L82.5 120.94L79.3 132.5H76.98L73.74 120.94L74.16 120.92L72.86 132.5H70.48ZM90.1089 132.62C89.3089 132.62 88.6556 132.38 88.1489 131.9C87.6422 131.42 87.3889 130.76 87.3889 129.92V129.02C87.3889 128.193 87.6689 127.52 88.2289 127C88.8022 126.48 89.6756 126.22 90.8489 126.22H93.9089V125.28C93.9089 124.907 93.8422 124.593 93.7089 124.34C93.5756 124.087 93.3356 123.9 92.9889 123.78C92.6422 123.647 92.1156 123.58 91.4089 123.58H88.1689V122.14C88.6622 122.007 89.2422 121.893 89.9089 121.8C90.5756 121.693 91.3689 121.64 92.2889 121.64C93.1689 121.627 93.9156 121.733 94.5289 121.96C95.1422 122.173 95.6022 122.533 95.9089 123.04C96.2289 123.547 96.3889 124.24 96.3889 125.12V132.5H94.4489L94.0289 131.34C93.9356 131.42 93.7689 131.527 93.5289 131.66C93.2889 131.793 92.9889 131.94 92.6289 132.1C92.2689 132.247 91.8689 132.373 91.4289 132.48C91.0022 132.573 90.5622 132.62 90.1089 132.62ZM91.3089 130.88C91.4822 130.88 91.6756 130.86 91.8889 130.82C92.1156 130.767 92.3422 130.713 92.5689 130.66C92.7956 130.593 93.0022 130.533 93.1889 130.48C93.3889 130.413 93.5489 130.353 93.6689 130.3C93.8022 130.247 93.8822 130.213 93.9089 130.2V127.4L91.5889 127.52C90.9756 127.573 90.5289 127.733 90.2489 128C89.9822 128.267 89.8489 128.62 89.8489 129.06V129.5C89.8489 129.833 89.9156 130.107 90.0489 130.32C90.1956 130.52 90.3756 130.66 90.5889 130.74C90.8156 130.82 91.0556 130.867 91.3089 130.88ZM98.8459 132.5V121.78H100.766L101.326 123.5C101.753 122.98 102.226 122.54 102.746 122.18C103.266 121.82 103.886 121.64 104.606 121.64C104.753 121.64 104.906 121.653 105.066 121.68C105.226 121.693 105.373 121.72 105.506 121.76V124.28C105.319 124.253 105.119 124.233 104.906 124.22C104.693 124.207 104.486 124.2 104.286 124.2C103.873 124.2 103.493 124.247 103.146 124.34C102.813 124.433 102.499 124.58 102.206 124.78C101.913 124.967 101.619 125.207 101.326 125.5V132.5H98.8459ZM107.225 132.5V117.24H109.705V125.7H111.065L113.745 121.78H116.285L112.885 126.82L116.565 132.5H114.025L111.025 127.92H109.705V132.5H107.225ZM122.347 132.6C121.187 132.6 120.26 132.44 119.567 132.12C118.887 131.8 118.394 131.247 118.087 130.46C117.78 129.66 117.627 128.553 117.627 127.14C117.627 125.7 117.774 124.587 118.067 123.8C118.36 123 118.847 122.44 119.527 122.12C120.207 121.8 121.127 121.64 122.287 121.64C123.314 121.64 124.134 121.747 124.747 121.96C125.374 122.16 125.827 122.527 126.107 123.06C126.4 123.58 126.547 124.32 126.547 125.28C126.547 125.96 126.414 126.507 126.147 126.92C125.88 127.32 125.494 127.607 124.987 127.78C124.494 127.953 123.907 128.04 123.227 128.04H120.087C120.114 128.707 120.2 129.24 120.347 129.64C120.507 130.027 120.787 130.307 121.187 130.48C121.6 130.653 122.2 130.74 122.987 130.74H126.227V132.2C125.68 132.307 125.1 132.4 124.487 132.48C123.887 132.56 123.174 132.6 122.347 132.6ZM120.067 126.54H122.987C123.454 126.54 123.794 126.453 124.007 126.28C124.234 126.093 124.347 125.76 124.347 125.28C124.347 124.813 124.28 124.447 124.147 124.18C124.014 123.913 123.794 123.727 123.487 123.62C123.18 123.5 122.78 123.44 122.287 123.44C121.727 123.44 121.287 123.527 120.967 123.7C120.647 123.873 120.414 124.187 120.267 124.64C120.134 125.08 120.067 125.713 120.067 126.54ZM132.648 132.5C131.875 132.5 131.242 132.387 130.748 132.16C130.255 131.92 129.895 131.527 129.668 130.98C129.455 130.433 129.355 129.713 129.368 128.82L129.448 123.78H127.768V122.18L129.528 121.78L129.888 118.78H131.828V121.78H134.548V123.78H131.828V128.8C131.828 129.147 131.862 129.433 131.928 129.66C131.995 129.873 132.088 130.047 132.208 130.18C132.342 130.3 132.482 130.387 132.628 130.44C132.775 130.493 132.928 130.527 133.088 130.54L134.428 130.68V132.5H132.648ZM136.685 120.08C136.432 120.08 136.305 119.96 136.305 119.72V117.9C136.305 117.633 136.432 117.5 136.685 117.5H138.565C138.685 117.5 138.772 117.54 138.825 117.62C138.892 117.7 138.925 117.793 138.925 117.9V119.72C138.925 119.96 138.805 120.08 138.565 120.08H136.685ZM136.365 132.5V121.78H138.845V132.5H136.365ZM141.385 132.5V121.78H143.405L143.865 122.9C144.305 122.567 144.838 122.267 145.465 122C146.105 121.733 146.765 121.6 147.445 121.6C148.285 121.6 148.945 121.773 149.425 122.12C149.905 122.453 150.245 122.907 150.445 123.48C150.658 124.053 150.765 124.68 150.765 125.36V132.5H148.285V125.66C148.285 125.273 148.212 124.947 148.065 124.68C147.918 124.413 147.712 124.207 147.445 124.06C147.192 123.913 146.878 123.84 146.505 123.84C146.158 123.84 145.832 123.873 145.525 123.94C145.232 124.007 144.952 124.107 144.685 124.24C144.418 124.373 144.145 124.533 143.865 124.72V132.5H141.385ZM155.98 137.44C155.3 137.44 154.694 137.34 154.16 137.14C153.627 136.953 153.207 136.66 152.9 136.26C152.607 135.873 152.46 135.4 152.46 134.84V134.46C152.46 133.873 152.627 133.373 152.96 132.96C153.294 132.56 153.72 132.253 154.24 132.04C154.76 131.827 155.3 131.72 155.86 131.72L156.58 132.54C156.247 132.54 155.947 132.593 155.68 132.7C155.414 132.807 155.2 132.967 155.04 133.18C154.88 133.393 154.8 133.66 154.8 133.98V134.3C154.8 134.78 154.96 135.127 155.28 135.34C155.6 135.567 156.054 135.68 156.64 135.68H158.82C159.434 135.68 159.914 135.56 160.26 135.32C160.62 135.093 160.8 134.74 160.8 134.26V133.92C160.8 133.627 160.74 133.38 160.62 133.18C160.5 132.98 160.307 132.82 160.04 132.7C159.774 132.593 159.414 132.54 158.96 132.54H156.28C155.214 132.54 154.407 132.333 153.86 131.92C153.327 131.507 153.06 130.987 153.06 130.36C153.06 129.827 153.214 129.387 153.52 129.04C153.84 128.693 154.28 128.46 154.84 128.34C154.387 128.127 154.027 127.853 153.76 127.52C153.507 127.187 153.327 126.827 153.22 126.44C153.114 126.053 153.06 125.66 153.06 125.26C153.06 124.447 153.227 123.787 153.56 123.28C153.894 122.76 154.38 122.38 155.02 122.14C155.66 121.887 156.454 121.76 157.4 121.76H163.18V123.14L161.28 123.4C161.414 123.533 161.554 123.693 161.7 123.88C161.86 124.067 161.994 124.313 162.1 124.62C162.207 124.927 162.26 125.327 162.26 125.82C162.26 126.42 162.134 126.967 161.88 127.46C161.64 127.953 161.24 128.347 160.68 128.64C160.12 128.933 159.367 129.08 158.42 129.08H156.6C156.174 129.08 155.827 129.147 155.56 129.28C155.294 129.413 155.16 129.64 155.16 129.96C155.16 130.227 155.267 130.413 155.48 130.52C155.694 130.627 155.92 130.68 156.16 130.68H159.34C160.154 130.68 160.84 130.787 161.4 131C161.974 131.213 162.407 131.547 162.7 132C162.994 132.453 163.14 133.053 163.14 133.8V134.14C163.14 135.167 162.807 135.973 162.14 136.56C161.487 137.147 160.48 137.44 159.12 137.44H155.98ZM157 127.22H158.16C158.654 127.22 159.034 127.147 159.3 127C159.58 126.84 159.767 126.633 159.86 126.38C159.967 126.113 160.02 125.82 160.02 125.5C160.02 125.047 159.947 124.687 159.8 124.42C159.667 124.14 159.467 123.94 159.2 123.82C158.947 123.7 158.634 123.64 158.26 123.64H157.14C156.54 123.64 156.08 123.773 155.76 124.04C155.454 124.307 155.3 124.76 155.3 125.4C155.3 126.04 155.447 126.507 155.74 126.8C156.034 127.08 156.454 127.22 157 127.22Z" fill="black"/>
<path d="M78.054 163.29V162.3C78.462 162.3 78.822 162.246 79.134 162.138C79.446 162.018 79.71 161.862 79.926 161.67C80.142 161.466 80.304 161.232 80.412 160.968C80.532 160.704 80.592 160.422 80.592 160.122C80.592 159.726 80.52 159.378 80.376 159.078C80.232 158.766 80.016 158.526 79.728 158.358C79.452 158.19 79.104 158.106 78.684 158.106C78.096 158.106 77.598 158.292 77.19 158.664C76.782 159.024 76.578 159.48 76.578 160.032H75.12C75.12 159.372 75.27 158.796 75.57 158.304C75.882 157.812 76.302 157.428 76.83 157.152C77.37 156.864 77.982 156.72 78.666 156.72C79.386 156.72 80.004 156.876 80.52 157.188C81.048 157.5 81.45 157.908 81.726 158.412C82.014 158.916 82.158 159.468 82.158 160.068C82.158 160.656 81.984 161.196 81.636 161.688C81.288 162.18 80.808 162.57 80.196 162.858C79.584 163.146 78.87 163.29 78.054 163.29ZM78.594 169.68C77.982 169.68 77.43 169.59 76.938 169.41C76.446 169.23 76.026 168.984 75.678 168.672C75.33 168.348 75.06 167.976 74.868 167.556C74.676 167.124 74.58 166.662 74.58 166.17H76.128C76.128 166.566 76.23 166.92 76.434 167.232C76.65 167.544 76.944 167.79 77.316 167.97C77.688 168.15 78.114 168.24 78.594 168.24C79.074 168.24 79.488 168.15 79.836 167.97C80.196 167.778 80.472 167.514 80.664 167.178C80.856 166.842 80.952 166.446 80.952 165.99C80.952 165.606 80.874 165.27 80.718 164.982C80.574 164.682 80.37 164.436 80.106 164.244C79.842 164.04 79.536 163.89 79.188 163.794C78.84 163.698 78.462 163.65 78.054 163.65V162.66C78.666 162.66 79.236 162.726 79.764 162.858C80.304 162.99 80.778 163.2 81.186 163.488C81.606 163.764 81.93 164.124 82.158 164.568C82.398 165.012 82.518 165.546 82.518 166.17C82.518 166.878 82.344 167.496 81.996 168.024C81.66 168.552 81.198 168.96 80.61 169.248C80.022 169.536 79.35 169.68 78.594 169.68ZM84.7662 159.942C84.7662 159.342 84.9162 158.802 85.2162 158.322C85.5282 157.83 85.9422 157.44 86.4582 157.152C86.9862 156.864 87.5802 156.72 88.2402 156.72C88.9002 156.72 89.4882 156.864 90.0042 157.152C90.5322 157.44 90.9462 157.83 91.2462 158.322C91.5582 158.802 91.7142 159.342 91.7142 159.942C91.7142 160.434 91.6302 160.878 91.4622 161.274C91.2942 161.658 91.0542 161.988 90.7422 162.264C90.4422 162.54 90.0762 162.75 89.6442 162.894C89.2242 163.038 88.7562 163.11 88.2402 163.11C87.7242 163.11 87.2502 163.038 86.8182 162.894C86.3982 162.75 86.0322 162.54 85.7202 162.264C85.4202 161.988 85.1862 161.658 85.0182 161.274C84.8502 160.878 84.7662 160.434 84.7662 159.942ZM86.2242 160.122C86.2242 160.518 86.3142 160.866 86.4942 161.166C86.6862 161.466 86.9322 161.7 87.2322 161.868C87.5442 162.036 87.8802 162.12 88.2402 162.12C88.6002 162.12 88.9302 162.036 89.2302 161.868C89.5422 161.7 89.7882 161.466 89.9682 161.166C90.1602 160.866 90.2562 160.518 90.2562 160.122C90.2562 159.726 90.1662 159.372 89.9862 159.06C89.8182 158.748 89.5842 158.508 89.2842 158.34C88.9842 158.16 88.6362 158.07 88.2402 158.07C87.8562 158.07 87.5082 158.16 87.1962 158.34C86.8962 158.508 86.6562 158.748 86.4762 159.06C86.3082 159.372 86.2242 159.726 86.2242 160.122ZM84.3162 166.08C84.3162 165.504 84.4182 164.994 84.6222 164.55C84.8382 164.094 85.1262 163.716 85.4862 163.416C85.8582 163.104 86.2782 162.87 86.7462 162.714C87.2262 162.558 87.7242 162.48 88.2402 162.48C88.7562 162.48 89.2482 162.558 89.7162 162.714C90.1962 162.87 90.6162 163.104 90.9762 163.416C91.3482 163.716 91.6362 164.094 91.8402 164.55C92.0562 164.994 92.1642 165.504 92.1642 166.08C92.1642 166.572 92.0622 167.034 91.8582 167.466C91.6662 167.898 91.3902 168.282 91.0302 168.618C90.6822 168.954 90.2682 169.218 89.7882 169.41C89.3202 169.59 88.8042 169.68 88.2402 169.68C87.6762 169.68 87.1542 169.59 86.6742 169.41C86.2062 169.218 85.7922 168.954 85.4322 168.618C85.0842 168.282 84.8082 167.898 84.6042 167.466C84.4122 167.034 84.3162 166.572 84.3162 166.08ZM85.7742 165.9C85.7742 166.416 85.8882 166.854 86.1162 167.214C86.3562 167.574 86.6622 167.85 87.0342 168.042C87.4182 168.234 87.8202 168.33 88.2402 168.33C88.6602 168.33 89.0562 168.234 89.4282 168.042C89.8122 167.85 90.1182 167.574 90.3462 167.214C90.5862 166.854 90.7062 166.416 90.7062 165.9C90.7062 165.444 90.5862 165.036 90.3462 164.676C90.1182 164.304 89.8122 164.01 89.4282 163.794C89.0562 163.578 88.6602 163.47 88.2402 163.47C87.8202 163.47 87.4182 163.578 87.0342 163.794C86.6622 164.01 86.3562 164.304 86.1162 164.676C85.8882 165.036 85.7742 165.444 85.7742 165.9ZM100.889 163.2C100.889 164.172 101.105 165.03 101.537 165.774C101.981 166.518 102.557 167.1 103.265 167.52C103.973 167.94 104.741 168.15 105.569 168.15C106.169 168.15 106.715 168.072 107.207 167.916C107.711 167.76 108.167 167.544 108.575 167.268C108.983 166.98 109.331 166.65 109.619 166.278V168.294C109.091 168.762 108.515 169.11 107.891 169.338C107.267 169.566 106.493 169.68 105.569 169.68C104.693 169.68 103.871 169.524 103.103 169.212C102.347 168.888 101.681 168.438 101.105 167.862C100.529 167.274 100.079 166.584 99.7548 165.792C99.4308 165 99.2688 164.136 99.2688 163.2C99.2688 162.264 99.4308 161.4 99.7548 160.608C100.079 159.816 100.529 159.132 101.105 158.556C101.681 157.968 102.347 157.518 103.103 157.206C103.871 156.882 104.693 156.72 105.569 156.72C106.493 156.72 107.267 156.834 107.891 157.062C108.515 157.29 109.091 157.638 109.619 158.106V160.122C109.331 159.75 108.983 159.426 108.575 159.15C108.167 158.862 107.711 158.64 107.207 158.484C106.715 158.328 106.169 158.25 105.569 158.25C104.741 158.25 103.973 158.46 103.265 158.88C102.557 159.3 101.981 159.882 101.537 160.626C101.105 161.358 100.889 162.216 100.889 163.2ZM111.501 165.36C111.501 164.52 111.687 163.776 112.059 163.128C112.443 162.48 112.959 161.97 113.607 161.598C114.255 161.226 114.981 161.04 115.785 161.04C116.601 161.04 117.327 161.226 117.963 161.598C118.611 161.97 119.121 162.48 119.493 163.128C119.877 163.776 120.069 164.52 120.069 165.36C120.069 166.188 119.877 166.932 119.493 167.592C119.121 168.24 118.611 168.75 117.963 169.122C117.327 169.494 116.601 169.68 115.785 169.68C114.981 169.68 114.255 169.494 113.607 169.122C112.959 168.75 112.443 168.24 112.059 167.592C111.687 166.932 111.501 166.188 111.501 165.36ZM112.959 165.36C112.959 165.936 113.079 166.446 113.319 166.89C113.571 167.334 113.907 167.688 114.327 167.952C114.759 168.204 115.245 168.33 115.785 168.33C116.325 168.33 116.805 168.204 117.225 167.952C117.657 167.688 117.993 167.334 118.233 166.89C118.485 166.446 118.611 165.936 118.611 165.36C118.611 164.784 118.485 164.274 118.233 163.83C117.993 163.374 117.657 163.02 117.225 162.768C116.805 162.516 116.325 162.39 115.785 162.39C115.245 162.39 114.759 162.516 114.327 162.768C113.907 163.02 113.571 163.374 113.319 163.83C113.079 164.274 112.959 164.784 112.959 165.36ZM123.487 166.26C123.487 166.92 123.637 167.43 123.937 167.79C124.237 168.15 124.675 168.33 125.251 168.33C125.671 168.33 126.037 168.246 126.349 168.078C126.673 167.898 126.919 167.652 127.087 167.34C127.267 167.028 127.357 166.668 127.357 166.26V161.22H128.797V169.5H127.357V168.204C127.081 168.696 126.739 169.068 126.331 169.32C125.923 169.56 125.443 169.68 124.891 169.68C124.027 169.68 123.337 169.386 122.821 168.798C122.305 168.21 122.047 167.424 122.047 166.44V161.22H123.487V166.26ZM132.944 161.22V169.5H131.504V161.22H132.944ZM135.446 162.804C135.254 162.66 135.08 162.558 134.924 162.498C134.768 162.426 134.57 162.39 134.33 162.39C133.97 162.39 133.688 162.48 133.484 162.66C133.28 162.84 133.136 163.086 133.052 163.398C132.98 163.71 132.944 164.064 132.944 164.46H132.296C132.296 163.8 132.41 163.218 132.638 162.714C132.878 162.198 133.184 161.79 133.556 161.49C133.928 161.19 134.306 161.04 134.69 161.04C134.99 161.04 135.266 161.082 135.518 161.166C135.782 161.238 136.022 161.388 136.238 161.616L135.446 162.804ZM138.016 166.962C138.184 167.214 138.376 167.448 138.592 167.664C138.808 167.88 139.054 168.054 139.33 168.186C139.618 168.306 139.93 168.366 140.266 168.366C140.674 168.366 140.992 168.276 141.22 168.096C141.46 167.904 141.58 167.646 141.58 167.322C141.58 167.034 141.484 166.794 141.292 166.602C141.112 166.398 140.878 166.23 140.59 166.098C140.302 165.954 139.996 165.822 139.672 165.702C139.312 165.558 138.946 165.39 138.574 165.198C138.214 164.994 137.908 164.736 137.656 164.424C137.416 164.1 137.296 163.698 137.296 163.218C137.296 162.726 137.422 162.318 137.674 161.994C137.938 161.67 138.274 161.43 138.682 161.274C139.102 161.118 139.534 161.04 139.978 161.04C140.422 161.04 140.836 161.112 141.22 161.256C141.616 161.4 141.964 161.592 142.264 161.832C142.564 162.072 142.798 162.348 142.966 162.66L141.814 163.398C141.586 163.086 141.298 162.828 140.95 162.624C140.614 162.42 140.23 162.318 139.798 162.318C139.498 162.318 139.24 162.384 139.024 162.516C138.808 162.648 138.7 162.852 138.7 163.128C138.7 163.344 138.784 163.536 138.952 163.704C139.12 163.872 139.336 164.022 139.6 164.154C139.864 164.286 140.14 164.412 140.428 164.532C140.908 164.724 141.346 164.934 141.742 165.162C142.138 165.378 142.45 165.642 142.678 165.954C142.918 166.266 143.038 166.668 143.038 167.16C143.038 167.88 142.774 168.48 142.246 168.96C141.73 169.44 141.046 169.68 140.194 169.68C139.642 169.68 139.144 169.584 138.7 169.392C138.256 169.188 137.878 168.93 137.566 168.618C137.266 168.306 137.038 167.988 136.882 167.664L138.016 166.962ZM148.138 169.68C147.37 169.68 146.686 169.5 146.086 169.14C145.498 168.768 145.036 168.258 144.7 167.61C144.376 166.962 144.214 166.212 144.214 165.36C144.214 164.496 144.382 163.74 144.718 163.092C145.066 162.444 145.546 161.94 146.158 161.58C146.782 161.22 147.502 161.04 148.318 161.04C149.134 161.04 149.83 161.214 150.406 161.562C150.994 161.898 151.444 162.384 151.756 163.02C152.068 163.656 152.224 164.412 152.224 165.288C152.224 165.372 152.218 165.462 152.206 165.558C152.206 165.642 152.206 165.696 152.206 165.72H145.132V164.496H151.072L150.496 165.324C150.532 165.264 150.568 165.174 150.604 165.054C150.64 164.922 150.658 164.814 150.658 164.73C150.658 164.238 150.556 163.812 150.352 163.452C150.16 163.092 149.89 162.81 149.542 162.606C149.194 162.402 148.786 162.3 148.318 162.3C147.766 162.3 147.292 162.42 146.896 162.66C146.512 162.888 146.212 163.224 145.996 163.668C145.792 164.1 145.684 164.634 145.672 165.27C145.672 165.918 145.774 166.47 145.978 166.926C146.182 167.382 146.482 167.73 146.878 167.97C147.274 168.21 147.754 168.33 148.318 168.33C148.882 168.33 149.38 168.21 149.812 167.97C150.244 167.718 150.61 167.34 150.91 166.836L152.08 167.574C151.648 168.27 151.102 168.798 150.442 169.158C149.794 169.506 149.026 169.68 148.138 169.68ZM154.54 166.962C154.708 167.214 154.9 167.448 155.116 167.664C155.332 167.88 155.578 168.054 155.854 168.186C156.142 168.306 156.454 168.366 156.79 168.366C157.198 168.366 157.516 168.276 157.744 168.096C157.984 167.904 158.104 167.646 158.104 167.322C158.104 167.034 158.008 166.794 157.816 166.602C157.636 166.398 157.402 166.23 157.114 166.098C156.826 165.954 156.52 165.822 156.196 165.702C155.836 165.558 155.47 165.39 155.098 165.198C154.738 164.994 154.432 164.736 154.18 164.424C153.94 164.1 153.82 163.698 153.82 163.218C153.82 162.726 153.946 162.318 154.198 161.994C154.462 161.67 154.798 161.43 155.206 161.274C155.626 161.118 156.058 161.04 156.502 161.04C156.946 161.04 157.36 161.112 157.744 161.256C158.14 161.4 158.488 161.592 158.788 161.832C159.088 162.072 159.322 162.348 159.49 162.66L158.338 163.398C158.11 163.086 157.822 162.828 157.474 162.624C157.138 162.42 156.754 162.318 156.322 162.318C156.022 162.318 155.764 162.384 155.548 162.516C155.332 162.648 155.224 162.852 155.224 163.128C155.224 163.344 155.308 163.536 155.476 163.704C155.644 163.872 155.86 164.022 156.124 164.154C156.388 164.286 156.664 164.412 156.952 164.532C157.432 164.724 157.87 164.934 158.266 165.162C158.662 165.378 158.974 165.642 159.202 165.954C159.442 166.266 159.562 166.668 159.562 167.16C159.562 167.88 159.298 168.48 158.77 168.96C158.254 169.44 157.57 169.68 156.718 169.68C156.166 169.68 155.668 169.584 155.224 169.392C154.78 169.188 154.402 168.93 154.09 168.618C153.79 168.306 153.562 167.988 153.406 167.664L154.54 166.962Z" fill="#555555"/>
<defs>
<clipPath id="clip0_1_1311">
<rect width="32" height="32" fill="white" transform="translate(101 57.5)"/>
</clipPath>
</defs>
</svg>
