<svg width="234" height="234" viewBox="0 0 234 234" fill="none" xmlns="http://www.w3.org/2000/svg">
<rect x="0.5" y="0.5" width="233" height="233" rx="19.5" stroke="#EAEAEA"/>
<g clip-path="url(#clip0_1_1310)">
<path d="M104.424 72.7755C102.02 70.7854 101.942 67.8634 102.916 65.9762C103.983 63.906 106.196 62.7357 108.55 63.0542C110.546 63.3245 112.635 64.8032 113.168 67.5632C113.656 63.9915 115.567 61.7948 119.273 61.5701C121.873 61.4126 124.183 63.0433 125.139 65.4283C126.062 67.7342 125.585 70.6807 123.158 72.6399C123.23 72.6808 123.293 72.72 123.359 72.7509C124.78 73.4134 125.557 74.5299 125.576 76.0951C125.608 78.7404 125.605 81.3857 125.579 84.031C125.557 86.1685 123.975 87.7073 121.844 87.7091C116.588 87.7136 111.332 87.7136 106.076 87.7091C103.927 87.7073 102.342 86.1576 102.325 84.01C102.305 81.3757 102.305 78.7422 102.327 76.1078C102.339 74.6892 102.992 73.6154 104.225 72.9002C104.29 72.8619 104.354 72.8192 104.424 72.7755ZM119.416 70.6216C121.016 70.6152 122.318 69.3112 122.313 67.7178C122.309 66.1099 120.986 64.8041 119.374 64.8168C117.784 64.8296 116.476 66.1591 116.494 67.7433C116.513 69.3485 117.811 70.6279 119.416 70.6216ZM109.948 68.4631C109.955 67.2519 108.987 66.271 107.782 66.2655C106.59 66.2601 105.591 67.2574 105.593 68.4513C105.595 69.6424 106.559 70.6116 107.753 70.6216C108.97 70.6325 109.941 69.677 109.948 68.4631ZM108.153 82.6178C107.699 82.6178 107.245 82.6114 106.791 82.6196C106.287 82.6287 105.976 82.9053 105.97 83.3367C105.964 83.7844 106.277 84.0765 106.798 84.0801C107.695 84.0874 108.592 84.0874 109.489 84.0801C109.986 84.0756 110.309 83.7853 110.318 83.363C110.327 82.9308 109.992 82.6278 109.481 82.6196C109.038 82.6123 108.595 82.6178 108.153 82.6178ZM111.503 72.4297C112.825 72.4297 114.077 72.4297 115.406 72.4297C114.175 71.3541 113.501 70.0392 113.241 68.4995C113.198 70.0319 112.613 71.3168 111.503 72.4297Z" fill="#FF782D"/>
<path d="M134.307 80.079C134.307 81.4986 134.315 82.9173 134.304 84.3368C134.293 85.75 133.27 86.7364 131.918 86.6108C131.581 86.5799 131.233 86.4425 130.934 86.2751C129.699 85.5798 128.483 84.8509 127.255 84.1439C127.086 84.0465 127.029 83.9355 127.029 83.7426C127.036 81.302 127.036 78.8606 127.029 76.42C127.029 76.228 127.083 76.1152 127.253 76.0178C128.482 75.3108 129.7 74.5873 130.93 73.8812C132.534 72.9594 134.286 73.9667 134.304 75.824C134.317 77.2408 134.307 78.6604 134.307 80.079Z" fill="#FF782D"/>
</g>
<path d="M57.88 132.5V117.74H63.98C64.4467 117.74 64.92 117.8 65.4 117.92C65.88 118.027 66.32 118.247 66.72 118.58C67.1333 118.913 67.46 119.407 67.7 120.06C67.9533 120.713 68.08 121.587 68.08 122.68C68.08 123.773 67.9533 124.653 67.7 125.32C67.4467 125.987 67.1133 126.5 66.7 126.86C66.3 127.207 65.86 127.447 65.38 127.58C64.9133 127.7 64.46 127.76 64.02 127.76C63.7933 127.76 63.5067 127.753 63.16 127.74C62.8267 127.713 62.4733 127.687 62.1 127.66C61.74 127.62 61.4 127.587 61.08 127.56C60.7733 127.52 60.5267 127.487 60.34 127.46V132.5H57.88ZM60.34 125.52H63.66C64.0467 125.52 64.3867 125.433 64.68 125.26C64.9733 125.073 65.2 124.78 65.36 124.38C65.52 123.967 65.6 123.407 65.6 122.7C65.6 122.007 65.5133 121.46 65.34 121.06C65.18 120.66 64.96 120.38 64.68 120.22C64.4133 120.047 64.1 119.96 63.74 119.96H60.34V125.52ZM70.0647 132.5V117.26H72.5447V122.9C72.9714 122.58 73.5047 122.287 74.1447 122.02C74.798 121.74 75.4647 121.6 76.1447 121.6C76.9314 121.6 77.5647 121.76 78.0447 122.08C78.538 122.4 78.8914 122.847 79.1047 123.42C79.3314 123.98 79.4447 124.62 79.4447 125.34V132.5H76.9647V125.64C76.9647 125.267 76.8914 124.947 76.7447 124.68C76.598 124.4 76.3914 124.193 76.1247 124.06C75.858 123.913 75.5447 123.84 75.1847 123.84C74.838 123.84 74.518 123.88 74.2247 123.96C73.9314 124.027 73.6447 124.127 73.3647 124.26C73.098 124.393 72.8247 124.547 72.5447 124.72V132.5H70.0647ZM86.4002 132.6C85.5602 132.6 84.8335 132.513 84.2202 132.34C83.6068 132.167 83.1068 131.873 82.7202 131.46C82.3335 131.047 82.0468 130.487 81.8602 129.78C81.6735 129.073 81.5802 128.187 81.5802 127.12C81.5802 126.013 81.6735 125.107 81.8602 124.4C82.0468 123.68 82.3335 123.12 82.7202 122.72C83.1202 122.307 83.6268 122.027 84.2402 121.88C84.8535 121.72 85.5735 121.64 86.4002 121.64C87.2535 121.64 87.9868 121.727 88.6002 121.9C89.2135 122.06 89.7135 122.34 90.1002 122.74C90.4868 123.14 90.7735 123.7 90.9602 124.42C91.1468 125.127 91.2402 126.027 91.2402 127.12C91.2402 128.2 91.1468 129.1 90.9602 129.82C90.7868 130.527 90.5068 131.087 90.1202 131.5C89.7335 131.9 89.2335 132.187 88.6202 132.36C88.0068 132.52 87.2668 132.6 86.4002 132.6ZM86.4002 130.62C86.8135 130.62 87.1668 130.587 87.4602 130.52C87.7535 130.44 87.9935 130.287 88.1802 130.06C88.3802 129.82 88.5268 129.467 88.6202 129C88.7135 128.52 88.7602 127.887 88.7602 127.1C88.7602 126.327 88.7135 125.707 88.6202 125.24C88.5268 124.773 88.3802 124.427 88.1802 124.2C87.9935 123.96 87.7535 123.807 87.4602 123.74C87.1668 123.66 86.8135 123.62 86.4002 123.62C86.0002 123.62 85.6535 123.66 85.3602 123.74C85.0668 123.807 84.8268 123.96 84.6402 124.2C84.4535 124.427 84.3068 124.773 84.2002 125.24C84.1068 125.707 84.0602 126.327 84.0602 127.1C84.0602 127.887 84.1068 128.52 84.2002 129C84.3068 129.467 84.4535 129.82 84.6402 130.06C84.8268 130.287 85.0668 130.44 85.3602 130.52C85.6535 130.587 86.0002 130.62 86.4002 130.62ZM97.3436 132.5C96.5703 132.5 95.9369 132.387 95.4436 132.16C94.9503 131.92 94.5903 131.527 94.3636 130.98C94.1503 130.433 94.0503 129.713 94.0636 128.82L94.1436 123.78H92.4636V122.18L94.2236 121.78L94.5836 118.78H96.5236V121.78H99.2436V123.78H96.5236V128.8C96.5236 129.147 96.5569 129.433 96.6236 129.66C96.6903 129.873 96.7836 130.047 96.9036 130.18C97.0369 130.3 97.1769 130.387 97.3236 130.44C97.4703 130.493 97.6236 130.527 97.7836 130.54L99.1236 130.68V132.5H97.3436ZM105.541 132.6C104.701 132.6 103.974 132.513 103.361 132.34C102.747 132.167 102.247 131.873 101.861 131.46C101.474 131.047 101.187 130.487 101.001 129.78C100.814 129.073 100.721 128.187 100.721 127.12C100.721 126.013 100.814 125.107 101.001 124.4C101.187 123.68 101.474 123.12 101.861 122.72C102.261 122.307 102.767 122.027 103.381 121.88C103.994 121.72 104.714 121.64 105.541 121.64C106.394 121.64 107.127 121.727 107.741 121.9C108.354 122.06 108.854 122.34 109.241 122.74C109.627 123.14 109.914 123.7 110.101 124.42C110.287 125.127 110.381 126.027 110.381 127.12C110.381 128.2 110.287 129.1 110.101 129.82C109.927 130.527 109.647 131.087 109.261 131.5C108.874 131.9 108.374 132.187 107.761 132.36C107.147 132.52 106.407 132.6 105.541 132.6ZM105.541 130.62C105.954 130.62 106.307 130.587 106.601 130.52C106.894 130.44 107.134 130.287 107.321 130.06C107.521 129.82 107.667 129.467 107.761 129C107.854 128.52 107.901 127.887 107.901 127.1C107.901 126.327 107.854 125.707 107.761 125.24C107.667 124.773 107.521 124.427 107.321 124.2C107.134 123.96 106.894 123.807 106.601 123.74C106.307 123.66 105.954 123.62 105.541 123.62C105.141 123.62 104.794 123.66 104.501 123.74C104.207 123.807 103.967 123.96 103.781 124.2C103.594 124.427 103.447 124.773 103.341 125.24C103.247 125.707 103.201 126.327 103.201 127.1C103.201 127.887 103.247 128.52 103.341 129C103.447 129.467 103.594 129.82 103.781 130.06C103.967 130.287 104.207 130.44 104.501 130.52C104.794 130.587 105.141 130.62 105.541 130.62ZM115.324 137.44C114.644 137.44 114.038 137.34 113.504 137.14C112.971 136.953 112.551 136.66 112.244 136.26C111.951 135.873 111.804 135.4 111.804 134.84V134.46C111.804 133.873 111.971 133.373 112.304 132.96C112.638 132.56 113.064 132.253 113.584 132.04C114.104 131.827 114.644 131.72 115.204 131.72L115.924 132.54C115.591 132.54 115.291 132.593 115.024 132.7C114.758 132.807 114.544 132.967 114.384 133.18C114.224 133.393 114.144 133.66 114.144 133.98V134.3C114.144 134.78 114.304 135.127 114.624 135.34C114.944 135.567 115.398 135.68 115.984 135.68H118.164C118.778 135.68 119.258 135.56 119.604 135.32C119.964 135.093 120.144 134.74 120.144 134.26V133.92C120.144 133.627 120.084 133.38 119.964 133.18C119.844 132.98 119.651 132.82 119.384 132.7C119.118 132.593 118.758 132.54 118.304 132.54H115.624C114.558 132.54 113.751 132.333 113.204 131.92C112.671 131.507 112.404 130.987 112.404 130.36C112.404 129.827 112.558 129.387 112.864 129.04C113.184 128.693 113.624 128.46 114.184 128.34C113.731 128.127 113.371 127.853 113.104 127.52C112.851 127.187 112.671 126.827 112.564 126.44C112.458 126.053 112.404 125.66 112.404 125.26C112.404 124.447 112.571 123.787 112.904 123.28C113.238 122.76 113.724 122.38 114.364 122.14C115.004 121.887 115.798 121.76 116.744 121.76H122.524V123.14L120.624 123.4C120.758 123.533 120.898 123.693 121.044 123.88C121.204 124.067 121.338 124.313 121.444 124.62C121.551 124.927 121.604 125.327 121.604 125.82C121.604 126.42 121.478 126.967 121.224 127.46C120.984 127.953 120.584 128.347 120.024 128.64C119.464 128.933 118.711 129.08 117.764 129.08H115.944C115.518 129.08 115.171 129.147 114.904 129.28C114.638 129.413 114.504 129.64 114.504 129.96C114.504 130.227 114.611 130.413 114.824 130.52C115.038 130.627 115.264 130.68 115.504 130.68H118.684C119.498 130.68 120.184 130.787 120.744 131C121.318 131.213 121.751 131.547 122.044 132C122.338 132.453 122.484 133.053 122.484 133.8V134.14C122.484 135.167 122.151 135.973 121.484 136.56C120.831 137.147 119.824 137.44 118.464 137.44H115.324ZM116.344 127.22H117.504C117.998 127.22 118.378 127.147 118.644 127C118.924 126.84 119.111 126.633 119.204 126.38C119.311 126.113 119.364 125.82 119.364 125.5C119.364 125.047 119.291 124.687 119.144 124.42C119.011 124.14 118.811 123.94 118.544 123.82C118.291 123.7 117.978 123.64 117.604 123.64H116.484C115.884 123.64 115.424 123.773 115.104 124.04C114.798 124.307 114.644 124.76 114.644 125.4C114.644 126.04 114.791 126.507 115.084 126.8C115.378 127.08 115.798 127.22 116.344 127.22ZM124.186 132.5V121.78H126.106L126.666 123.5C127.092 122.98 127.566 122.54 128.086 122.18C128.606 121.82 129.226 121.64 129.946 121.64C130.092 121.64 130.246 121.653 130.406 121.68C130.566 121.693 130.712 121.72 130.846 121.76V124.28C130.659 124.253 130.459 124.233 130.246 124.22C130.032 124.207 129.826 124.2 129.626 124.2C129.212 124.2 128.832 124.247 128.486 124.34C128.152 124.433 127.839 124.58 127.546 124.78C127.252 124.967 126.959 125.207 126.666 125.5V132.5H124.186ZM134.394 132.62C133.594 132.62 132.941 132.38 132.434 131.9C131.927 131.42 131.674 130.76 131.674 129.92V129.02C131.674 128.193 131.954 127.52 132.514 127C133.087 126.48 133.961 126.22 135.134 126.22H138.194V125.28C138.194 124.907 138.127 124.593 137.994 124.34C137.861 124.087 137.621 123.9 137.274 123.78C136.927 123.647 136.401 123.58 135.694 123.58H132.454V122.14C132.947 122.007 133.527 121.893 134.194 121.8C134.861 121.693 135.654 121.64 136.574 121.64C137.454 121.627 138.201 121.733 138.814 121.96C139.427 122.173 139.887 122.533 140.194 123.04C140.514 123.547 140.674 124.24 140.674 125.12V132.5H138.734L138.314 131.34C138.221 131.42 138.054 131.527 137.814 131.66C137.574 131.793 137.274 131.94 136.914 132.1C136.554 132.247 136.154 132.373 135.714 132.48C135.287 132.573 134.847 132.62 134.394 132.62ZM135.594 130.88C135.767 130.88 135.961 130.86 136.174 130.82C136.401 130.767 136.627 130.713 136.854 130.66C137.081 130.593 137.287 130.533 137.474 130.48C137.674 130.413 137.834 130.353 137.954 130.3C138.087 130.247 138.167 130.213 138.194 130.2V127.4L135.874 127.52C135.261 127.573 134.814 127.733 134.534 128C134.267 128.267 134.134 128.62 134.134 129.06V129.5C134.134 129.833 134.201 130.107 134.334 130.32C134.481 130.52 134.661 130.66 134.874 130.74C135.101 130.82 135.341 130.867 135.594 130.88ZM143.131 137.24V121.78H145.191L145.611 122.84C145.864 122.64 146.158 122.447 146.491 122.26C146.824 122.073 147.184 121.927 147.571 121.82C147.958 121.7 148.358 121.64 148.771 121.64C149.451 121.64 150.031 121.773 150.511 122.04C151.004 122.307 151.404 122.687 151.711 123.18C152.018 123.66 152.238 124.24 152.371 124.92C152.518 125.587 152.591 126.327 152.591 127.14C152.591 128.313 152.464 129.313 152.211 130.14C151.971 130.953 151.571 131.573 151.011 132C150.464 132.427 149.718 132.64 148.771 132.64C148.238 132.64 147.691 132.567 147.131 132.42C146.584 132.273 146.078 132.08 145.611 131.84V137.24H143.131ZM147.991 130.6C148.378 130.6 148.731 130.5 149.051 130.3C149.371 130.087 149.624 129.733 149.811 129.24C150.011 128.747 150.111 128.047 150.111 127.14C150.111 126.273 150.018 125.58 149.831 125.06C149.644 124.54 149.391 124.173 149.071 123.96C148.764 123.747 148.411 123.64 148.011 123.64C147.518 123.64 147.071 123.72 146.671 123.88C146.271 124.027 145.918 124.18 145.611 124.34V129.94C145.958 130.14 146.338 130.3 146.751 130.42C147.164 130.54 147.578 130.6 147.991 130.6ZM154.791 132.5V117.26H157.271V122.9C157.698 122.58 158.231 122.287 158.871 122.02C159.525 121.74 160.191 121.6 160.871 121.6C161.658 121.6 162.291 121.76 162.771 122.08C163.265 122.4 163.618 122.847 163.831 123.42C164.058 123.98 164.171 124.62 164.171 125.34V132.5H161.691V125.64C161.691 125.267 161.618 124.947 161.471 124.68C161.325 124.4 161.118 124.193 160.851 124.06C160.585 123.913 160.271 123.84 159.911 123.84C159.565 123.84 159.245 123.88 158.951 123.96C158.658 124.027 158.371 124.127 158.091 124.26C157.825 124.393 157.551 124.547 157.271 124.72V132.5H154.791ZM169.847 137.24L171.087 132.5C170.567 132.5 170.093 132.4 169.667 132.2C169.253 132 168.9 131.7 168.607 131.3C168.313 130.9 168.073 130.387 167.887 129.76L165.687 121.78H168.247L170.187 129.26C170.28 129.567 170.393 129.8 170.527 129.96C170.66 130.12 170.793 130.24 170.927 130.32C171.06 130.387 171.18 130.427 171.287 130.44C171.407 130.453 171.487 130.46 171.527 130.46L173.747 121.78H176.267L172.827 135.26L171.867 137.24H169.847Z" fill="black"/>
<path d="M78.054 163.29V162.3C78.462 162.3 78.822 162.246 79.134 162.138C79.446 162.018 79.71 161.862 79.926 161.67C80.142 161.466 80.304 161.232 80.412 160.968C80.532 160.704 80.592 160.422 80.592 160.122C80.592 159.726 80.52 159.378 80.376 159.078C80.232 158.766 80.016 158.526 79.728 158.358C79.452 158.19 79.104 158.106 78.684 158.106C78.096 158.106 77.598 158.292 77.19 158.664C76.782 159.024 76.578 159.48 76.578 160.032H75.12C75.12 159.372 75.27 158.796 75.57 158.304C75.882 157.812 76.302 157.428 76.83 157.152C77.37 156.864 77.982 156.72 78.666 156.72C79.386 156.72 80.004 156.876 80.52 157.188C81.048 157.5 81.45 157.908 81.726 158.412C82.014 158.916 82.158 159.468 82.158 160.068C82.158 160.656 81.984 161.196 81.636 161.688C81.288 162.18 80.808 162.57 80.196 162.858C79.584 163.146 78.87 163.29 78.054 163.29ZM78.594 169.68C77.982 169.68 77.43 169.59 76.938 169.41C76.446 169.23 76.026 168.984 75.678 168.672C75.33 168.348 75.06 167.976 74.868 167.556C74.676 167.124 74.58 166.662 74.58 166.17H76.128C76.128 166.566 76.23 166.92 76.434 167.232C76.65 167.544 76.944 167.79 77.316 167.97C77.688 168.15 78.114 168.24 78.594 168.24C79.074 168.24 79.488 168.15 79.836 167.97C80.196 167.778 80.472 167.514 80.664 167.178C80.856 166.842 80.952 166.446 80.952 165.99C80.952 165.606 80.874 165.27 80.718 164.982C80.574 164.682 80.37 164.436 80.106 164.244C79.842 164.04 79.536 163.89 79.188 163.794C78.84 163.698 78.462 163.65 78.054 163.65V162.66C78.666 162.66 79.236 162.726 79.764 162.858C80.304 162.99 80.778 163.2 81.186 163.488C81.606 163.764 81.93 164.124 82.158 164.568C82.398 165.012 82.518 165.546 82.518 166.17C82.518 166.878 82.344 167.496 81.996 168.024C81.66 168.552 81.198 168.96 80.61 169.248C80.022 169.536 79.35 169.68 78.594 169.68ZM84.7662 159.942C84.7662 159.342 84.9162 158.802 85.2162 158.322C85.5282 157.83 85.9422 157.44 86.4582 157.152C86.9862 156.864 87.5802 156.72 88.2402 156.72C88.9002 156.72 89.4882 156.864 90.0042 157.152C90.5322 157.44 90.9462 157.83 91.2462 158.322C91.5582 158.802 91.7142 159.342 91.7142 159.942C91.7142 160.434 91.6302 160.878 91.4622 161.274C91.2942 161.658 91.0542 161.988 90.7422 162.264C90.4422 162.54 90.0762 162.75 89.6442 162.894C89.2242 163.038 88.7562 163.11 88.2402 163.11C87.7242 163.11 87.2502 163.038 86.8182 162.894C86.3982 162.75 86.0322 162.54 85.7202 162.264C85.4202 161.988 85.1862 161.658 85.0182 161.274C84.8502 160.878 84.7662 160.434 84.7662 159.942ZM86.2242 160.122C86.2242 160.518 86.3142 160.866 86.4942 161.166C86.6862 161.466 86.9322 161.7 87.2322 161.868C87.5442 162.036 87.8802 162.12 88.2402 162.12C88.6002 162.12 88.9302 162.036 89.2302 161.868C89.5422 161.7 89.7882 161.466 89.9682 161.166C90.1602 160.866 90.2562 160.518 90.2562 160.122C90.2562 159.726 90.1662 159.372 89.9862 159.06C89.8182 158.748 89.5842 158.508 89.2842 158.34C88.9842 158.16 88.6362 158.07 88.2402 158.07C87.8562 158.07 87.5082 158.16 87.1962 158.34C86.8962 158.508 86.6562 158.748 86.4762 159.06C86.3082 159.372 86.2242 159.726 86.2242 160.122ZM84.3162 166.08C84.3162 165.504 84.4182 164.994 84.6222 164.55C84.8382 164.094 85.1262 163.716 85.4862 163.416C85.8582 163.104 86.2782 162.87 86.7462 162.714C87.2262 162.558 87.7242 162.48 88.2402 162.48C88.7562 162.48 89.2482 162.558 89.7162 162.714C90.1962 162.87 90.6162 163.104 90.9762 163.416C91.3482 163.716 91.6362 164.094 91.8402 164.55C92.0562 164.994 92.1642 165.504 92.1642 166.08C92.1642 166.572 92.0622 167.034 91.8582 167.466C91.6662 167.898 91.3902 168.282 91.0302 168.618C90.6822 168.954 90.2682 169.218 89.7882 169.41C89.3202 169.59 88.8042 169.68 88.2402 169.68C87.6762 169.68 87.1542 169.59 86.6742 169.41C86.2062 169.218 85.7922 168.954 85.4322 168.618C85.0842 168.282 84.8082 167.898 84.6042 167.466C84.4122 167.034 84.3162 166.572 84.3162 166.08ZM85.7742 165.9C85.7742 166.416 85.8882 166.854 86.1162 167.214C86.3562 167.574 86.6622 167.85 87.0342 168.042C87.4182 168.234 87.8202 168.33 88.2402 168.33C88.6602 168.33 89.0562 168.234 89.4282 168.042C89.8122 167.85 90.1182 167.574 90.3462 167.214C90.5862 166.854 90.7062 166.416 90.7062 165.9C90.7062 165.444 90.5862 165.036 90.3462 164.676C90.1182 164.304 89.8122 164.01 89.4282 163.794C89.0562 163.578 88.6602 163.47 88.2402 163.47C87.8202 163.47 87.4182 163.578 87.0342 163.794C86.6622 164.01 86.3562 164.304 86.1162 164.676C85.8882 165.036 85.7742 165.444 85.7742 165.9ZM100.889 163.2C100.889 164.172 101.105 165.03 101.537 165.774C101.981 166.518 102.557 167.1 103.265 167.52C103.973 167.94 104.741 168.15 105.569 168.15C106.169 168.15 106.715 168.072 107.207 167.916C107.711 167.76 108.167 167.544 108.575 167.268C108.983 166.98 109.331 166.65 109.619 166.278V168.294C109.091 168.762 108.515 169.11 107.891 169.338C107.267 169.566 106.493 169.68 105.569 169.68C104.693 169.68 103.871 169.524 103.103 169.212C102.347 168.888 101.681 168.438 101.105 167.862C100.529 167.274 100.079 166.584 99.7548 165.792C99.4308 165 99.2688 164.136 99.2688 163.2C99.2688 162.264 99.4308 161.4 99.7548 160.608C100.079 159.816 100.529 159.132 101.105 158.556C101.681 157.968 102.347 157.518 103.103 157.206C103.871 156.882 104.693 156.72 105.569 156.72C106.493 156.72 107.267 156.834 107.891 157.062C108.515 157.29 109.091 157.638 109.619 158.106V160.122C109.331 159.75 108.983 159.426 108.575 159.15C108.167 158.862 107.711 158.64 107.207 158.484C106.715 158.328 106.169 158.25 105.569 158.25C104.741 158.25 103.973 158.46 103.265 158.88C102.557 159.3 101.981 159.882 101.537 160.626C101.105 161.358 100.889 162.216 100.889 163.2ZM111.501 165.36C111.501 164.52 111.687 163.776 112.059 163.128C112.443 162.48 112.959 161.97 113.607 161.598C114.255 161.226 114.981 161.04 115.785 161.04C116.601 161.04 117.327 161.226 117.963 161.598C118.611 161.97 119.121 162.48 119.493 163.128C119.877 163.776 120.069 164.52 120.069 165.36C120.069 166.188 119.877 166.932 119.493 167.592C119.121 168.24 118.611 168.75 117.963 169.122C117.327 169.494 116.601 169.68 115.785 169.68C114.981 169.68 114.255 169.494 113.607 169.122C112.959 168.75 112.443 168.24 112.059 167.592C111.687 166.932 111.501 166.188 111.501 165.36ZM112.959 165.36C112.959 165.936 113.079 166.446 113.319 166.89C113.571 167.334 113.907 167.688 114.327 167.952C114.759 168.204 115.245 168.33 115.785 168.33C116.325 168.33 116.805 168.204 117.225 167.952C117.657 167.688 117.993 167.334 118.233 166.89C118.485 166.446 118.611 165.936 118.611 165.36C118.611 164.784 118.485 164.274 118.233 163.83C117.993 163.374 117.657 163.02 117.225 162.768C116.805 162.516 116.325 162.39 115.785 162.39C115.245 162.39 114.759 162.516 114.327 162.768C113.907 163.02 113.571 163.374 113.319 163.83C113.079 164.274 112.959 164.784 112.959 165.36ZM123.487 166.26C123.487 166.92 123.637 167.43 123.937 167.79C124.237 168.15 124.675 168.33 125.251 168.33C125.671 168.33 126.037 168.246 126.349 168.078C126.673 167.898 126.919 167.652 127.087 167.34C127.267 167.028 127.357 166.668 127.357 166.26V161.22H128.797V169.5H127.357V168.204C127.081 168.696 126.739 169.068 126.331 169.32C125.923 169.56 125.443 169.68 124.891 169.68C124.027 169.68 123.337 169.386 122.821 168.798C122.305 168.21 122.047 167.424 122.047 166.44V161.22H123.487V166.26ZM132.944 161.22V169.5H131.504V161.22H132.944ZM135.446 162.804C135.254 162.66 135.08 162.558 134.924 162.498C134.768 162.426 134.57 162.39 134.33 162.39C133.97 162.39 133.688 162.48 133.484 162.66C133.28 162.84 133.136 163.086 133.052 163.398C132.98 163.71 132.944 164.064 132.944 164.46H132.296C132.296 163.8 132.41 163.218 132.638 162.714C132.878 162.198 133.184 161.79 133.556 161.49C133.928 161.19 134.306 161.04 134.69 161.04C134.99 161.04 135.266 161.082 135.518 161.166C135.782 161.238 136.022 161.388 136.238 161.616L135.446 162.804ZM138.016 166.962C138.184 167.214 138.376 167.448 138.592 167.664C138.808 167.88 139.054 168.054 139.33 168.186C139.618 168.306 139.93 168.366 140.266 168.366C140.674 168.366 140.992 168.276 141.22 168.096C141.46 167.904 141.58 167.646 141.58 167.322C141.58 167.034 141.484 166.794 141.292 166.602C141.112 166.398 140.878 166.23 140.59 166.098C140.302 165.954 139.996 165.822 139.672 165.702C139.312 165.558 138.946 165.39 138.574 165.198C138.214 164.994 137.908 164.736 137.656 164.424C137.416 164.1 137.296 163.698 137.296 163.218C137.296 162.726 137.422 162.318 137.674 161.994C137.938 161.67 138.274 161.43 138.682 161.274C139.102 161.118 139.534 161.04 139.978 161.04C140.422 161.04 140.836 161.112 141.22 161.256C141.616 161.4 141.964 161.592 142.264 161.832C142.564 162.072 142.798 162.348 142.966 162.66L141.814 163.398C141.586 163.086 141.298 162.828 140.95 162.624C140.614 162.42 140.23 162.318 139.798 162.318C139.498 162.318 139.24 162.384 139.024 162.516C138.808 162.648 138.7 162.852 138.7 163.128C138.7 163.344 138.784 163.536 138.952 163.704C139.12 163.872 139.336 164.022 139.6 164.154C139.864 164.286 140.14 164.412 140.428 164.532C140.908 164.724 141.346 164.934 141.742 165.162C142.138 165.378 142.45 165.642 142.678 165.954C142.918 166.266 143.038 166.668 143.038 167.16C143.038 167.88 142.774 168.48 142.246 168.96C141.73 169.44 141.046 169.68 140.194 169.68C139.642 169.68 139.144 169.584 138.7 169.392C138.256 169.188 137.878 168.93 137.566 168.618C137.266 168.306 137.038 167.988 136.882 167.664L138.016 166.962ZM148.138 169.68C147.37 169.68 146.686 169.5 146.086 169.14C145.498 168.768 145.036 168.258 144.7 167.61C144.376 166.962 144.214 166.212 144.214 165.36C144.214 164.496 144.382 163.74 144.718 163.092C145.066 162.444 145.546 161.94 146.158 161.58C146.782 161.22 147.502 161.04 148.318 161.04C149.134 161.04 149.83 161.214 150.406 161.562C150.994 161.898 151.444 162.384 151.756 163.02C152.068 163.656 152.224 164.412 152.224 165.288C152.224 165.372 152.218 165.462 152.206 165.558C152.206 165.642 152.206 165.696 152.206 165.72H145.132V164.496H151.072L150.496 165.324C150.532 165.264 150.568 165.174 150.604 165.054C150.64 164.922 150.658 164.814 150.658 164.73C150.658 164.238 150.556 163.812 150.352 163.452C150.16 163.092 149.89 162.81 149.542 162.606C149.194 162.402 148.786 162.3 148.318 162.3C147.766 162.3 147.292 162.42 146.896 162.66C146.512 162.888 146.212 163.224 145.996 163.668C145.792 164.1 145.684 164.634 145.672 165.27C145.672 165.918 145.774 166.47 145.978 166.926C146.182 167.382 146.482 167.73 146.878 167.97C147.274 168.21 147.754 168.33 148.318 168.33C148.882 168.33 149.38 168.21 149.812 167.97C150.244 167.718 150.61 167.34 150.91 166.836L152.08 167.574C151.648 168.27 151.102 168.798 150.442 169.158C149.794 169.506 149.026 169.68 148.138 169.68ZM154.54 166.962C154.708 167.214 154.9 167.448 155.116 167.664C155.332 167.88 155.578 168.054 155.854 168.186C156.142 168.306 156.454 168.366 156.79 168.366C157.198 168.366 157.516 168.276 157.744 168.096C157.984 167.904 158.104 167.646 158.104 167.322C158.104 167.034 158.008 166.794 157.816 166.602C157.636 166.398 157.402 166.23 157.114 166.098C156.826 165.954 156.52 165.822 156.196 165.702C155.836 165.558 155.47 165.39 155.098 165.198C154.738 164.994 154.432 164.736 154.18 164.424C153.94 164.1 153.82 163.698 153.82 163.218C153.82 162.726 153.946 162.318 154.198 161.994C154.462 161.67 154.798 161.43 155.206 161.274C155.626 161.118 156.058 161.04 156.502 161.04C156.946 161.04 157.36 161.112 157.744 161.256C158.14 161.4 158.488 161.592 158.788 161.832C159.088 162.072 159.322 162.348 159.49 162.66L158.338 163.398C158.11 163.086 157.822 162.828 157.474 162.624C157.138 162.42 156.754 162.318 156.322 162.318C156.022 162.318 155.764 162.384 155.548 162.516C155.332 162.648 155.224 162.852 155.224 163.128C155.224 163.344 155.308 163.536 155.476 163.704C155.644 163.872 155.86 164.022 156.124 164.154C156.388 164.286 156.664 164.412 156.952 164.532C157.432 164.724 157.87 164.934 158.266 165.162C158.662 165.378 158.974 165.642 159.202 165.954C159.442 166.266 159.562 166.668 159.562 167.16C159.562 167.88 159.298 168.48 158.77 168.96C158.254 169.44 157.57 169.68 156.718 169.68C156.166 169.68 155.668 169.584 155.224 169.392C154.78 169.188 154.402 168.93 154.09 168.618C153.79 168.306 153.562 167.988 153.406 167.664L154.54 166.962Z" fill="#555555"/>
<defs>
<clipPath id="clip0_1_1310">
<rect width="32" height="32" fill="white" transform="translate(101 57.5)"/>
</clipPath>
</defs>
</svg>
