<svg width="234" height="234" viewBox="0 0 234 234" fill="none" xmlns="http://www.w3.org/2000/svg">
<rect x="0.5" y="0.5" width="233" height="233" rx="19.5" stroke="#EAEAEA"/>
<g clip-path="url(#clip0_1_1314)">
<path d="M132.924 78.8442C132.767 80.1367 131.865 81.135 130.597 81.4183C128.87 81.805 127.142 80.4892 127.071 78.7183C127.061 78.48 126.982 78.3817 126.766 78.3C125.223 77.7175 123.686 77.12 122.118 76.5158C121.615 77.345 120.968 78.035 120.137 78.5617C120.167 78.6517 120.188 78.73 120.22 78.8042C120.862 80.3242 121.507 81.8425 122.146 83.3633C122.215 83.5275 122.28 83.6267 122.497 83.6292C124.021 83.65 125.267 84.7733 125.398 86.225C125.541 87.8017 124.576 89.1142 123.033 89.4433C122.986 89.4542 122.941 89.4808 122.895 89.5H122.022C121.966 89.4783 121.911 89.4492 121.853 89.4367C120.317 89.09 119.332 87.6283 119.577 86.0667C119.685 85.3808 120.024 84.825 120.526 84.35C119.835 82.7167 119.151 81.0917 118.452 79.4725C118.423 79.405 118.254 79.3458 118.165 79.3625C117.252 79.5317 116.336 79.5533 115.452 79.2667C114.768 79.0458 114.118 78.7233 113.45 78.445C112.357 79.5392 111.22 80.6767 110.075 81.8217C110.104 81.8717 110.146 81.9425 110.188 82.0133C111.757 84.6142 110.582 88.0675 107.744 89.1617C107.342 89.3167 106.908 89.3892 106.489 89.5H105.429C105.37 89.4817 105.312 89.4575 105.252 89.4467C103.135 89.0708 101.777 87.8425 101.16 85.79C101.095 85.575 101.052 85.3525 101 85.1333V84.0108C101.107 83.6 101.177 83.1758 101.327 82.7817C102.412 79.9142 105.896 78.7317 108.515 80.3292C108.577 80.3667 108.64 80.4017 108.68 80.425C109.827 79.2792 110.964 78.1425 112.123 76.9842C111.463 76.0308 111.072 74.955 111.029 73.7608C110.987 72.5775 111.273 71.4783 111.886 70.4433C111.003 69.6933 110.135 68.955 109.272 68.2217C107.166 69.6242 104.952 68.8133 103.886 67.5025C102.675 66.0142 102.712 63.8625 103.974 62.43C105.262 60.9667 107.375 60.6425 109.012 61.65C110.482 62.5533 111.49 64.6108 110.485 66.7833C110.912 67.1475 111.346 67.5175 111.779 67.8858C112.214 68.2558 112.648 68.6242 113.081 68.9917C115.472 67.2142 117.914 67.1108 120.468 68.6842C120.52 68.6367 120.597 68.5717 120.667 68.5017C122.248 66.9217 123.826 65.3392 125.413 63.765C125.573 63.6058 125.582 63.4967 125.483 63.2908C124.753 61.7667 124.904 60.305 125.966 59.0033C127.017 57.7133 128.428 57.2742 130.023 57.7125C131.627 58.1533 132.616 59.2575 132.877 60.9125C133.125 62.4767 132.575 63.7742 131.291 64.6942C130.012 65.6108 128.622 65.7033 127.196 65.0158C127.052 64.9475 126.95 64.8708 126.792 65.03C125.168 66.6692 123.533 68.2975 121.902 69.93C121.867 69.9658 121.84 70.0092 121.802 70.06C122.793 71.4833 123.108 73.05 122.795 74.7633C123.323 74.9658 123.836 75.1608 124.347 75.3583C125.402 75.765 126.458 76.1692 127.511 76.5833C127.67 76.6458 127.76 76.6267 127.883 76.5017C128.82 75.5533 130.109 75.3342 131.288 75.9075C132.41 76.4525 133.07 77.6383 132.924 78.8442Z" fill="#FF782D"/>
</g>
<path d="M87.74 132.62C87.38 132.62 86.9933 132.607 86.58 132.58C86.18 132.567 85.7667 132.54 85.34 132.5C84.9267 132.447 84.5333 132.4 84.16 132.36C83.7867 132.307 83.4533 132.247 83.16 132.18V130.24C83.5333 130.267 83.9667 130.293 84.46 130.32C84.9667 130.347 85.4933 130.367 86.04 130.38C86.5867 130.393 87.1133 130.4 87.62 130.4C88.1533 130.4 88.6267 130.353 89.04 130.26C89.4533 130.153 89.7733 129.973 90 129.72C90.2267 129.467 90.34 129.107 90.34 128.64V127.94C90.34 127.42 90.1933 127.02 89.9 126.74C89.6067 126.46 89.1733 126.32 88.6 126.32H87.22C85.8733 126.32 84.8333 126.027 84.1 125.44C83.38 124.853 83.02 123.847 83.02 122.42V121.66C83.02 120.233 83.4133 119.207 84.2 118.58C85 117.94 86.14 117.62 87.62 117.62C88.1267 117.62 88.6467 117.647 89.18 117.7C89.7267 117.74 90.2467 117.793 90.74 117.86C91.2333 117.927 91.6533 118 92 118.08V120.02C91.4133 119.98 90.74 119.94 89.98 119.9C89.2333 119.86 88.54 119.84 87.9 119.84C87.3933 119.84 86.9467 119.893 86.56 120C86.1733 120.107 85.88 120.3 85.68 120.58C85.48 120.847 85.38 121.247 85.38 121.78V122.26C85.38 122.887 85.5467 123.327 85.88 123.58C86.2267 123.833 86.72 123.96 87.36 123.96H88.9C89.7667 123.96 90.48 124.12 91.04 124.44C91.6 124.76 92.0133 125.2 92.28 125.76C92.56 126.307 92.7 126.933 92.7 127.64V128.58C92.7 129.673 92.4867 130.513 92.06 131.1C91.6333 131.687 91.0467 132.087 90.3 132.3C89.5533 132.513 88.7 132.62 87.74 132.62ZM99.0592 132.62C98.4192 132.62 97.8259 132.54 97.2792 132.38C96.7459 132.207 96.2792 131.92 95.8792 131.52C95.4792 131.107 95.1659 130.547 94.9392 129.84C94.7259 129.133 94.6192 128.247 94.6192 127.18C94.6192 126.087 94.7192 125.18 94.9192 124.46C95.1326 123.74 95.4326 123.173 95.8192 122.76C96.2059 122.347 96.6726 122.06 97.2192 121.9C97.7792 121.727 98.4126 121.64 99.1192 121.64C99.7192 121.64 100.326 121.673 100.939 121.74C101.553 121.793 102.166 121.9 102.779 122.06V123.48H99.8592C99.2192 123.48 98.6992 123.58 98.2992 123.78C97.8992 123.98 97.5992 124.347 97.3992 124.88C97.1992 125.413 97.0992 126.18 97.0992 127.18C97.0992 128.167 97.1992 128.92 97.3992 129.44C97.5992 129.947 97.8992 130.293 98.2992 130.48C98.7126 130.653 99.2392 130.74 99.8792 130.74H102.939V132.14C102.619 132.233 102.246 132.32 101.819 132.4C101.393 132.467 100.939 132.52 100.459 132.56C99.9926 132.6 99.5259 132.62 99.0592 132.62ZM105.084 120.08C104.831 120.08 104.704 119.96 104.704 119.72V117.9C104.704 117.633 104.831 117.5 105.084 117.5H106.964C107.084 117.5 107.171 117.54 107.224 117.62C107.291 117.7 107.324 117.793 107.324 117.9V119.72C107.324 119.96 107.204 120.08 106.964 120.08H105.084ZM104.764 132.5V121.78H107.244V132.5H104.764ZM114.163 132.6C113.003 132.6 112.077 132.44 111.383 132.12C110.703 131.8 110.21 131.247 109.903 130.46C109.597 129.66 109.443 128.553 109.443 127.14C109.443 125.7 109.59 124.587 109.883 123.8C110.177 123 110.663 122.44 111.343 122.12C112.023 121.8 112.943 121.64 114.103 121.64C115.13 121.64 115.95 121.747 116.563 121.96C117.19 122.16 117.643 122.527 117.923 123.06C118.217 123.58 118.363 124.32 118.363 125.28C118.363 125.96 118.23 126.507 117.963 126.92C117.697 127.32 117.31 127.607 116.803 127.78C116.31 127.953 115.723 128.04 115.043 128.04H111.903C111.93 128.707 112.017 129.24 112.163 129.64C112.323 130.027 112.603 130.307 113.003 130.48C113.417 130.653 114.017 130.74 114.803 130.74H118.043V132.2C117.497 132.307 116.917 132.4 116.303 132.48C115.703 132.56 114.99 132.6 114.163 132.6ZM111.883 126.54H114.803C115.27 126.54 115.61 126.453 115.823 126.28C116.05 126.093 116.163 125.76 116.163 125.28C116.163 124.813 116.097 124.447 115.963 124.18C115.83 123.913 115.61 123.727 115.303 123.62C114.997 123.5 114.597 123.44 114.103 123.44C113.543 123.44 113.103 123.527 112.783 123.7C112.463 123.873 112.23 124.187 112.083 124.64C111.95 125.08 111.883 125.713 111.883 126.54ZM120.565 132.5V121.78H122.585L123.045 122.9C123.485 122.567 124.018 122.267 124.645 122C125.285 121.733 125.945 121.6 126.625 121.6C127.465 121.6 128.125 121.773 128.605 122.12C129.085 122.453 129.425 122.907 129.625 123.48C129.838 124.053 129.945 124.68 129.945 125.36V132.5H127.465V125.66C127.465 125.273 127.391 124.947 127.245 124.68C127.098 124.413 126.891 124.207 126.625 124.06C126.371 123.913 126.058 123.84 125.685 123.84C125.338 123.84 125.011 123.873 124.705 123.94C124.411 124.007 124.131 124.107 123.865 124.24C123.598 124.373 123.325 124.533 123.045 124.72V132.5H120.565ZM136.52 132.62C135.88 132.62 135.287 132.54 134.74 132.38C134.207 132.207 133.74 131.92 133.34 131.52C132.94 131.107 132.627 130.547 132.4 129.84C132.187 129.133 132.08 128.247 132.08 127.18C132.08 126.087 132.18 125.18 132.38 124.46C132.593 123.74 132.893 123.173 133.28 122.76C133.667 122.347 134.133 122.06 134.68 121.9C135.24 121.727 135.873 121.64 136.58 121.64C137.18 121.64 137.787 121.673 138.4 121.74C139.013 121.793 139.627 121.9 140.24 122.06V123.48H137.32C136.68 123.48 136.16 123.58 135.76 123.78C135.36 123.98 135.06 124.347 134.86 124.88C134.66 125.413 134.56 126.18 134.56 127.18C134.56 128.167 134.66 128.92 134.86 129.44C135.06 129.947 135.36 130.293 135.76 130.48C136.173 130.653 136.7 130.74 137.34 130.74H140.4V132.14C140.08 132.233 139.707 132.32 139.28 132.4C138.853 132.467 138.4 132.52 137.92 132.56C137.453 132.6 136.987 132.62 136.52 132.62ZM146.605 132.6C145.445 132.6 144.518 132.44 143.825 132.12C143.145 131.8 142.652 131.247 142.345 130.46C142.038 129.66 141.885 128.553 141.885 127.14C141.885 125.7 142.032 124.587 142.325 123.8C142.618 123 143.105 122.44 143.785 122.12C144.465 121.8 145.385 121.64 146.545 121.64C147.572 121.64 148.392 121.747 149.005 121.96C149.632 122.16 150.085 122.527 150.365 123.06C150.658 123.58 150.805 124.32 150.805 125.28C150.805 125.96 150.672 126.507 150.405 126.92C150.138 127.32 149.752 127.607 149.245 127.78C148.752 127.953 148.165 128.04 147.485 128.04H144.345C144.372 128.707 144.458 129.24 144.605 129.64C144.765 130.027 145.045 130.307 145.445 130.48C145.858 130.653 146.458 130.74 147.245 130.74H150.485V132.2C149.938 132.307 149.358 132.4 148.745 132.48C148.145 132.56 147.432 132.6 146.605 132.6ZM144.325 126.54H147.245C147.712 126.54 148.052 126.453 148.265 126.28C148.492 126.093 148.605 125.76 148.605 125.28C148.605 124.813 148.538 124.447 148.405 124.18C148.272 123.913 148.052 123.727 147.745 123.62C147.438 123.5 147.038 123.44 146.545 123.44C145.985 123.44 145.545 123.527 145.225 123.7C144.905 123.873 144.672 124.187 144.525 124.64C144.392 125.08 144.325 125.713 144.325 126.54Z" fill="black"/>
<path d="M78.054 163.29V162.3C78.462 162.3 78.822 162.246 79.134 162.138C79.446 162.018 79.71 161.862 79.926 161.67C80.142 161.466 80.304 161.232 80.412 160.968C80.532 160.704 80.592 160.422 80.592 160.122C80.592 159.726 80.52 159.378 80.376 159.078C80.232 158.766 80.016 158.526 79.728 158.358C79.452 158.19 79.104 158.106 78.684 158.106C78.096 158.106 77.598 158.292 77.19 158.664C76.782 159.024 76.578 159.48 76.578 160.032H75.12C75.12 159.372 75.27 158.796 75.57 158.304C75.882 157.812 76.302 157.428 76.83 157.152C77.37 156.864 77.982 156.72 78.666 156.72C79.386 156.72 80.004 156.876 80.52 157.188C81.048 157.5 81.45 157.908 81.726 158.412C82.014 158.916 82.158 159.468 82.158 160.068C82.158 160.656 81.984 161.196 81.636 161.688C81.288 162.18 80.808 162.57 80.196 162.858C79.584 163.146 78.87 163.29 78.054 163.29ZM78.594 169.68C77.982 169.68 77.43 169.59 76.938 169.41C76.446 169.23 76.026 168.984 75.678 168.672C75.33 168.348 75.06 167.976 74.868 167.556C74.676 167.124 74.58 166.662 74.58 166.17H76.128C76.128 166.566 76.23 166.92 76.434 167.232C76.65 167.544 76.944 167.79 77.316 167.97C77.688 168.15 78.114 168.24 78.594 168.24C79.074 168.24 79.488 168.15 79.836 167.97C80.196 167.778 80.472 167.514 80.664 167.178C80.856 166.842 80.952 166.446 80.952 165.99C80.952 165.606 80.874 165.27 80.718 164.982C80.574 164.682 80.37 164.436 80.106 164.244C79.842 164.04 79.536 163.89 79.188 163.794C78.84 163.698 78.462 163.65 78.054 163.65V162.66C78.666 162.66 79.236 162.726 79.764 162.858C80.304 162.99 80.778 163.2 81.186 163.488C81.606 163.764 81.93 164.124 82.158 164.568C82.398 165.012 82.518 165.546 82.518 166.17C82.518 166.878 82.344 167.496 81.996 168.024C81.66 168.552 81.198 168.96 80.61 169.248C80.022 169.536 79.35 169.68 78.594 169.68ZM84.7662 159.942C84.7662 159.342 84.9162 158.802 85.2162 158.322C85.5282 157.83 85.9422 157.44 86.4582 157.152C86.9862 156.864 87.5802 156.72 88.2402 156.72C88.9002 156.72 89.4882 156.864 90.0042 157.152C90.5322 157.44 90.9462 157.83 91.2462 158.322C91.5582 158.802 91.7142 159.342 91.7142 159.942C91.7142 160.434 91.6302 160.878 91.4622 161.274C91.2942 161.658 91.0542 161.988 90.7422 162.264C90.4422 162.54 90.0762 162.75 89.6442 162.894C89.2242 163.038 88.7562 163.11 88.2402 163.11C87.7242 163.11 87.2502 163.038 86.8182 162.894C86.3982 162.75 86.0322 162.54 85.7202 162.264C85.4202 161.988 85.1862 161.658 85.0182 161.274C84.8502 160.878 84.7662 160.434 84.7662 159.942ZM86.2242 160.122C86.2242 160.518 86.3142 160.866 86.4942 161.166C86.6862 161.466 86.9322 161.7 87.2322 161.868C87.5442 162.036 87.8802 162.12 88.2402 162.12C88.6002 162.12 88.9302 162.036 89.2302 161.868C89.5422 161.7 89.7882 161.466 89.9682 161.166C90.1602 160.866 90.2562 160.518 90.2562 160.122C90.2562 159.726 90.1662 159.372 89.9862 159.06C89.8182 158.748 89.5842 158.508 89.2842 158.34C88.9842 158.16 88.6362 158.07 88.2402 158.07C87.8562 158.07 87.5082 158.16 87.1962 158.34C86.8962 158.508 86.6562 158.748 86.4762 159.06C86.3082 159.372 86.2242 159.726 86.2242 160.122ZM84.3162 166.08C84.3162 165.504 84.4182 164.994 84.6222 164.55C84.8382 164.094 85.1262 163.716 85.4862 163.416C85.8582 163.104 86.2782 162.87 86.7462 162.714C87.2262 162.558 87.7242 162.48 88.2402 162.48C88.7562 162.48 89.2482 162.558 89.7162 162.714C90.1962 162.87 90.6162 163.104 90.9762 163.416C91.3482 163.716 91.6362 164.094 91.8402 164.55C92.0562 164.994 92.1642 165.504 92.1642 166.08C92.1642 166.572 92.0622 167.034 91.8582 167.466C91.6662 167.898 91.3902 168.282 91.0302 168.618C90.6822 168.954 90.2682 169.218 89.7882 169.41C89.3202 169.59 88.8042 169.68 88.2402 169.68C87.6762 169.68 87.1542 169.59 86.6742 169.41C86.2062 169.218 85.7922 168.954 85.4322 168.618C85.0842 168.282 84.8082 167.898 84.6042 167.466C84.4122 167.034 84.3162 166.572 84.3162 166.08ZM85.7742 165.9C85.7742 166.416 85.8882 166.854 86.1162 167.214C86.3562 167.574 86.6622 167.85 87.0342 168.042C87.4182 168.234 87.8202 168.33 88.2402 168.33C88.6602 168.33 89.0562 168.234 89.4282 168.042C89.8122 167.85 90.1182 167.574 90.3462 167.214C90.5862 166.854 90.7062 166.416 90.7062 165.9C90.7062 165.444 90.5862 165.036 90.3462 164.676C90.1182 164.304 89.8122 164.01 89.4282 163.794C89.0562 163.578 88.6602 163.47 88.2402 163.47C87.8202 163.47 87.4182 163.578 87.0342 163.794C86.6622 164.01 86.3562 164.304 86.1162 164.676C85.8882 165.036 85.7742 165.444 85.7742 165.9ZM100.889 163.2C100.889 164.172 101.105 165.03 101.537 165.774C101.981 166.518 102.557 167.1 103.265 167.52C103.973 167.94 104.741 168.15 105.569 168.15C106.169 168.15 106.715 168.072 107.207 167.916C107.711 167.76 108.167 167.544 108.575 167.268C108.983 166.98 109.331 166.65 109.619 166.278V168.294C109.091 168.762 108.515 169.11 107.891 169.338C107.267 169.566 106.493 169.68 105.569 169.68C104.693 169.68 103.871 169.524 103.103 169.212C102.347 168.888 101.681 168.438 101.105 167.862C100.529 167.274 100.079 166.584 99.7548 165.792C99.4308 165 99.2688 164.136 99.2688 163.2C99.2688 162.264 99.4308 161.4 99.7548 160.608C100.079 159.816 100.529 159.132 101.105 158.556C101.681 157.968 102.347 157.518 103.103 157.206C103.871 156.882 104.693 156.72 105.569 156.72C106.493 156.72 107.267 156.834 107.891 157.062C108.515 157.29 109.091 157.638 109.619 158.106V160.122C109.331 159.75 108.983 159.426 108.575 159.15C108.167 158.862 107.711 158.64 107.207 158.484C106.715 158.328 106.169 158.25 105.569 158.25C104.741 158.25 103.973 158.46 103.265 158.88C102.557 159.3 101.981 159.882 101.537 160.626C101.105 161.358 100.889 162.216 100.889 163.2ZM111.501 165.36C111.501 164.52 111.687 163.776 112.059 163.128C112.443 162.48 112.959 161.97 113.607 161.598C114.255 161.226 114.981 161.04 115.785 161.04C116.601 161.04 117.327 161.226 117.963 161.598C118.611 161.97 119.121 162.48 119.493 163.128C119.877 163.776 120.069 164.52 120.069 165.36C120.069 166.188 119.877 166.932 119.493 167.592C119.121 168.24 118.611 168.75 117.963 169.122C117.327 169.494 116.601 169.68 115.785 169.68C114.981 169.68 114.255 169.494 113.607 169.122C112.959 168.75 112.443 168.24 112.059 167.592C111.687 166.932 111.501 166.188 111.501 165.36ZM112.959 165.36C112.959 165.936 113.079 166.446 113.319 166.89C113.571 167.334 113.907 167.688 114.327 167.952C114.759 168.204 115.245 168.33 115.785 168.33C116.325 168.33 116.805 168.204 117.225 167.952C117.657 167.688 117.993 167.334 118.233 166.89C118.485 166.446 118.611 165.936 118.611 165.36C118.611 164.784 118.485 164.274 118.233 163.83C117.993 163.374 117.657 163.02 117.225 162.768C116.805 162.516 116.325 162.39 115.785 162.39C115.245 162.39 114.759 162.516 114.327 162.768C113.907 163.02 113.571 163.374 113.319 163.83C113.079 164.274 112.959 164.784 112.959 165.36ZM123.487 166.26C123.487 166.92 123.637 167.43 123.937 167.79C124.237 168.15 124.675 168.33 125.251 168.33C125.671 168.33 126.037 168.246 126.349 168.078C126.673 167.898 126.919 167.652 127.087 167.34C127.267 167.028 127.357 166.668 127.357 166.26V161.22H128.797V169.5H127.357V168.204C127.081 168.696 126.739 169.068 126.331 169.32C125.923 169.56 125.443 169.68 124.891 169.68C124.027 169.68 123.337 169.386 122.821 168.798C122.305 168.21 122.047 167.424 122.047 166.44V161.22H123.487V166.26ZM132.944 161.22V169.5H131.504V161.22H132.944ZM135.446 162.804C135.254 162.66 135.08 162.558 134.924 162.498C134.768 162.426 134.57 162.39 134.33 162.39C133.97 162.39 133.688 162.48 133.484 162.66C133.28 162.84 133.136 163.086 133.052 163.398C132.98 163.71 132.944 164.064 132.944 164.46H132.296C132.296 163.8 132.41 163.218 132.638 162.714C132.878 162.198 133.184 161.79 133.556 161.49C133.928 161.19 134.306 161.04 134.69 161.04C134.99 161.04 135.266 161.082 135.518 161.166C135.782 161.238 136.022 161.388 136.238 161.616L135.446 162.804ZM138.016 166.962C138.184 167.214 138.376 167.448 138.592 167.664C138.808 167.88 139.054 168.054 139.33 168.186C139.618 168.306 139.93 168.366 140.266 168.366C140.674 168.366 140.992 168.276 141.22 168.096C141.46 167.904 141.58 167.646 141.58 167.322C141.58 167.034 141.484 166.794 141.292 166.602C141.112 166.398 140.878 166.23 140.59 166.098C140.302 165.954 139.996 165.822 139.672 165.702C139.312 165.558 138.946 165.39 138.574 165.198C138.214 164.994 137.908 164.736 137.656 164.424C137.416 164.1 137.296 163.698 137.296 163.218C137.296 162.726 137.422 162.318 137.674 161.994C137.938 161.67 138.274 161.43 138.682 161.274C139.102 161.118 139.534 161.04 139.978 161.04C140.422 161.04 140.836 161.112 141.22 161.256C141.616 161.4 141.964 161.592 142.264 161.832C142.564 162.072 142.798 162.348 142.966 162.66L141.814 163.398C141.586 163.086 141.298 162.828 140.95 162.624C140.614 162.42 140.23 162.318 139.798 162.318C139.498 162.318 139.24 162.384 139.024 162.516C138.808 162.648 138.7 162.852 138.7 163.128C138.7 163.344 138.784 163.536 138.952 163.704C139.12 163.872 139.336 164.022 139.6 164.154C139.864 164.286 140.14 164.412 140.428 164.532C140.908 164.724 141.346 164.934 141.742 165.162C142.138 165.378 142.45 165.642 142.678 165.954C142.918 166.266 143.038 166.668 143.038 167.16C143.038 167.88 142.774 168.48 142.246 168.96C141.73 169.44 141.046 169.68 140.194 169.68C139.642 169.68 139.144 169.584 138.7 169.392C138.256 169.188 137.878 168.93 137.566 168.618C137.266 168.306 137.038 167.988 136.882 167.664L138.016 166.962ZM148.138 169.68C147.37 169.68 146.686 169.5 146.086 169.14C145.498 168.768 145.036 168.258 144.7 167.61C144.376 166.962 144.214 166.212 144.214 165.36C144.214 164.496 144.382 163.74 144.718 163.092C145.066 162.444 145.546 161.94 146.158 161.58C146.782 161.22 147.502 161.04 148.318 161.04C149.134 161.04 149.83 161.214 150.406 161.562C150.994 161.898 151.444 162.384 151.756 163.02C152.068 163.656 152.224 164.412 152.224 165.288C152.224 165.372 152.218 165.462 152.206 165.558C152.206 165.642 152.206 165.696 152.206 165.72H145.132V164.496H151.072L150.496 165.324C150.532 165.264 150.568 165.174 150.604 165.054C150.64 164.922 150.658 164.814 150.658 164.73C150.658 164.238 150.556 163.812 150.352 163.452C150.16 163.092 149.89 162.81 149.542 162.606C149.194 162.402 148.786 162.3 148.318 162.3C147.766 162.3 147.292 162.42 146.896 162.66C146.512 162.888 146.212 163.224 145.996 163.668C145.792 164.1 145.684 164.634 145.672 165.27C145.672 165.918 145.774 166.47 145.978 166.926C146.182 167.382 146.482 167.73 146.878 167.97C147.274 168.21 147.754 168.33 148.318 168.33C148.882 168.33 149.38 168.21 149.812 167.97C150.244 167.718 150.61 167.34 150.91 166.836L152.08 167.574C151.648 168.27 151.102 168.798 150.442 169.158C149.794 169.506 149.026 169.68 148.138 169.68ZM154.54 166.962C154.708 167.214 154.9 167.448 155.116 167.664C155.332 167.88 155.578 168.054 155.854 168.186C156.142 168.306 156.454 168.366 156.79 168.366C157.198 168.366 157.516 168.276 157.744 168.096C157.984 167.904 158.104 167.646 158.104 167.322C158.104 167.034 158.008 166.794 157.816 166.602C157.636 166.398 157.402 166.23 157.114 166.098C156.826 165.954 156.52 165.822 156.196 165.702C155.836 165.558 155.47 165.39 155.098 165.198C154.738 164.994 154.432 164.736 154.18 164.424C153.94 164.1 153.82 163.698 153.82 163.218C153.82 162.726 153.946 162.318 154.198 161.994C154.462 161.67 154.798 161.43 155.206 161.274C155.626 161.118 156.058 161.04 156.502 161.04C156.946 161.04 157.36 161.112 157.744 161.256C158.14 161.4 158.488 161.592 158.788 161.832C159.088 162.072 159.322 162.348 159.49 162.66L158.338 163.398C158.11 163.086 157.822 162.828 157.474 162.624C157.138 162.42 156.754 162.318 156.322 162.318C156.022 162.318 155.764 162.384 155.548 162.516C155.332 162.648 155.224 162.852 155.224 163.128C155.224 163.344 155.308 163.536 155.476 163.704C155.644 163.872 155.86 164.022 156.124 164.154C156.388 164.286 156.664 164.412 156.952 164.532C157.432 164.724 157.87 164.934 158.266 165.162C158.662 165.378 158.974 165.642 159.202 165.954C159.442 166.266 159.562 166.668 159.562 167.16C159.562 167.88 159.298 168.48 158.77 168.96C158.254 169.44 157.57 169.68 156.718 169.68C156.166 169.68 155.668 169.584 155.224 169.392C154.78 169.188 154.402 168.93 154.09 168.618C153.79 168.306 153.562 167.988 153.406 167.664L154.54 166.962Z" fill="#555555"/>
<defs>
<clipPath id="clip0_1_1314">
<rect width="32" height="32" fill="white" transform="translate(101 57.5)"/>
</clipPath>
</defs>
</svg>
