<svg width="234" height="234" viewBox="0 0 234 234" fill="none" xmlns="http://www.w3.org/2000/svg">
<rect x="0.5" y="0.5" width="233" height="233" rx="19.5" stroke="#EAEAEA"/>
<path d="M128.938 63.4659C128.937 63.2292 128.899 62.9884 128.842 62.7584C128.459 61.2117 127.182 60.2292 125.529 60.2217C123.543 60.2134 121.558 60.2201 119.572 60.2201C115.196 60.2201 110.82 60.2159 106.443 60.2217C104.437 60.2242 102.993 61.6434 102.992 63.6151C102.987 69.5626 102.988 75.5101 102.994 81.4576C102.994 81.7351 103.024 82.0201 103.09 82.2892C103.459 83.8109 104.732 84.8267 106.333 84.8326C110.148 84.8476 113.963 84.8376 117.779 84.8376C117.84 84.8376 117.902 84.8284 118.012 84.8201C118.012 84.7151 118.017 84.6334 118.011 84.5534C117.927 83.5192 118.228 82.5992 118.754 81.7117C120.002 79.6026 121.206 77.4667 122.443 75.3509C122.761 74.8067 123.075 74.2784 122.961 73.6126C122.958 73.5959 122.975 73.5759 122.997 73.5234C123.494 73.6851 123.63 73.2892 123.815 72.9617C123.861 72.8809 123.907 72.8001 123.954 72.7184C124.174 72.3351 124.394 71.9526 124.643 71.5201H122.979V67.5517H126.937C126.945 67.7134 126.952 67.8609 126.958 67.9901C127.289 67.8684 127.59 67.7184 127.908 67.6517C128.237 67.5834 128.581 67.5976 128.935 67.5742C128.938 67.5276 128.944 67.4776 128.944 67.4276C128.944 66.1067 128.947 64.7859 128.938 63.4659ZM108.955 82.8209C107.985 82.8209 107.021 82.8534 106.061 82.8084C105.519 82.7826 105.037 82.2542 105.006 81.6934C104.966 80.9817 104.996 80.2651 104.996 79.5234H108.955V82.8209ZM108.957 77.5009H105.004V73.5426H108.957V77.5009ZM108.963 71.5059H105.008V67.5509H108.963V71.5059ZM108.963 65.5226H104.987V64.8609C104.987 64.4142 104.979 63.9676 104.989 63.5209C105.002 62.8876 105.458 62.2834 106.058 62.2509C107.019 62.1992 107.984 62.2367 108.963 62.2367V65.5226ZM119.517 74.0851C118.184 74.8492 116.856 75.6192 115.525 76.3876C115.166 76.5951 114.807 76.8042 114.447 77.0101C113.354 77.6342 112.302 77.0317 112.298 75.7784C112.295 74.8017 112.297 73.8251 112.297 72.8476C112.297 71.8817 112.296 70.9151 112.298 69.9484C112.302 68.6892 113.353 68.0851 114.443 68.7134C116.142 69.6934 117.841 70.6759 119.541 71.6542C119.997 71.9167 120.277 72.2884 120.287 72.8292C120.298 73.4101 120.006 73.8042 119.517 74.0851ZM126.948 65.5142H122.967V62.2392C123.057 62.2317 123.145 62.2176 123.233 62.2176C123.992 62.2159 124.75 62.2134 125.508 62.2176C126.409 62.2226 126.944 62.7567 126.947 63.6509C126.95 64.2642 126.948 64.8767 126.948 65.5142Z" fill="#FF782D"/>
<path d="M126.083 71.6951C124.047 75.2226 122.022 78.7309 119.986 82.2592C121.156 82.9342 122.292 83.5901 123.446 84.2559C125.487 80.7209 127.512 77.2126 129.543 73.6917C128.37 73.0142 127.24 72.3626 126.083 71.6951ZM126.235 76.7301C126.043 77.0409 125.661 77.1001 125.356 76.9159C125.067 76.7409 124.937 76.3826 125.103 76.0759C125.438 75.4551 125.789 74.8417 126.167 74.2459C126.264 74.0926 126.484 74.0159 126.648 73.9042C127.176 73.9542 127.522 74.4551 127.292 74.8976C126.967 75.5234 126.606 76.1309 126.235 76.7301Z" fill="#FF782D"/>
<path d="M128.944 81.4117C128.937 83.385 127.53 84.8084 125.56 84.8375C125.281 84.8409 125.002 84.8375 124.645 84.8375C125.039 84.155 125.398 83.5267 125.767 82.905C125.802 82.8467 125.9 82.8167 125.974 82.79C126.618 82.5634 126.962 82.1134 126.94 81.4309C126.927 81.0184 127.033 80.6717 127.244 80.3217C127.804 79.3909 128.337 78.4425 128.922 77.4292C128.932 77.595 128.944 77.6809 128.944 77.7667C128.945 78.9817 128.947 80.1967 128.944 81.4117Z" fill="#FF782D"/>
<path d="M130.796 71.51C130.623 71.8508 130.418 72.175 130.21 72.5383C129.041 71.8642 127.904 71.2083 126.747 70.5408C126.971 70.1608 127.16 69.7908 127.394 69.4533C127.764 68.9208 128.474 68.7567 129.058 69.0617C129.49 69.2867 129.912 69.5308 130.323 69.7917C130.916 70.1667 131.112 70.8858 130.796 71.51Z" fill="#FF782D"/>
<path d="M122.697 85.3634C122.501 85.5067 122.353 85.6376 122.186 85.7334C121.592 86.0734 120.995 86.4092 120.392 86.7326C119.939 86.9759 119.421 86.7634 119.392 86.2834C119.343 85.4351 119.363 84.5826 119.358 83.7309C119.358 83.6617 119.392 83.5909 119.423 83.4734C120.523 84.1084 121.587 84.7234 122.697 85.3634Z" fill="#FF782D"/>
<path d="M63.26 132.5L58.46 117.74H61.02L64.82 129.84L68.62 117.74H71.18L66.38 132.5H63.26ZM73.1933 120.08C72.9399 120.08 72.8133 119.96 72.8133 119.72V117.9C72.8133 117.633 72.9399 117.5 73.1933 117.5H75.0733C75.1933 117.5 75.2799 117.54 75.3333 117.62C75.3999 117.7 75.4333 117.793 75.4333 117.9V119.72C75.4333 119.96 75.3133 120.08 75.0733 120.08H73.1933ZM72.8733 132.5V121.78H75.3533V132.5H72.8733ZM81.3928 132.62C80.5528 132.62 79.8461 132.44 79.2728 132.08C78.6995 131.707 78.2661 131.127 77.9728 130.34C77.6928 129.54 77.5528 128.507 77.5528 127.24C77.5528 125.907 77.6795 124.833 77.9328 124.02C78.1861 123.193 78.6061 122.593 79.1928 122.22C79.7928 121.833 80.5928 121.64 81.5928 121.64C82.1261 121.64 82.6528 121.693 83.1728 121.8C83.6928 121.907 84.1461 122.033 84.5328 122.18V117.24H87.0128V132.5H84.9528L84.5328 131.46C84.3195 131.66 84.0328 131.847 83.6728 132.02C83.3261 132.193 82.9528 132.34 82.5528 132.46C82.1661 132.567 81.7795 132.62 81.3928 132.62ZM82.2328 130.62C82.7128 130.62 83.1461 130.547 83.5328 130.4C83.9195 130.24 84.2528 130.08 84.5328 129.92V123.96C84.1995 123.84 83.8595 123.733 83.5128 123.64C83.1661 123.547 82.7861 123.5 82.3728 123.5C81.8128 123.5 81.3595 123.607 81.0128 123.82C80.6661 124.02 80.4128 124.38 80.2528 124.9C80.1061 125.42 80.0328 126.16 80.0328 127.12C80.0328 128.013 80.1061 128.72 80.2528 129.24C80.3995 129.747 80.6328 130.107 80.9528 130.32C81.2861 130.52 81.7128 130.62 82.2328 130.62ZM93.8744 132.6C92.7144 132.6 91.7877 132.44 91.0944 132.12C90.4144 131.8 89.921 131.247 89.6144 130.46C89.3077 129.66 89.1544 128.553 89.1544 127.14C89.1544 125.7 89.301 124.587 89.5944 123.8C89.8877 123 90.3744 122.44 91.0544 122.12C91.7344 121.8 92.6544 121.64 93.8144 121.64C94.841 121.64 95.661 121.747 96.2744 121.96C96.901 122.16 97.3544 122.527 97.6344 123.06C97.9277 123.58 98.0744 124.32 98.0744 125.28C98.0744 125.96 97.941 126.507 97.6744 126.92C97.4077 127.32 97.021 127.607 96.5144 127.78C96.021 127.953 95.4344 128.04 94.7544 128.04H91.6144C91.641 128.707 91.7277 129.24 91.8744 129.64C92.0344 130.027 92.3144 130.307 92.7144 130.48C93.1277 130.653 93.7277 130.74 94.5144 130.74H97.7544V132.2C97.2077 132.307 96.6277 132.4 96.0144 132.48C95.4144 132.56 94.701 132.6 93.8744 132.6ZM91.5944 126.54H94.5144C94.981 126.54 95.321 126.453 95.5344 126.28C95.761 126.093 95.8744 125.76 95.8744 125.28C95.8744 124.813 95.8077 124.447 95.6744 124.18C95.541 123.913 95.321 123.727 95.0144 123.62C94.7077 123.5 94.3077 123.44 93.8144 123.44C93.2544 123.44 92.8144 123.527 92.4944 123.7C92.1744 123.873 91.941 124.187 91.7944 124.64C91.661 125.08 91.5944 125.713 91.5944 126.54ZM104.756 132.6C103.916 132.6 103.189 132.513 102.576 132.34C101.962 132.167 101.462 131.873 101.076 131.46C100.689 131.047 100.402 130.487 100.216 129.78C100.029 129.073 99.9356 128.187 99.9356 127.12C99.9356 126.013 100.029 125.107 100.216 124.4C100.402 123.68 100.689 123.12 101.076 122.72C101.476 122.307 101.982 122.027 102.596 121.88C103.209 121.72 103.929 121.64 104.756 121.64C105.609 121.64 106.342 121.727 106.956 121.9C107.569 122.06 108.069 122.34 108.456 122.74C108.842 123.14 109.129 123.7 109.316 124.42C109.502 125.127 109.596 126.027 109.596 127.12C109.596 128.2 109.502 129.1 109.316 129.82C109.142 130.527 108.862 131.087 108.476 131.5C108.089 131.9 107.589 132.187 106.976 132.36C106.362 132.52 105.622 132.6 104.756 132.6ZM104.756 130.62C105.169 130.62 105.522 130.587 105.816 130.52C106.109 130.44 106.349 130.287 106.536 130.06C106.736 129.82 106.882 129.467 106.976 129C107.069 128.52 107.116 127.887 107.116 127.1C107.116 126.327 107.069 125.707 106.976 125.24C106.882 124.773 106.736 124.427 106.536 124.2C106.349 123.96 106.109 123.807 105.816 123.74C105.522 123.66 105.169 123.62 104.756 123.62C104.356 123.62 104.009 123.66 103.716 123.74C103.422 123.807 103.182 123.96 102.996 124.2C102.809 124.427 102.662 124.773 102.556 125.24C102.462 125.707 102.416 126.327 102.416 127.1C102.416 127.887 102.462 128.52 102.556 129C102.662 129.467 102.809 129.82 102.996 130.06C103.182 130.287 103.422 130.44 103.716 130.52C104.009 130.587 104.356 130.62 104.756 130.62ZM114.539 137.44C113.859 137.44 113.252 137.34 112.719 137.14C112.186 136.953 111.766 136.66 111.459 136.26C111.166 135.873 111.019 135.4 111.019 134.84V134.46C111.019 133.873 111.186 133.373 111.519 132.96C111.852 132.56 112.279 132.253 112.799 132.04C113.319 131.827 113.859 131.72 114.419 131.72L115.139 132.54C114.806 132.54 114.506 132.593 114.239 132.7C113.972 132.807 113.759 132.967 113.599 133.18C113.439 133.393 113.359 133.66 113.359 133.98V134.3C113.359 134.78 113.519 135.127 113.839 135.34C114.159 135.567 114.612 135.68 115.199 135.68H117.379C117.992 135.68 118.472 135.56 118.819 135.32C119.179 135.093 119.359 134.74 119.359 134.26V133.92C119.359 133.627 119.299 133.38 119.179 133.18C119.059 132.98 118.866 132.82 118.599 132.7C118.332 132.593 117.972 132.54 117.519 132.54H114.839C113.772 132.54 112.966 132.333 112.419 131.92C111.886 131.507 111.619 130.987 111.619 130.36C111.619 129.827 111.772 129.387 112.079 129.04C112.399 128.693 112.839 128.46 113.399 128.34C112.946 128.127 112.586 127.853 112.319 127.52C112.066 127.187 111.886 126.827 111.779 126.44C111.672 126.053 111.619 125.66 111.619 125.26C111.619 124.447 111.786 123.787 112.119 123.28C112.452 122.76 112.939 122.38 113.579 122.14C114.219 121.887 115.012 121.76 115.959 121.76H121.739V123.14L119.839 123.4C119.972 123.533 120.112 123.693 120.259 123.88C120.419 124.067 120.552 124.313 120.659 124.62C120.766 124.927 120.819 125.327 120.819 125.82C120.819 126.42 120.692 126.967 120.439 127.46C120.199 127.953 119.799 128.347 119.239 128.64C118.679 128.933 117.926 129.08 116.979 129.08H115.159C114.732 129.08 114.386 129.147 114.119 129.28C113.852 129.413 113.719 129.64 113.719 129.96C113.719 130.227 113.826 130.413 114.039 130.52C114.252 130.627 114.479 130.68 114.719 130.68H117.899C118.712 130.68 119.399 130.787 119.959 131C120.532 131.213 120.966 131.547 121.259 132C121.552 132.453 121.699 133.053 121.699 133.8V134.14C121.699 135.167 121.366 135.973 120.699 136.56C120.046 137.147 119.039 137.44 117.679 137.44H114.539ZM115.559 127.22H116.719C117.212 127.22 117.592 127.147 117.859 127C118.139 126.84 118.326 126.633 118.419 126.38C118.526 126.113 118.579 125.82 118.579 125.5C118.579 125.047 118.506 124.687 118.359 124.42C118.226 124.14 118.026 123.94 117.759 123.82C117.506 123.7 117.192 123.64 116.819 123.64H115.699C115.099 123.64 114.639 123.773 114.319 124.04C114.012 124.307 113.859 124.76 113.859 125.4C113.859 126.04 114.006 126.507 114.299 126.8C114.592 127.08 115.012 127.22 115.559 127.22ZM123.401 132.5V121.78H125.321L125.881 123.5C126.307 122.98 126.781 122.54 127.301 122.18C127.821 121.82 128.441 121.64 129.161 121.64C129.307 121.64 129.461 121.653 129.621 121.68C129.781 121.693 129.927 121.72 130.061 121.76V124.28C129.874 124.253 129.674 124.233 129.461 124.22C129.247 124.207 129.041 124.2 128.841 124.2C128.427 124.2 128.047 124.247 127.701 124.34C127.367 124.433 127.054 124.58 126.761 124.78C126.467 124.967 126.174 125.207 125.881 125.5V132.5H123.401ZM133.609 132.62C132.809 132.62 132.156 132.38 131.649 131.9C131.142 131.42 130.889 130.76 130.889 129.92V129.02C130.889 128.193 131.169 127.52 131.729 127C132.302 126.48 133.176 126.22 134.349 126.22H137.409V125.28C137.409 124.907 137.342 124.593 137.209 124.34C137.076 124.087 136.836 123.9 136.489 123.78C136.142 123.647 135.616 123.58 134.909 123.58H131.669V122.14C132.162 122.007 132.742 121.893 133.409 121.8C134.076 121.693 134.869 121.64 135.789 121.64C136.669 121.627 137.416 121.733 138.029 121.96C138.642 122.173 139.102 122.533 139.409 123.04C139.729 123.547 139.889 124.24 139.889 125.12V132.5H137.949L137.529 131.34C137.436 131.42 137.269 131.527 137.029 131.66C136.789 131.793 136.489 131.94 136.129 132.1C135.769 132.247 135.369 132.373 134.929 132.48C134.502 132.573 134.062 132.62 133.609 132.62ZM134.809 130.88C134.982 130.88 135.176 130.86 135.389 130.82C135.616 130.767 135.842 130.713 136.069 130.66C136.296 130.593 136.502 130.533 136.689 130.48C136.889 130.413 137.049 130.353 137.169 130.3C137.302 130.247 137.382 130.213 137.409 130.2V127.4L135.089 127.52C134.476 127.573 134.029 127.733 133.749 128C133.482 128.267 133.349 128.62 133.349 129.06V129.5C133.349 129.833 133.416 130.107 133.549 130.32C133.696 130.52 133.876 130.66 134.089 130.74C134.316 130.82 134.556 130.867 134.809 130.88ZM142.346 137.24V121.78H144.406L144.826 122.84C145.079 122.64 145.373 122.447 145.706 122.26C146.039 122.073 146.399 121.927 146.786 121.82C147.173 121.7 147.573 121.64 147.986 121.64C148.666 121.64 149.246 121.773 149.726 122.04C150.219 122.307 150.619 122.687 150.926 123.18C151.233 123.66 151.453 124.24 151.586 124.92C151.733 125.587 151.806 126.327 151.806 127.14C151.806 128.313 151.679 129.313 151.426 130.14C151.186 130.953 150.786 131.573 150.226 132C149.679 132.427 148.933 132.64 147.986 132.64C147.453 132.64 146.906 132.567 146.346 132.42C145.799 132.273 145.293 132.08 144.826 131.84V137.24H142.346ZM147.206 130.6C147.593 130.6 147.946 130.5 148.266 130.3C148.586 130.087 148.839 129.733 149.026 129.24C149.226 128.747 149.326 128.047 149.326 127.14C149.326 126.273 149.233 125.58 149.046 125.06C148.859 124.54 148.606 124.173 148.286 123.96C147.979 123.747 147.626 123.64 147.226 123.64C146.733 123.64 146.286 123.72 145.886 123.88C145.486 124.027 145.133 124.18 144.826 124.34V129.94C145.173 130.14 145.553 130.3 145.966 130.42C146.379 130.54 146.793 130.6 147.206 130.6ZM154.006 132.5V117.26H156.486V122.9C156.913 122.58 157.446 122.287 158.086 122.02C158.739 121.74 159.406 121.6 160.086 121.6C160.873 121.6 161.506 121.76 161.986 122.08C162.479 122.4 162.833 122.847 163.046 123.42C163.273 123.98 163.386 124.62 163.386 125.34V132.5H160.906V125.64C160.906 125.267 160.833 124.947 160.686 124.68C160.539 124.4 160.333 124.193 160.066 124.06C159.799 123.913 159.486 123.84 159.126 123.84C158.779 123.84 158.459 123.88 158.166 123.96C157.873 124.027 157.586 124.127 157.306 124.26C157.039 124.393 156.766 124.547 156.486 124.72V132.5H154.006ZM169.062 137.24L170.302 132.5C169.782 132.5 169.308 132.4 168.882 132.2C168.468 132 168.115 131.7 167.822 131.3C167.528 130.9 167.288 130.387 167.102 129.76L164.902 121.78H167.462L169.402 129.26C169.495 129.567 169.608 129.8 169.742 129.96C169.875 130.12 170.008 130.24 170.142 130.32C170.275 130.387 170.395 130.427 170.502 130.44C170.622 130.453 170.702 130.46 170.742 130.46L172.962 121.78H175.482L172.042 135.26L171.082 137.24H169.062Z" fill="black"/>
<path d="M78.054 163.29V162.3C78.462 162.3 78.822 162.246 79.134 162.138C79.446 162.018 79.71 161.862 79.926 161.67C80.142 161.466 80.304 161.232 80.412 160.968C80.532 160.704 80.592 160.422 80.592 160.122C80.592 159.726 80.52 159.378 80.376 159.078C80.232 158.766 80.016 158.526 79.728 158.358C79.452 158.19 79.104 158.106 78.684 158.106C78.096 158.106 77.598 158.292 77.19 158.664C76.782 159.024 76.578 159.48 76.578 160.032H75.12C75.12 159.372 75.27 158.796 75.57 158.304C75.882 157.812 76.302 157.428 76.83 157.152C77.37 156.864 77.982 156.72 78.666 156.72C79.386 156.72 80.004 156.876 80.52 157.188C81.048 157.5 81.45 157.908 81.726 158.412C82.014 158.916 82.158 159.468 82.158 160.068C82.158 160.656 81.984 161.196 81.636 161.688C81.288 162.18 80.808 162.57 80.196 162.858C79.584 163.146 78.87 163.29 78.054 163.29ZM78.594 169.68C77.982 169.68 77.43 169.59 76.938 169.41C76.446 169.23 76.026 168.984 75.678 168.672C75.33 168.348 75.06 167.976 74.868 167.556C74.676 167.124 74.58 166.662 74.58 166.17H76.128C76.128 166.566 76.23 166.92 76.434 167.232C76.65 167.544 76.944 167.79 77.316 167.97C77.688 168.15 78.114 168.24 78.594 168.24C79.074 168.24 79.488 168.15 79.836 167.97C80.196 167.778 80.472 167.514 80.664 167.178C80.856 166.842 80.952 166.446 80.952 165.99C80.952 165.606 80.874 165.27 80.718 164.982C80.574 164.682 80.37 164.436 80.106 164.244C79.842 164.04 79.536 163.89 79.188 163.794C78.84 163.698 78.462 163.65 78.054 163.65V162.66C78.666 162.66 79.236 162.726 79.764 162.858C80.304 162.99 80.778 163.2 81.186 163.488C81.606 163.764 81.93 164.124 82.158 164.568C82.398 165.012 82.518 165.546 82.518 166.17C82.518 166.878 82.344 167.496 81.996 168.024C81.66 168.552 81.198 168.96 80.61 169.248C80.022 169.536 79.35 169.68 78.594 169.68ZM84.7662 159.942C84.7662 159.342 84.9162 158.802 85.2162 158.322C85.5282 157.83 85.9422 157.44 86.4582 157.152C86.9862 156.864 87.5802 156.72 88.2402 156.72C88.9002 156.72 89.4882 156.864 90.0042 157.152C90.5322 157.44 90.9462 157.83 91.2462 158.322C91.5582 158.802 91.7142 159.342 91.7142 159.942C91.7142 160.434 91.6302 160.878 91.4622 161.274C91.2942 161.658 91.0542 161.988 90.7422 162.264C90.4422 162.54 90.0762 162.75 89.6442 162.894C89.2242 163.038 88.7562 163.11 88.2402 163.11C87.7242 163.11 87.2502 163.038 86.8182 162.894C86.3982 162.75 86.0322 162.54 85.7202 162.264C85.4202 161.988 85.1862 161.658 85.0182 161.274C84.8502 160.878 84.7662 160.434 84.7662 159.942ZM86.2242 160.122C86.2242 160.518 86.3142 160.866 86.4942 161.166C86.6862 161.466 86.9322 161.7 87.2322 161.868C87.5442 162.036 87.8802 162.12 88.2402 162.12C88.6002 162.12 88.9302 162.036 89.2302 161.868C89.5422 161.7 89.7882 161.466 89.9682 161.166C90.1602 160.866 90.2562 160.518 90.2562 160.122C90.2562 159.726 90.1662 159.372 89.9862 159.06C89.8182 158.748 89.5842 158.508 89.2842 158.34C88.9842 158.16 88.6362 158.07 88.2402 158.07C87.8562 158.07 87.5082 158.16 87.1962 158.34C86.8962 158.508 86.6562 158.748 86.4762 159.06C86.3082 159.372 86.2242 159.726 86.2242 160.122ZM84.3162 166.08C84.3162 165.504 84.4182 164.994 84.6222 164.55C84.8382 164.094 85.1262 163.716 85.4862 163.416C85.8582 163.104 86.2782 162.87 86.7462 162.714C87.2262 162.558 87.7242 162.48 88.2402 162.48C88.7562 162.48 89.2482 162.558 89.7162 162.714C90.1962 162.87 90.6162 163.104 90.9762 163.416C91.3482 163.716 91.6362 164.094 91.8402 164.55C92.0562 164.994 92.1642 165.504 92.1642 166.08C92.1642 166.572 92.0622 167.034 91.8582 167.466C91.6662 167.898 91.3902 168.282 91.0302 168.618C90.6822 168.954 90.2682 169.218 89.7882 169.41C89.3202 169.59 88.8042 169.68 88.2402 169.68C87.6762 169.68 87.1542 169.59 86.6742 169.41C86.2062 169.218 85.7922 168.954 85.4322 168.618C85.0842 168.282 84.8082 167.898 84.6042 167.466C84.4122 167.034 84.3162 166.572 84.3162 166.08ZM85.7742 165.9C85.7742 166.416 85.8882 166.854 86.1162 167.214C86.3562 167.574 86.6622 167.85 87.0342 168.042C87.4182 168.234 87.8202 168.33 88.2402 168.33C88.6602 168.33 89.0562 168.234 89.4282 168.042C89.8122 167.85 90.1182 167.574 90.3462 167.214C90.5862 166.854 90.7062 166.416 90.7062 165.9C90.7062 165.444 90.5862 165.036 90.3462 164.676C90.1182 164.304 89.8122 164.01 89.4282 163.794C89.0562 163.578 88.6602 163.47 88.2402 163.47C87.8202 163.47 87.4182 163.578 87.0342 163.794C86.6622 164.01 86.3562 164.304 86.1162 164.676C85.8882 165.036 85.7742 165.444 85.7742 165.9ZM100.889 163.2C100.889 164.172 101.105 165.03 101.537 165.774C101.981 166.518 102.557 167.1 103.265 167.52C103.973 167.94 104.741 168.15 105.569 168.15C106.169 168.15 106.715 168.072 107.207 167.916C107.711 167.76 108.167 167.544 108.575 167.268C108.983 166.98 109.331 166.65 109.619 166.278V168.294C109.091 168.762 108.515 169.11 107.891 169.338C107.267 169.566 106.493 169.68 105.569 169.68C104.693 169.68 103.871 169.524 103.103 169.212C102.347 168.888 101.681 168.438 101.105 167.862C100.529 167.274 100.079 166.584 99.7548 165.792C99.4308 165 99.2688 164.136 99.2688 163.2C99.2688 162.264 99.4308 161.4 99.7548 160.608C100.079 159.816 100.529 159.132 101.105 158.556C101.681 157.968 102.347 157.518 103.103 157.206C103.871 156.882 104.693 156.72 105.569 156.72C106.493 156.72 107.267 156.834 107.891 157.062C108.515 157.29 109.091 157.638 109.619 158.106V160.122C109.331 159.75 108.983 159.426 108.575 159.15C108.167 158.862 107.711 158.64 107.207 158.484C106.715 158.328 106.169 158.25 105.569 158.25C104.741 158.25 103.973 158.46 103.265 158.88C102.557 159.3 101.981 159.882 101.537 160.626C101.105 161.358 100.889 162.216 100.889 163.2ZM111.501 165.36C111.501 164.52 111.687 163.776 112.059 163.128C112.443 162.48 112.959 161.97 113.607 161.598C114.255 161.226 114.981 161.04 115.785 161.04C116.601 161.04 117.327 161.226 117.963 161.598C118.611 161.97 119.121 162.48 119.493 163.128C119.877 163.776 120.069 164.52 120.069 165.36C120.069 166.188 119.877 166.932 119.493 167.592C119.121 168.24 118.611 168.75 117.963 169.122C117.327 169.494 116.601 169.68 115.785 169.68C114.981 169.68 114.255 169.494 113.607 169.122C112.959 168.75 112.443 168.24 112.059 167.592C111.687 166.932 111.501 166.188 111.501 165.36ZM112.959 165.36C112.959 165.936 113.079 166.446 113.319 166.89C113.571 167.334 113.907 167.688 114.327 167.952C114.759 168.204 115.245 168.33 115.785 168.33C116.325 168.33 116.805 168.204 117.225 167.952C117.657 167.688 117.993 167.334 118.233 166.89C118.485 166.446 118.611 165.936 118.611 165.36C118.611 164.784 118.485 164.274 118.233 163.83C117.993 163.374 117.657 163.02 117.225 162.768C116.805 162.516 116.325 162.39 115.785 162.39C115.245 162.39 114.759 162.516 114.327 162.768C113.907 163.02 113.571 163.374 113.319 163.83C113.079 164.274 112.959 164.784 112.959 165.36ZM123.487 166.26C123.487 166.92 123.637 167.43 123.937 167.79C124.237 168.15 124.675 168.33 125.251 168.33C125.671 168.33 126.037 168.246 126.349 168.078C126.673 167.898 126.919 167.652 127.087 167.34C127.267 167.028 127.357 166.668 127.357 166.26V161.22H128.797V169.5H127.357V168.204C127.081 168.696 126.739 169.068 126.331 169.32C125.923 169.56 125.443 169.68 124.891 169.68C124.027 169.68 123.337 169.386 122.821 168.798C122.305 168.21 122.047 167.424 122.047 166.44V161.22H123.487V166.26ZM132.944 161.22V169.5H131.504V161.22H132.944ZM135.446 162.804C135.254 162.66 135.08 162.558 134.924 162.498C134.768 162.426 134.57 162.39 134.33 162.39C133.97 162.39 133.688 162.48 133.484 162.66C133.28 162.84 133.136 163.086 133.052 163.398C132.98 163.71 132.944 164.064 132.944 164.46H132.296C132.296 163.8 132.41 163.218 132.638 162.714C132.878 162.198 133.184 161.79 133.556 161.49C133.928 161.19 134.306 161.04 134.69 161.04C134.99 161.04 135.266 161.082 135.518 161.166C135.782 161.238 136.022 161.388 136.238 161.616L135.446 162.804ZM138.016 166.962C138.184 167.214 138.376 167.448 138.592 167.664C138.808 167.88 139.054 168.054 139.33 168.186C139.618 168.306 139.93 168.366 140.266 168.366C140.674 168.366 140.992 168.276 141.22 168.096C141.46 167.904 141.58 167.646 141.58 167.322C141.58 167.034 141.484 166.794 141.292 166.602C141.112 166.398 140.878 166.23 140.59 166.098C140.302 165.954 139.996 165.822 139.672 165.702C139.312 165.558 138.946 165.39 138.574 165.198C138.214 164.994 137.908 164.736 137.656 164.424C137.416 164.1 137.296 163.698 137.296 163.218C137.296 162.726 137.422 162.318 137.674 161.994C137.938 161.67 138.274 161.43 138.682 161.274C139.102 161.118 139.534 161.04 139.978 161.04C140.422 161.04 140.836 161.112 141.22 161.256C141.616 161.4 141.964 161.592 142.264 161.832C142.564 162.072 142.798 162.348 142.966 162.66L141.814 163.398C141.586 163.086 141.298 162.828 140.95 162.624C140.614 162.42 140.23 162.318 139.798 162.318C139.498 162.318 139.24 162.384 139.024 162.516C138.808 162.648 138.7 162.852 138.7 163.128C138.7 163.344 138.784 163.536 138.952 163.704C139.12 163.872 139.336 164.022 139.6 164.154C139.864 164.286 140.14 164.412 140.428 164.532C140.908 164.724 141.346 164.934 141.742 165.162C142.138 165.378 142.45 165.642 142.678 165.954C142.918 166.266 143.038 166.668 143.038 167.16C143.038 167.88 142.774 168.48 142.246 168.96C141.73 169.44 141.046 169.68 140.194 169.68C139.642 169.68 139.144 169.584 138.7 169.392C138.256 169.188 137.878 168.93 137.566 168.618C137.266 168.306 137.038 167.988 136.882 167.664L138.016 166.962ZM148.138 169.68C147.37 169.68 146.686 169.5 146.086 169.14C145.498 168.768 145.036 168.258 144.7 167.61C144.376 166.962 144.214 166.212 144.214 165.36C144.214 164.496 144.382 163.74 144.718 163.092C145.066 162.444 145.546 161.94 146.158 161.58C146.782 161.22 147.502 161.04 148.318 161.04C149.134 161.04 149.83 161.214 150.406 161.562C150.994 161.898 151.444 162.384 151.756 163.02C152.068 163.656 152.224 164.412 152.224 165.288C152.224 165.372 152.218 165.462 152.206 165.558C152.206 165.642 152.206 165.696 152.206 165.72H145.132V164.496H151.072L150.496 165.324C150.532 165.264 150.568 165.174 150.604 165.054C150.64 164.922 150.658 164.814 150.658 164.73C150.658 164.238 150.556 163.812 150.352 163.452C150.16 163.092 149.89 162.81 149.542 162.606C149.194 162.402 148.786 162.3 148.318 162.3C147.766 162.3 147.292 162.42 146.896 162.66C146.512 162.888 146.212 163.224 145.996 163.668C145.792 164.1 145.684 164.634 145.672 165.27C145.672 165.918 145.774 166.47 145.978 166.926C146.182 167.382 146.482 167.73 146.878 167.97C147.274 168.21 147.754 168.33 148.318 168.33C148.882 168.33 149.38 168.21 149.812 167.97C150.244 167.718 150.61 167.34 150.91 166.836L152.08 167.574C151.648 168.27 151.102 168.798 150.442 169.158C149.794 169.506 149.026 169.68 148.138 169.68ZM154.54 166.962C154.708 167.214 154.9 167.448 155.116 167.664C155.332 167.88 155.578 168.054 155.854 168.186C156.142 168.306 156.454 168.366 156.79 168.366C157.198 168.366 157.516 168.276 157.744 168.096C157.984 167.904 158.104 167.646 158.104 167.322C158.104 167.034 158.008 166.794 157.816 166.602C157.636 166.398 157.402 166.23 157.114 166.098C156.826 165.954 156.52 165.822 156.196 165.702C155.836 165.558 155.47 165.39 155.098 165.198C154.738 164.994 154.432 164.736 154.18 164.424C153.94 164.1 153.82 163.698 153.82 163.218C153.82 162.726 153.946 162.318 154.198 161.994C154.462 161.67 154.798 161.43 155.206 161.274C155.626 161.118 156.058 161.04 156.502 161.04C156.946 161.04 157.36 161.112 157.744 161.256C158.14 161.4 158.488 161.592 158.788 161.832C159.088 162.072 159.322 162.348 159.49 162.66L158.338 163.398C158.11 163.086 157.822 162.828 157.474 162.624C157.138 162.42 156.754 162.318 156.322 162.318C156.022 162.318 155.764 162.384 155.548 162.516C155.332 162.648 155.224 162.852 155.224 163.128C155.224 163.344 155.308 163.536 155.476 163.704C155.644 163.872 155.86 164.022 156.124 164.154C156.388 164.286 156.664 164.412 156.952 164.532C157.432 164.724 157.87 164.934 158.266 165.162C158.662 165.378 158.974 165.642 159.202 165.954C159.442 166.266 159.562 166.668 159.562 167.16C159.562 167.88 159.298 168.48 158.77 168.96C158.254 169.44 157.57 169.68 156.718 169.68C156.166 169.68 155.668 169.584 155.224 169.392C154.78 169.188 154.402 168.93 154.09 168.618C153.79 168.306 153.562 167.988 153.406 167.664L154.54 166.962Z" fill="#555555"/>
</svg>
