<svg width="40" height="30" viewBox="0 0 40 30" fill="none" xmlns="http://www.w3.org/2000/svg">
<g clip-path="url(#clip0_10_6338)">
<path d="M17.0063 29.4566C11.5225 27.4703 5.8916 26.8828 0.182922 26.5024V1.37451C0.36053 1.57104 0.482439 1.69084 0.587532 1.82431C1.64477 3.16005 2.71147 4.48738 3.74034 5.84309C3.94002 6.10582 4.08715 6.48311 4.0882 6.8089C4.10922 11.7178 4.10922 16.6267 4.08715 21.5357C4.08399 22.1284 4.17227 22.3838 4.85958 22.4584C8.14376 22.8199 11.4143 23.2792 14.544 24.4236C14.9423 24.5697 15.1545 24.7883 15.3038 25.1761C15.8387 26.5759 16.4083 27.9621 17.0063 29.4566Z" fill="#FF782D"/>
<path d="M39.4837 1.36401V26.5024C33.7939 26.8849 28.1662 27.4598 22.7118 29.4471C22.7686 29.2569 22.8043 29.0919 22.8663 28.9385C23.3708 27.6742 23.8931 26.4173 24.3807 25.1467C24.5215 24.7789 24.7275 24.5718 25.1006 24.4341C27.6743 23.4894 30.3532 23.0269 33.0541 22.6602C33.6888 22.574 34.3247 22.4584 34.9626 22.4363C35.4733 22.4195 35.5795 22.2146 35.5784 21.7427C35.5627 16.8327 35.5753 11.9238 35.5595 7.01384C35.5574 6.50414 35.6814 6.10373 36.0072 5.70648C37.0455 4.43485 38.0492 3.13274 39.0686 1.84429C39.1768 1.70662 39.2966 1.57946 39.4837 1.36401Z" fill="#FF782D"/>
<path d="M17.6747 16.8643C17.6663 17.7503 18.1098 18.3682 18.8801 18.7928C19.0661 18.8948 19.2994 19.1365 19.3005 19.3151C19.3247 22.7811 19.3183 26.2471 19.3152 29.7131C19.3152 29.7625 19.2858 29.8129 19.2259 30C18.7645 28.8587 18.3462 27.834 17.9364 26.8062C16.4661 23.129 14.9927 19.4517 13.5414 15.7661C13.4363 15.4971 13.4163 15.1387 13.4941 14.8613C13.9565 13.225 14.4462 11.5971 14.958 9.97546C15.082 9.58451 15.0116 9.37223 14.6774 9.13051C12.0291 7.21465 9.06752 5.99347 5.94414 5.11173C5.64463 5.02766 5.3304 4.81957 5.13282 4.57891C4.09134 3.30938 3.08455 2.01147 2.06724 0.721977C1.92116 0.537012 1.78454 0.344691 1.59012 0.0830078C6.60623 0.360455 11.0969 1.90743 15.2134 4.56104C16.4577 5.36291 17.6453 6.25305 18.8654 7.09275C19.187 7.31449 19.3341 7.56882 19.3289 7.98604C19.3057 10.089 19.311 12.1929 19.3257 14.2969C19.3289 14.6584 19.25 14.8571 18.8822 15.0168C18.1003 15.3563 17.6831 16.0047 17.6747 16.8643Z" fill="#FF782D"/>
<path d="M38.0523 0.137673C37.8863 0.353114 37.7213 0.569607 37.5531 0.783998C36.5484 2.05878 35.5543 3.34197 34.5275 4.59889C34.3415 4.8259 34.0462 5.02347 33.7635 5.10229C30.6558 5.97142 27.7153 7.19155 25.067 9.06852C24.675 9.34597 24.5846 9.59084 24.7349 10.0564C25.2519 11.6559 25.7217 13.2702 26.1873 14.8844C26.2535 15.1146 26.2755 15.4099 26.1904 15.6253C24.324 20.3314 22.4396 25.0301 20.5574 29.7299C20.5374 29.7814 20.4975 29.8266 20.4134 29.959C20.383 29.7572 20.3504 29.6374 20.3504 29.5176C20.3472 26.1704 20.3535 22.8232 20.3409 19.477C20.3388 19.1092 20.4344 18.921 20.7939 18.7613C21.5705 18.4145 21.9888 17.7692 21.9961 16.9074C22.0024 16.0173 21.5737 15.3636 20.7718 15.0074C20.4366 14.8581 20.3388 14.6858 20.3409 14.34C20.3546 12.1961 20.3399 10.0511 20.3609 7.90724C20.363 7.68234 20.4733 7.37652 20.6404 7.2462C24.5341 4.22056 28.7064 1.72669 33.6037 0.698872C35.0467 0.395152 36.519 0.229104 37.9777 0C38.0019 0.0462412 38.0271 0.0914314 38.0523 0.137673Z" fill="#FF782D"/>
</g>
<defs>
<clipPath id="clip0_10_6338">
<rect width="39.3008" height="30" fill="white" transform="translate(0.182922)"/>
</clipPath>
</defs>
</svg>
